G04 Layer_Color=13813960*
%FSLAX25Y25*%
%MOIN*%
G70*
G01*
G75*
%ADD24C,0.00787*%
%ADD40C,0.00984*%
%ADD41C,0.02362*%
G36*
X105220Y266357D02*
X105289Y266266D01*
X105357Y266180D01*
X105426Y266100D01*
X105489Y266032D01*
X105540Y265980D01*
X105580Y265946D01*
X105586Y265940D01*
X105591Y265935D01*
X105706Y265838D01*
X105820Y265752D01*
X105934Y265678D01*
X106043Y265615D01*
X106134Y265564D01*
X106174Y265541D01*
X106208Y265524D01*
X106237Y265506D01*
X106260Y265495D01*
X106271Y265489D01*
X106277D01*
Y265033D01*
X106191Y265067D01*
X106105Y265107D01*
X106025Y265141D01*
X105951Y265181D01*
X105883Y265215D01*
X105831Y265244D01*
X105797Y265267D01*
X105791Y265272D01*
X105786D01*
X105689Y265335D01*
X105597Y265392D01*
X105517Y265449D01*
X105454Y265495D01*
X105403Y265541D01*
X105363Y265569D01*
X105340Y265592D01*
X105334Y265598D01*
Y262600D01*
X104860D01*
Y266454D01*
X105169D01*
X105220Y266357D01*
D02*
G37*
G36*
X111719Y223551D02*
X111810Y223546D01*
X111890Y223529D01*
X111970Y223512D01*
X112044Y223494D01*
X112113Y223477D01*
X112176Y223454D01*
X112233Y223437D01*
X112278Y223420D01*
X112318Y223403D01*
X112353Y223386D01*
X112381Y223369D01*
X112398Y223363D01*
X112410Y223352D01*
X112415D01*
X112535Y223266D01*
X112632Y223175D01*
X112718Y223083D01*
X112781Y222998D01*
X112832Y222918D01*
X112866Y222855D01*
X112878Y222832D01*
X112883Y222815D01*
X112889Y222803D01*
Y222798D01*
X112935Y222661D01*
X112963Y222506D01*
X112986Y222358D01*
X113003Y222210D01*
X113009Y222141D01*
X113015Y222078D01*
Y222021D01*
X113021Y221975D01*
Y221936D01*
Y221901D01*
Y221884D01*
Y221878D01*
Y219657D01*
X112512D01*
Y221878D01*
Y222010D01*
X112501Y222124D01*
X112489Y222238D01*
X112472Y222335D01*
X112455Y222421D01*
X112438Y222501D01*
X112415Y222575D01*
X112392Y222638D01*
X112370Y222689D01*
X112347Y222735D01*
X112330Y222775D01*
X112312Y222803D01*
X112295Y222826D01*
X112284Y222843D01*
X112278Y222849D01*
X112273Y222855D01*
X112227Y222901D01*
X112170Y222935D01*
X112044Y222998D01*
X111913Y223043D01*
X111782Y223072D01*
X111662Y223095D01*
X111610Y223100D01*
X111565D01*
X111524Y223106D01*
X111473D01*
X111353Y223100D01*
X111245Y223089D01*
X111153Y223066D01*
X111068Y223043D01*
X111005Y223020D01*
X110953Y222998D01*
X110925Y222986D01*
X110914Y222980D01*
X110834Y222929D01*
X110771Y222872D01*
X110714Y222809D01*
X110674Y222752D01*
X110640Y222695D01*
X110617Y222655D01*
X110605Y222626D01*
X110600Y222615D01*
X110582Y222569D01*
X110571Y222512D01*
X110548Y222398D01*
X110531Y222278D01*
X110520Y222158D01*
X110514Y222050D01*
Y221998D01*
X110508Y221958D01*
Y221924D01*
Y221901D01*
Y221884D01*
Y221878D01*
Y219657D01*
X110000D01*
Y221878D01*
Y221987D01*
X110006Y222095D01*
X110011Y222193D01*
X110023Y222289D01*
X110034Y222375D01*
X110046Y222449D01*
X110057Y222524D01*
X110074Y222592D01*
X110086Y222649D01*
X110097Y222701D01*
X110108Y222741D01*
X110120Y222781D01*
X110131Y222809D01*
X110137Y222826D01*
X110143Y222838D01*
Y222843D01*
X110205Y222969D01*
X110280Y223072D01*
X110365Y223169D01*
X110445Y223243D01*
X110520Y223300D01*
X110577Y223346D01*
X110600Y223363D01*
X110617Y223369D01*
X110628Y223380D01*
X110634D01*
X110771Y223443D01*
X110919Y223483D01*
X111062Y223517D01*
X111205Y223540D01*
X111268Y223546D01*
X111330Y223551D01*
X111382Y223557D01*
X111427D01*
X111467Y223563D01*
X111519D01*
X111719Y223551D01*
D02*
G37*
G36*
X115453Y219646D02*
X115145D01*
X115093Y219743D01*
X115025Y219834D01*
X114956Y219920D01*
X114888Y220000D01*
X114825Y220068D01*
X114773Y220120D01*
X114734Y220154D01*
X114728Y220160D01*
X114722Y220165D01*
X114608Y220263D01*
X114494Y220348D01*
X114380Y220422D01*
X114271Y220485D01*
X114180Y220537D01*
X114140Y220559D01*
X114105Y220577D01*
X114077Y220594D01*
X114054Y220605D01*
X114043Y220611D01*
X114037D01*
Y221068D01*
X114123Y221033D01*
X114208Y220993D01*
X114288Y220959D01*
X114362Y220919D01*
X114431Y220885D01*
X114482Y220856D01*
X114517Y220833D01*
X114522Y220828D01*
X114528D01*
X114625Y220765D01*
X114716Y220708D01*
X114796Y220651D01*
X114859Y220605D01*
X114910Y220559D01*
X114951Y220531D01*
X114973Y220508D01*
X114979Y220502D01*
Y223500D01*
X115453D01*
Y219646D01*
D02*
G37*
G36*
X137784Y263793D02*
Y263679D01*
X137795Y263576D01*
X137801Y263496D01*
X137813Y263428D01*
X137824Y263377D01*
X137830Y263337D01*
X137841Y263314D01*
Y263308D01*
X137864Y263257D01*
X137893Y263211D01*
X137927Y263171D01*
X137955Y263137D01*
X137990Y263108D01*
X138013Y263091D01*
X138030Y263080D01*
X138035Y263074D01*
X138087Y263045D01*
X138144Y263022D01*
X138201Y263011D01*
X138247Y263000D01*
X138292Y262994D01*
X138327Y262988D01*
X138361D01*
X138452Y262994D01*
X138538Y263011D01*
X138606Y263040D01*
X138663Y263068D01*
X138709Y263097D01*
X138743Y263125D01*
X138766Y263142D01*
X138772Y263148D01*
X138795Y263182D01*
X138818Y263222D01*
X138857Y263308D01*
X138886Y263411D01*
X138903Y263514D01*
X138920Y263605D01*
X138926Y263645D01*
Y263679D01*
X138932Y263714D01*
Y263736D01*
Y263748D01*
Y263753D01*
X139389Y263691D01*
Y263588D01*
X139383Y263491D01*
X139372Y263394D01*
X139354Y263314D01*
X139331Y263234D01*
X139314Y263165D01*
X139286Y263097D01*
X139263Y263040D01*
X139240Y262988D01*
X139217Y262943D01*
X139194Y262908D01*
X139172Y262880D01*
X139155Y262851D01*
X139143Y262834D01*
X139132Y262828D01*
Y262823D01*
X139080Y262771D01*
X139023Y262731D01*
X138960Y262691D01*
X138898Y262657D01*
X138772Y262606D01*
X138646Y262572D01*
X138532Y262554D01*
X138486Y262549D01*
X138441Y262543D01*
X138407Y262537D01*
X138361D01*
X138235Y262543D01*
X138121Y262560D01*
X138024Y262583D01*
X137933Y262606D01*
X137864Y262629D01*
X137813Y262651D01*
X137778Y262668D01*
X137767Y262674D01*
X137676Y262731D01*
X137601Y262794D01*
X137539Y262863D01*
X137487Y262926D01*
X137447Y262983D01*
X137419Y263028D01*
X137401Y263063D01*
X137396Y263074D01*
X137356Y263182D01*
X137327Y263302D01*
X137304Y263428D01*
X137293Y263548D01*
X137282Y263656D01*
Y263702D01*
X137276Y263742D01*
Y263776D01*
Y263799D01*
Y263816D01*
Y263822D01*
Y266443D01*
X137784D01*
Y263793D01*
D02*
G37*
G36*
X135466Y266448D02*
X135557Y266443D01*
X135649Y266426D01*
X135729Y266409D01*
X135808Y266386D01*
X135883Y266363D01*
X135945Y266340D01*
X136003Y266312D01*
X136060Y266283D01*
X136105Y266260D01*
X136145Y266237D01*
X136180Y266214D01*
X136202Y266197D01*
X136220Y266180D01*
X136231Y266175D01*
X136237Y266169D01*
X136294Y266112D01*
X136345Y266049D01*
X136391Y265986D01*
X136431Y265917D01*
X136499Y265780D01*
X136545Y265649D01*
X136574Y265529D01*
X136585Y265478D01*
X136596Y265432D01*
X136602Y265392D01*
X136608Y265364D01*
Y265347D01*
Y265341D01*
X136123Y265289D01*
X136111Y265415D01*
X136088Y265529D01*
X136060Y265626D01*
X136020Y265706D01*
X135985Y265769D01*
X135951Y265815D01*
X135928Y265843D01*
X135923Y265855D01*
X135843Y265923D01*
X135751Y265975D01*
X135660Y266015D01*
X135569Y266037D01*
X135494Y266055D01*
X135432Y266060D01*
X135409Y266066D01*
X135374D01*
X135260Y266060D01*
X135158Y266037D01*
X135072Y266003D01*
X134992Y265969D01*
X134935Y265935D01*
X134889Y265900D01*
X134866Y265878D01*
X134855Y265872D01*
X134786Y265798D01*
X134735Y265718D01*
X134701Y265638D01*
X134672Y265564D01*
X134661Y265495D01*
X134655Y265444D01*
X134649Y265409D01*
Y265404D01*
Y265398D01*
X134661Y265295D01*
X134684Y265198D01*
X134718Y265101D01*
X134758Y265010D01*
X134803Y264935D01*
X134838Y264878D01*
X134849Y264856D01*
X134861Y264838D01*
X134872Y264833D01*
Y264827D01*
X134918Y264770D01*
X134975Y264707D01*
X135032Y264644D01*
X135100Y264576D01*
X135237Y264439D01*
X135380Y264313D01*
X135506Y264193D01*
X135563Y264142D01*
X135614Y264102D01*
X135660Y264068D01*
X135688Y264039D01*
X135711Y264022D01*
X135717Y264016D01*
X135860Y263896D01*
X135985Y263788D01*
X136094Y263685D01*
X136180Y263599D01*
X136248Y263531D01*
X136300Y263479D01*
X136328Y263445D01*
X136339Y263439D01*
Y263434D01*
X136414Y263342D01*
X136477Y263251D01*
X136528Y263165D01*
X136574Y263085D01*
X136608Y263022D01*
X136631Y262971D01*
X136642Y262937D01*
X136648Y262931D01*
Y262926D01*
X136665Y262868D01*
X136682Y262806D01*
X136688Y262754D01*
X136694Y262703D01*
X136699Y262663D01*
Y262629D01*
Y262606D01*
Y262600D01*
X134158D01*
Y263051D01*
X136042D01*
X135980Y263142D01*
X135945Y263188D01*
X135911Y263222D01*
X135883Y263257D01*
X135860Y263280D01*
X135848Y263297D01*
X135843Y263302D01*
X135814Y263331D01*
X135786Y263359D01*
X135706Y263434D01*
X135620Y263514D01*
X135529Y263594D01*
X135437Y263668D01*
X135369Y263731D01*
X135340Y263753D01*
X135317Y263771D01*
X135306Y263782D01*
X135300Y263788D01*
X135209Y263868D01*
X135123Y263942D01*
X135043Y264010D01*
X134975Y264073D01*
X134906Y264136D01*
X134849Y264187D01*
X134792Y264239D01*
X134746Y264284D01*
X134706Y264324D01*
X134672Y264359D01*
X134638Y264393D01*
X134615Y264416D01*
X134587Y264450D01*
X134575Y264461D01*
X134501Y264553D01*
X134432Y264638D01*
X134381Y264718D01*
X134335Y264793D01*
X134301Y264850D01*
X134278Y264890D01*
X134267Y264918D01*
X134261Y264930D01*
X134227Y265015D01*
X134204Y265095D01*
X134187Y265170D01*
X134175Y265244D01*
X134170Y265301D01*
X134164Y265347D01*
Y265375D01*
Y265387D01*
X134170Y265472D01*
X134175Y265546D01*
X134193Y265626D01*
X134215Y265695D01*
X134267Y265826D01*
X134324Y265935D01*
X134358Y265980D01*
X134387Y266026D01*
X134415Y266060D01*
X134438Y266089D01*
X134461Y266117D01*
X134478Y266135D01*
X134484Y266140D01*
X134489Y266146D01*
X134552Y266203D01*
X134621Y266249D01*
X134689Y266289D01*
X134758Y266323D01*
X134906Y266380D01*
X135043Y266414D01*
X135112Y266431D01*
X135169Y266437D01*
X135226Y266443D01*
X135272Y266448D01*
X135312Y266454D01*
X135363D01*
X135466Y266448D01*
D02*
G37*
G36*
X107784Y263793D02*
Y263679D01*
X107796Y263576D01*
X107801Y263496D01*
X107813Y263428D01*
X107824Y263377D01*
X107830Y263337D01*
X107841Y263314D01*
Y263308D01*
X107864Y263257D01*
X107893Y263211D01*
X107927Y263171D01*
X107955Y263137D01*
X107990Y263108D01*
X108012Y263091D01*
X108030Y263080D01*
X108035Y263074D01*
X108087Y263045D01*
X108144Y263022D01*
X108201Y263011D01*
X108247Y263000D01*
X108292Y262994D01*
X108326Y262988D01*
X108361D01*
X108452Y262994D01*
X108538Y263011D01*
X108606Y263040D01*
X108663Y263068D01*
X108709Y263097D01*
X108743Y263125D01*
X108766Y263142D01*
X108772Y263148D01*
X108795Y263182D01*
X108818Y263222D01*
X108858Y263308D01*
X108886Y263411D01*
X108903Y263514D01*
X108920Y263605D01*
X108926Y263645D01*
Y263679D01*
X108932Y263714D01*
Y263736D01*
Y263748D01*
Y263753D01*
X109389Y263691D01*
Y263588D01*
X109383Y263491D01*
X109371Y263394D01*
X109354Y263314D01*
X109332Y263234D01*
X109314Y263165D01*
X109286Y263097D01*
X109263Y263040D01*
X109240Y262988D01*
X109217Y262943D01*
X109194Y262908D01*
X109172Y262880D01*
X109154Y262851D01*
X109143Y262834D01*
X109132Y262828D01*
Y262823D01*
X109080Y262771D01*
X109023Y262731D01*
X108960Y262691D01*
X108897Y262657D01*
X108772Y262606D01*
X108646Y262572D01*
X108532Y262554D01*
X108486Y262549D01*
X108441Y262543D01*
X108406Y262537D01*
X108361D01*
X108235Y262543D01*
X108121Y262560D01*
X108024Y262583D01*
X107932Y262606D01*
X107864Y262629D01*
X107813Y262651D01*
X107778Y262668D01*
X107767Y262674D01*
X107676Y262731D01*
X107601Y262794D01*
X107538Y262863D01*
X107487Y262926D01*
X107447Y262983D01*
X107419Y263028D01*
X107402Y263063D01*
X107396Y263074D01*
X107356Y263182D01*
X107327Y263302D01*
X107304Y263428D01*
X107293Y263548D01*
X107282Y263656D01*
Y263702D01*
X107276Y263742D01*
Y263776D01*
Y263799D01*
Y263816D01*
Y263822D01*
Y266443D01*
X107784D01*
Y263793D01*
D02*
G37*
G36*
X129400Y229500D02*
X128892D01*
Y231207D01*
X128235D01*
X128178Y231202D01*
X128132D01*
X128092Y231196D01*
X128064Y231190D01*
X128041D01*
X128030Y231185D01*
X128024D01*
X127938Y231156D01*
X127864Y231122D01*
X127830Y231104D01*
X127807Y231093D01*
X127796Y231087D01*
X127790Y231082D01*
X127744Y231047D01*
X127698Y231013D01*
X127619Y230927D01*
X127584Y230888D01*
X127556Y230853D01*
X127539Y230830D01*
X127533Y230825D01*
X127476Y230750D01*
X127413Y230665D01*
X127350Y230579D01*
X127293Y230493D01*
X127242Y230414D01*
X127202Y230351D01*
X127184Y230328D01*
X127173Y230311D01*
X127162Y230299D01*
Y230294D01*
X126654Y229500D01*
X126020D01*
X126688Y230545D01*
X126762Y230653D01*
X126836Y230750D01*
X126905Y230836D01*
X126968Y230910D01*
X127025Y230973D01*
X127065Y231019D01*
X127093Y231042D01*
X127105Y231053D01*
X127150Y231087D01*
X127196Y231127D01*
X127299Y231185D01*
X127344Y231213D01*
X127379Y231230D01*
X127401Y231242D01*
X127413Y231247D01*
X127310Y231264D01*
X127219Y231281D01*
X127133Y231310D01*
X127053Y231333D01*
X126979Y231362D01*
X126910Y231390D01*
X126853Y231424D01*
X126796Y231453D01*
X126751Y231481D01*
X126711Y231510D01*
X126676Y231533D01*
X126648Y231556D01*
X126625Y231573D01*
X126608Y231590D01*
X126602Y231596D01*
X126596Y231601D01*
X126551Y231653D01*
X126505Y231710D01*
X126442Y231830D01*
X126391Y231944D01*
X126362Y232052D01*
X126339Y232149D01*
X126334Y232189D01*
Y232224D01*
X126328Y232252D01*
Y232275D01*
Y232287D01*
Y232292D01*
X126334Y232406D01*
X126351Y232515D01*
X126379Y232612D01*
X126408Y232698D01*
X126442Y232772D01*
X126465Y232823D01*
X126488Y232857D01*
X126494Y232869D01*
X126556Y232960D01*
X126625Y233034D01*
X126699Y233097D01*
X126768Y233149D01*
X126830Y233189D01*
X126876Y233217D01*
X126910Y233229D01*
X126916Y233234D01*
X126922D01*
X126973Y233252D01*
X127030Y233269D01*
X127156Y233297D01*
X127282Y233314D01*
X127407Y233331D01*
X127521Y233337D01*
X127573D01*
X127613Y233343D01*
X129400D01*
Y229500D01*
D02*
G37*
G36*
X124689Y233343D02*
X124838Y233314D01*
X124969Y233269D01*
X125077Y233223D01*
X125123Y233200D01*
X125169Y233177D01*
X125203Y233154D01*
X125232Y233132D01*
X125254Y233114D01*
X125272Y233103D01*
X125283Y233097D01*
X125289Y233092D01*
X125392Y232983D01*
X125477Y232869D01*
X125546Y232743D01*
X125597Y232629D01*
X125631Y232521D01*
X125648Y232475D01*
X125660Y232441D01*
X125666Y232406D01*
X125671Y232384D01*
X125677Y232366D01*
Y232361D01*
X125203Y232275D01*
X125180Y232395D01*
X125146Y232498D01*
X125106Y232589D01*
X125066Y232663D01*
X125032Y232715D01*
X124998Y232755D01*
X124975Y232783D01*
X124969Y232789D01*
X124895Y232846D01*
X124821Y232892D01*
X124746Y232920D01*
X124672Y232943D01*
X124609Y232955D01*
X124558Y232966D01*
X124512D01*
X124409Y232960D01*
X124324Y232937D01*
X124244Y232915D01*
X124181Y232880D01*
X124124Y232852D01*
X124090Y232823D01*
X124061Y232800D01*
X124055Y232795D01*
X123998Y232726D01*
X123953Y232658D01*
X123924Y232583D01*
X123901Y232515D01*
X123890Y232458D01*
X123878Y232412D01*
Y232378D01*
Y232372D01*
Y232366D01*
Y232309D01*
X123890Y232252D01*
X123918Y232155D01*
X123958Y232069D01*
X123998Y232001D01*
X124044Y231950D01*
X124084Y231910D01*
X124112Y231887D01*
X124118Y231881D01*
X124124D01*
X124215Y231830D01*
X124312Y231790D01*
X124398Y231767D01*
X124484Y231744D01*
X124558Y231733D01*
X124615Y231727D01*
X124689D01*
X124712Y231733D01*
X124741D01*
X124792Y231316D01*
X124718Y231333D01*
X124655Y231344D01*
X124598Y231356D01*
X124552Y231362D01*
X124512Y231367D01*
X124461D01*
X124347Y231356D01*
X124238Y231333D01*
X124147Y231299D01*
X124073Y231264D01*
X124010Y231224D01*
X123964Y231190D01*
X123935Y231167D01*
X123924Y231156D01*
X123850Y231070D01*
X123799Y230985D01*
X123758Y230893D01*
X123736Y230808D01*
X123719Y230733D01*
X123713Y230676D01*
X123707Y230653D01*
Y230636D01*
Y230625D01*
Y230619D01*
X123719Y230499D01*
X123741Y230391D01*
X123781Y230294D01*
X123821Y230208D01*
X123861Y230145D01*
X123901Y230094D01*
X123924Y230065D01*
X123935Y230054D01*
X124027Y229980D01*
X124118Y229923D01*
X124215Y229883D01*
X124301Y229854D01*
X124381Y229837D01*
X124444Y229831D01*
X124467Y229825D01*
X124501D01*
X124604Y229831D01*
X124695Y229854D01*
X124775Y229883D01*
X124843Y229917D01*
X124900Y229945D01*
X124941Y229974D01*
X124963Y229997D01*
X124975Y230002D01*
X125043Y230077D01*
X125100Y230168D01*
X125146Y230265D01*
X125186Y230362D01*
X125215Y230448D01*
X125226Y230488D01*
X125232Y230516D01*
X125237Y230545D01*
X125243Y230568D01*
X125249Y230579D01*
Y230585D01*
X125723Y230522D01*
X125711Y230431D01*
X125694Y230351D01*
X125643Y230197D01*
X125586Y230060D01*
X125517Y229945D01*
X125483Y229900D01*
X125454Y229854D01*
X125426Y229820D01*
X125397Y229791D01*
X125374Y229763D01*
X125357Y229746D01*
X125352Y229740D01*
X125346Y229734D01*
X125283Y229683D01*
X125215Y229637D01*
X125140Y229597D01*
X125072Y229563D01*
X124929Y229511D01*
X124798Y229477D01*
X124735Y229460D01*
X124678Y229454D01*
X124626Y229449D01*
X124586Y229443D01*
X124552Y229437D01*
X124501D01*
X124398Y229443D01*
X124301Y229454D01*
X124210Y229471D01*
X124118Y229494D01*
X124038Y229517D01*
X123964Y229546D01*
X123890Y229580D01*
X123827Y229614D01*
X123770Y229643D01*
X123719Y229677D01*
X123679Y229706D01*
X123639Y229734D01*
X123616Y229751D01*
X123593Y229768D01*
X123582Y229780D01*
X123576Y229785D01*
X123513Y229854D01*
X123456Y229923D01*
X123405Y229991D01*
X123359Y230065D01*
X123325Y230139D01*
X123296Y230208D01*
X123250Y230339D01*
X123233Y230402D01*
X123222Y230459D01*
X123216Y230511D01*
X123210Y230551D01*
X123205Y230591D01*
Y230613D01*
Y230631D01*
Y230636D01*
X123210Y230768D01*
X123233Y230888D01*
X123267Y230996D01*
X123302Y231082D01*
X123336Y231156D01*
X123370Y231207D01*
X123393Y231242D01*
X123399Y231253D01*
X123473Y231339D01*
X123559Y231407D01*
X123650Y231464D01*
X123730Y231510D01*
X123810Y231539D01*
X123867Y231561D01*
X123890Y231567D01*
X123907Y231573D01*
X123918Y231578D01*
X123924D01*
X123833Y231624D01*
X123753Y231681D01*
X123684Y231733D01*
X123627Y231784D01*
X123587Y231830D01*
X123553Y231864D01*
X123536Y231887D01*
X123530Y231898D01*
X123484Y231978D01*
X123450Y232058D01*
X123427Y232132D01*
X123410Y232207D01*
X123399Y232264D01*
X123393Y232315D01*
Y232344D01*
Y232355D01*
X123399Y232452D01*
X123416Y232543D01*
X123439Y232623D01*
X123462Y232698D01*
X123490Y232760D01*
X123513Y232806D01*
X123530Y232835D01*
X123536Y232846D01*
X123593Y232932D01*
X123661Y233000D01*
X123730Y233069D01*
X123793Y233120D01*
X123856Y233160D01*
X123901Y233194D01*
X123935Y233211D01*
X123941Y233217D01*
X123947D01*
X124050Y233263D01*
X124147Y233297D01*
X124244Y233320D01*
X124335Y233337D01*
X124409Y233348D01*
X124472Y233354D01*
X124609D01*
X124689Y233343D01*
D02*
G37*
G36*
X114044Y233349D02*
X114136Y233343D01*
X114227Y233326D01*
X114307Y233309D01*
X114387Y233286D01*
X114461Y233263D01*
X114524Y233240D01*
X114581Y233211D01*
X114638Y233183D01*
X114684Y233160D01*
X114724Y233137D01*
X114758Y233115D01*
X114781Y233097D01*
X114798Y233080D01*
X114810Y233074D01*
X114815Y233069D01*
X114872Y233012D01*
X114924Y232949D01*
X114969Y232886D01*
X115009Y232818D01*
X115078Y232681D01*
X115123Y232549D01*
X115152Y232429D01*
X115164Y232378D01*
X115175Y232332D01*
X115181Y232292D01*
X115186Y232264D01*
Y232246D01*
Y232241D01*
X114701Y232189D01*
X114690Y232315D01*
X114667Y232429D01*
X114638Y232526D01*
X114598Y232606D01*
X114564Y232669D01*
X114530Y232715D01*
X114507Y232743D01*
X114501Y232755D01*
X114421Y232823D01*
X114330Y232875D01*
X114239Y232915D01*
X114147Y232938D01*
X114073Y232955D01*
X114010Y232960D01*
X113987Y232966D01*
X113953D01*
X113839Y232960D01*
X113736Y232938D01*
X113650Y232903D01*
X113570Y232869D01*
X113513Y232835D01*
X113468Y232800D01*
X113445Y232778D01*
X113433Y232772D01*
X113365Y232698D01*
X113313Y232618D01*
X113279Y232538D01*
X113251Y232464D01*
X113239Y232395D01*
X113233Y232344D01*
X113228Y232309D01*
Y232304D01*
Y232298D01*
X113239Y232195D01*
X113262Y232098D01*
X113296Y232001D01*
X113336Y231910D01*
X113382Y231835D01*
X113416Y231778D01*
X113428Y231755D01*
X113439Y231738D01*
X113451Y231733D01*
Y231727D01*
X113496Y231670D01*
X113553Y231607D01*
X113610Y231544D01*
X113679Y231476D01*
X113816Y231339D01*
X113959Y231213D01*
X114084Y231093D01*
X114141Y231042D01*
X114193Y231002D01*
X114239Y230967D01*
X114267Y230939D01*
X114290Y230922D01*
X114296Y230916D01*
X114438Y230796D01*
X114564Y230688D01*
X114672Y230585D01*
X114758Y230499D01*
X114827Y230431D01*
X114878Y230379D01*
X114907Y230345D01*
X114918Y230339D01*
Y230334D01*
X114992Y230242D01*
X115055Y230151D01*
X115106Y230065D01*
X115152Y229985D01*
X115186Y229923D01*
X115209Y229871D01*
X115221Y229837D01*
X115226Y229831D01*
Y229825D01*
X115243Y229768D01*
X115261Y229706D01*
X115266Y229654D01*
X115272Y229603D01*
X115278Y229563D01*
Y229529D01*
Y229506D01*
Y229500D01*
X112737D01*
Y229951D01*
X114621D01*
X114558Y230043D01*
X114524Y230088D01*
X114490Y230122D01*
X114461Y230157D01*
X114438Y230180D01*
X114427Y230197D01*
X114421Y230202D01*
X114393Y230231D01*
X114364Y230259D01*
X114284Y230334D01*
X114199Y230414D01*
X114107Y230494D01*
X114016Y230568D01*
X113947Y230631D01*
X113919Y230654D01*
X113896Y230671D01*
X113884Y230682D01*
X113879Y230688D01*
X113787Y230768D01*
X113702Y230842D01*
X113622Y230910D01*
X113553Y230973D01*
X113485Y231036D01*
X113428Y231087D01*
X113371Y231139D01*
X113325Y231185D01*
X113285Y231224D01*
X113251Y231259D01*
X113216Y231293D01*
X113194Y231316D01*
X113165Y231350D01*
X113154Y231362D01*
X113079Y231453D01*
X113011Y231539D01*
X112959Y231618D01*
X112914Y231693D01*
X112880Y231750D01*
X112857Y231790D01*
X112845Y231818D01*
X112839Y231830D01*
X112805Y231915D01*
X112782Y231995D01*
X112765Y232069D01*
X112754Y232144D01*
X112748Y232201D01*
X112742Y232246D01*
Y232275D01*
Y232287D01*
X112748Y232372D01*
X112754Y232446D01*
X112771Y232526D01*
X112794Y232595D01*
X112845Y232726D01*
X112902Y232835D01*
X112937Y232880D01*
X112965Y232926D01*
X112994Y232960D01*
X113016Y232989D01*
X113039Y233017D01*
X113057Y233034D01*
X113062Y233040D01*
X113068Y233046D01*
X113131Y233103D01*
X113199Y233149D01*
X113268Y233189D01*
X113336Y233223D01*
X113485Y233280D01*
X113622Y233314D01*
X113690Y233331D01*
X113747Y233337D01*
X113804Y233343D01*
X113850Y233349D01*
X113890Y233354D01*
X113942D01*
X114044Y233349D01*
D02*
G37*
G36*
X118892Y229500D02*
X118384D01*
Y231207D01*
X117727D01*
X117670Y231202D01*
X117624D01*
X117585Y231196D01*
X117556Y231190D01*
X117533D01*
X117522Y231185D01*
X117516D01*
X117430Y231156D01*
X117356Y231122D01*
X117322Y231105D01*
X117299Y231093D01*
X117288Y231087D01*
X117282Y231082D01*
X117236Y231047D01*
X117191Y231013D01*
X117111Y230927D01*
X117076Y230888D01*
X117048Y230853D01*
X117031Y230831D01*
X117025Y230825D01*
X116968Y230750D01*
X116905Y230665D01*
X116842Y230579D01*
X116785Y230494D01*
X116734Y230414D01*
X116694Y230351D01*
X116677Y230328D01*
X116665Y230311D01*
X116654Y230299D01*
Y230294D01*
X116146Y229500D01*
X115512D01*
X116180Y230545D01*
X116254Y230654D01*
X116328Y230750D01*
X116397Y230836D01*
X116460Y230910D01*
X116517Y230973D01*
X116557Y231019D01*
X116585Y231042D01*
X116597Y231053D01*
X116642Y231087D01*
X116688Y231127D01*
X116791Y231185D01*
X116837Y231213D01*
X116871Y231230D01*
X116894Y231242D01*
X116905Y231247D01*
X116802Y231264D01*
X116711Y231282D01*
X116625Y231310D01*
X116545Y231333D01*
X116471Y231362D01*
X116403Y231390D01*
X116346Y231424D01*
X116288Y231453D01*
X116243Y231481D01*
X116203Y231510D01*
X116168Y231533D01*
X116140Y231556D01*
X116117Y231573D01*
X116100Y231590D01*
X116094Y231596D01*
X116088Y231601D01*
X116043Y231653D01*
X115997Y231710D01*
X115934Y231830D01*
X115883Y231944D01*
X115854Y232052D01*
X115832Y232150D01*
X115826Y232189D01*
Y232224D01*
X115820Y232252D01*
Y232275D01*
Y232287D01*
Y232292D01*
X115826Y232406D01*
X115843Y232515D01*
X115872Y232612D01*
X115900Y232698D01*
X115934Y232772D01*
X115957Y232823D01*
X115980Y232857D01*
X115986Y232869D01*
X116049Y232960D01*
X116117Y233034D01*
X116191Y233097D01*
X116260Y233149D01*
X116323Y233189D01*
X116368Y233217D01*
X116403Y233229D01*
X116408Y233234D01*
X116414D01*
X116465Y233252D01*
X116523Y233269D01*
X116648Y233297D01*
X116774Y233314D01*
X116899Y233331D01*
X117014Y233337D01*
X117065D01*
X117105Y233343D01*
X118892D01*
Y229500D01*
D02*
G37*
%LPC*%
G36*
X128892Y232920D02*
X127676D01*
X127527Y232915D01*
X127401Y232892D01*
X127293Y232863D01*
X127207Y232835D01*
X127139Y232800D01*
X127093Y232772D01*
X127065Y232749D01*
X127053Y232743D01*
X126985Y232675D01*
X126939Y232600D01*
X126905Y232521D01*
X126876Y232452D01*
X126865Y232389D01*
X126859Y232338D01*
X126853Y232304D01*
Y232298D01*
Y232292D01*
X126859Y232224D01*
X126871Y232161D01*
X126888Y232098D01*
X126905Y232047D01*
X126922Y232007D01*
X126939Y231972D01*
X126950Y231950D01*
X126956Y231944D01*
X126996Y231892D01*
X127048Y231841D01*
X127099Y231807D01*
X127145Y231773D01*
X127190Y231750D01*
X127225Y231727D01*
X127247Y231721D01*
X127259Y231715D01*
X127339Y231693D01*
X127424Y231676D01*
X127516Y231664D01*
X127601Y231658D01*
X127681Y231653D01*
X127744Y231647D01*
X128892D01*
Y232920D01*
D02*
G37*
G36*
X118384Y232920D02*
X117168D01*
X117019Y232915D01*
X116894Y232892D01*
X116785Y232863D01*
X116700Y232835D01*
X116631Y232800D01*
X116585Y232772D01*
X116557Y232749D01*
X116545Y232743D01*
X116477Y232675D01*
X116431Y232601D01*
X116397Y232521D01*
X116368Y232452D01*
X116357Y232389D01*
X116351Y232338D01*
X116346Y232304D01*
Y232298D01*
Y232292D01*
X116351Y232224D01*
X116363Y232161D01*
X116380Y232098D01*
X116397Y232047D01*
X116414Y232007D01*
X116431Y231973D01*
X116443Y231950D01*
X116448Y231944D01*
X116488Y231892D01*
X116540Y231841D01*
X116591Y231807D01*
X116637Y231773D01*
X116682Y231750D01*
X116717Y231727D01*
X116739Y231721D01*
X116751Y231715D01*
X116831Y231693D01*
X116917Y231676D01*
X117008Y231664D01*
X117094Y231658D01*
X117173Y231653D01*
X117236Y231647D01*
X118384D01*
Y232920D01*
D02*
G37*
%LPD*%
D24*
X109370Y251874D02*
X130630D01*
X109370Y236126D02*
X130630D01*
X109370D02*
Y251874D01*
X130630Y236126D02*
Y251874D01*
D40*
X109646Y257189D02*
G03*
X109646Y257189I-492J0D01*
G01*
D41*
X114488Y247937D02*
G03*
X114488Y247937I-1181J0D01*
G01*
M02*
