G04 Layer_Color=20142*
%FSLAX25Y25*%
%MOIN*%
G70*
G01*
G75*
%ADD27R,0.04137X0.03543*%
%ADD28R,0.03800X0.03800*%
%ADD29R,0.03950X0.04540*%
%ADD30R,0.03162X0.03950*%
%ADD31R,0.04147X0.03556*%
%ADD32R,0.04147X0.04343*%
%ADD33R,0.07099X0.08280*%
%ADD34R,0.02375X0.06706*%
%ADD35R,0.09068X0.08674*%
%ADD36C,0.02300*%
D27*
X119000Y243850D02*
D03*
Y250150D02*
D03*
D28*
X112724Y243500D02*
D03*
X103276D02*
D03*
X112724Y249000D02*
D03*
X103276D02*
D03*
D29*
X135559Y250000D02*
D03*
X130441D02*
D03*
D30*
X130146Y243500D02*
D03*
X135854D02*
D03*
D31*
X124500Y244539D02*
D03*
Y249461D02*
D03*
D32*
X130441Y256000D02*
D03*
X135559D02*
D03*
D33*
X136142Y225311D02*
D03*
X103858D02*
D03*
D34*
X117441Y236138D02*
D03*
X120000D02*
D03*
X114882D02*
D03*
X122559D02*
D03*
X125118D02*
D03*
D35*
X132205Y234563D02*
D03*
X107795D02*
D03*
D36*
X120000Y256000D02*
D03*
X137900Y231000D02*
D03*
X102000D02*
D03*
X121000Y221500D02*
D03*
X125000Y229000D02*
D03*
X120000Y224500D02*
D03*
X112500Y252300D02*
D03*
X130300Y246900D02*
D03*
X127600Y247500D02*
D03*
X109850Y242550D02*
D03*
X112500Y228300D02*
D03*
X109850Y255000D02*
D03*
X107900Y250600D02*
D03*
X127500Y252300D02*
D03*
X135000Y230400D02*
D03*
X109600Y257900D02*
D03*
X125000Y256900D02*
D03*
M02*
