G04 #@! TF.GenerationSoftware,KiCad,Pcbnew,5.0.2-bee76a0~70~ubuntu18.04.1*
G04 #@! TF.CreationDate,2019-01-01T14:20:38-08:00*
G04 #@! TF.ProjectId,USB_TypeA_Breakout_V1,5553425f-5479-4706-9541-5f427265616b,rev?*
G04 #@! TF.SameCoordinates,Original*
G04 #@! TF.FileFunction,Legend,Bot*
G04 #@! TF.FilePolarity,Positive*
%FSLAX46Y46*%
G04 Gerber Fmt 4.6, Leading zero omitted, Abs format (unit mm)*
G04 Created by KiCad (PCBNEW 5.0.2-bee76a0~70~ubuntu18.04.1) date Tue 01 Jan 2019 02:20:38 PM PST*
%MOMM*%
%LPD*%
G01*
G04 APERTURE LIST*
%ADD10C,0.300000*%
G04 APERTURE END LIST*
D10*
X124827371Y-78058142D02*
X126041657Y-78058142D01*
X126184514Y-78129571D01*
X126255942Y-78201000D01*
X126327371Y-78343857D01*
X126327371Y-78629571D01*
X126255942Y-78772428D01*
X126184514Y-78843857D01*
X126041657Y-78915285D01*
X124827371Y-78915285D01*
X126255942Y-79558142D02*
X126327371Y-79772428D01*
X126327371Y-80129571D01*
X126255942Y-80272428D01*
X126184514Y-80343857D01*
X126041657Y-80415285D01*
X125898800Y-80415285D01*
X125755942Y-80343857D01*
X125684514Y-80272428D01*
X125613085Y-80129571D01*
X125541657Y-79843857D01*
X125470228Y-79701000D01*
X125398800Y-79629571D01*
X125255942Y-79558142D01*
X125113085Y-79558142D01*
X124970228Y-79629571D01*
X124898800Y-79701000D01*
X124827371Y-79843857D01*
X124827371Y-80201000D01*
X124898800Y-80415285D01*
X125541657Y-81558142D02*
X125613085Y-81772428D01*
X125684514Y-81843857D01*
X125827371Y-81915285D01*
X126041657Y-81915285D01*
X126184514Y-81843857D01*
X126255942Y-81772428D01*
X126327371Y-81629571D01*
X126327371Y-81058142D01*
X124827371Y-81058142D01*
X124827371Y-81558142D01*
X124898800Y-81701000D01*
X124970228Y-81772428D01*
X125113085Y-81843857D01*
X125255942Y-81843857D01*
X125398800Y-81772428D01*
X125470228Y-81701000D01*
X125541657Y-81558142D01*
X125541657Y-81058142D01*
X124827371Y-83486714D02*
X124827371Y-84343857D01*
X126327371Y-83915285D02*
X124827371Y-83915285D01*
X125327371Y-84701000D02*
X126327371Y-85058142D01*
X125327371Y-85415285D02*
X126327371Y-85058142D01*
X126684514Y-84915285D01*
X126755942Y-84843857D01*
X126827371Y-84701000D01*
X125327371Y-85986714D02*
X126827371Y-85986714D01*
X125398800Y-85986714D02*
X125327371Y-86129571D01*
X125327371Y-86415285D01*
X125398800Y-86558142D01*
X125470228Y-86629571D01*
X125613085Y-86701000D01*
X126041657Y-86701000D01*
X126184514Y-86629571D01*
X126255942Y-86558142D01*
X126327371Y-86415285D01*
X126327371Y-86129571D01*
X126255942Y-85986714D01*
X126255942Y-87915285D02*
X126327371Y-87772428D01*
X126327371Y-87486714D01*
X126255942Y-87343857D01*
X126113085Y-87272428D01*
X125541657Y-87272428D01*
X125398800Y-87343857D01*
X125327371Y-87486714D01*
X125327371Y-87772428D01*
X125398800Y-87915285D01*
X125541657Y-87986714D01*
X125684514Y-87986714D01*
X125827371Y-87272428D01*
X125898800Y-89701000D02*
X125898800Y-90415285D01*
X126327371Y-89558142D02*
X124827371Y-90058142D01*
X126327371Y-90558142D01*
X128091657Y-78201000D02*
X128163085Y-78415285D01*
X128234514Y-78486714D01*
X128377371Y-78558142D01*
X128591657Y-78558142D01*
X128734514Y-78486714D01*
X128805942Y-78415285D01*
X128877371Y-78272428D01*
X128877371Y-77701000D01*
X127377371Y-77701000D01*
X127377371Y-78201000D01*
X127448800Y-78343857D01*
X127520228Y-78415285D01*
X127663085Y-78486714D01*
X127805942Y-78486714D01*
X127948800Y-78415285D01*
X128020228Y-78343857D01*
X128091657Y-78201000D01*
X128091657Y-77701000D01*
X128877371Y-79201000D02*
X127877371Y-79201000D01*
X128163085Y-79201000D02*
X128020228Y-79272428D01*
X127948800Y-79343857D01*
X127877371Y-79486714D01*
X127877371Y-79629571D01*
X128805942Y-80701000D02*
X128877371Y-80558142D01*
X128877371Y-80272428D01*
X128805942Y-80129571D01*
X128663085Y-80058142D01*
X128091657Y-80058142D01*
X127948800Y-80129571D01*
X127877371Y-80272428D01*
X127877371Y-80558142D01*
X127948800Y-80701000D01*
X128091657Y-80772428D01*
X128234514Y-80772428D01*
X128377371Y-80058142D01*
X128877371Y-82058142D02*
X128091657Y-82058142D01*
X127948800Y-81986714D01*
X127877371Y-81843857D01*
X127877371Y-81558142D01*
X127948800Y-81415285D01*
X128805942Y-82058142D02*
X128877371Y-81915285D01*
X128877371Y-81558142D01*
X128805942Y-81415285D01*
X128663085Y-81343857D01*
X128520228Y-81343857D01*
X128377371Y-81415285D01*
X128305942Y-81558142D01*
X128305942Y-81915285D01*
X128234514Y-82058142D01*
X128877371Y-82772428D02*
X127377371Y-82772428D01*
X128305942Y-82915285D02*
X128877371Y-83343857D01*
X127877371Y-83343857D02*
X128448800Y-82772428D01*
X128877371Y-84201000D02*
X128805942Y-84058142D01*
X128734514Y-83986714D01*
X128591657Y-83915285D01*
X128163085Y-83915285D01*
X128020228Y-83986714D01*
X127948800Y-84058142D01*
X127877371Y-84201000D01*
X127877371Y-84415285D01*
X127948800Y-84558142D01*
X128020228Y-84629571D01*
X128163085Y-84701000D01*
X128591657Y-84701000D01*
X128734514Y-84629571D01*
X128805942Y-84558142D01*
X128877371Y-84415285D01*
X128877371Y-84201000D01*
X127877371Y-85986714D02*
X128877371Y-85986714D01*
X127877371Y-85343857D02*
X128663085Y-85343857D01*
X128805942Y-85415285D01*
X128877371Y-85558142D01*
X128877371Y-85772428D01*
X128805942Y-85915285D01*
X128734514Y-85986714D01*
X127877371Y-86486714D02*
X127877371Y-87058142D01*
X127377371Y-86701000D02*
X128663085Y-86701000D01*
X128805942Y-86772428D01*
X128877371Y-86915285D01*
X128877371Y-87058142D01*
X127377371Y-88486714D02*
X128877371Y-88986714D01*
X127377371Y-89486714D01*
X128877371Y-90772428D02*
X128877371Y-89915285D01*
X128877371Y-90343857D02*
X127377371Y-90343857D01*
X127591657Y-90201000D01*
X127734514Y-90058142D01*
X127805942Y-89915285D01*
M02*
