G04 #@! TF.GenerationSoftware,KiCad,Pcbnew,5.0.2-bee76a0~70~ubuntu18.04.1*
G04 #@! TF.CreationDate,2019-01-01T14:20:38-08:00*
G04 #@! TF.ProjectId,USB_TypeA_Breakout_V1,5553425f-5479-4706-9541-5f427265616b,rev?*
G04 #@! TF.SameCoordinates,Original*
G04 #@! TF.FileFunction,Soldermask,Top*
G04 #@! TF.FilePolarity,Negative*
%FSLAX46Y46*%
G04 Gerber Fmt 4.6, Leading zero omitted, Abs format (unit mm)*
G04 Created by KiCad (PCBNEW 5.0.2-bee76a0~70~ubuntu18.04.1) date Tue 01 Jan 2019 02:20:38 PM PST*
%MOMM*%
%LPD*%
G01*
G04 APERTURE LIST*
%ADD10C,0.100000*%
G04 APERTURE END LIST*
D10*
G36*
X118317871Y-89255808D02*
X118622883Y-89382148D01*
X118895538Y-89564330D01*
X118897390Y-89565568D01*
X119130832Y-89799010D01*
X119130834Y-89799013D01*
X119314252Y-90073517D01*
X119440592Y-90378529D01*
X119505000Y-90702328D01*
X119505000Y-91032472D01*
X119440592Y-91356271D01*
X119314252Y-91661283D01*
X119132070Y-91933938D01*
X119130832Y-91935790D01*
X118897390Y-92169232D01*
X118897387Y-92169234D01*
X118622883Y-92352652D01*
X118317871Y-92478992D01*
X117994072Y-92543400D01*
X117663928Y-92543400D01*
X117340129Y-92478992D01*
X117035117Y-92352652D01*
X116760613Y-92169234D01*
X116760610Y-92169232D01*
X116527168Y-91935790D01*
X116525930Y-91933938D01*
X116343748Y-91661283D01*
X116217408Y-91356271D01*
X116153000Y-91032472D01*
X116153000Y-90702328D01*
X116217408Y-90378529D01*
X116343748Y-90073517D01*
X116527166Y-89799013D01*
X116527168Y-89799010D01*
X116760610Y-89565568D01*
X116762462Y-89564330D01*
X117035117Y-89382148D01*
X117340129Y-89255808D01*
X117663928Y-89191400D01*
X117994072Y-89191400D01*
X118317871Y-89255808D01*
X118317871Y-89255808D01*
G37*
G36*
X136559243Y-87319719D02*
X136625427Y-87326237D01*
X136738653Y-87360584D01*
X136795267Y-87377757D01*
X136933887Y-87451852D01*
X136951791Y-87461422D01*
X136987529Y-87490752D01*
X137088986Y-87574014D01*
X137172248Y-87675471D01*
X137201578Y-87711209D01*
X137201579Y-87711211D01*
X137285243Y-87867733D01*
X137285243Y-87867734D01*
X137336763Y-88037573D01*
X137354159Y-88214200D01*
X137336763Y-88390827D01*
X137302416Y-88504053D01*
X137285243Y-88560667D01*
X137211148Y-88699287D01*
X137201578Y-88717191D01*
X137172248Y-88752929D01*
X137088986Y-88854386D01*
X136987529Y-88937648D01*
X136951791Y-88966978D01*
X136951789Y-88966979D01*
X136795267Y-89050643D01*
X136738653Y-89067816D01*
X136625427Y-89102163D01*
X136559243Y-89108681D01*
X136493060Y-89115200D01*
X136404540Y-89115200D01*
X136338357Y-89108681D01*
X136272173Y-89102163D01*
X136158947Y-89067816D01*
X136102333Y-89050643D01*
X135945811Y-88966979D01*
X135945809Y-88966978D01*
X135910071Y-88937648D01*
X135808614Y-88854386D01*
X135725352Y-88752929D01*
X135696022Y-88717191D01*
X135686452Y-88699287D01*
X135612357Y-88560667D01*
X135595184Y-88504053D01*
X135560837Y-88390827D01*
X135543441Y-88214200D01*
X135560837Y-88037573D01*
X135612357Y-87867734D01*
X135612357Y-87867733D01*
X135696021Y-87711211D01*
X135696022Y-87711209D01*
X135725352Y-87675471D01*
X135808614Y-87574014D01*
X135910071Y-87490752D01*
X135945809Y-87461422D01*
X135963713Y-87451852D01*
X136102333Y-87377757D01*
X136158947Y-87360584D01*
X136272173Y-87326237D01*
X136338357Y-87319719D01*
X136404540Y-87313200D01*
X136493060Y-87313200D01*
X136559243Y-87319719D01*
X136559243Y-87319719D01*
G37*
G36*
X123000000Y-88248400D02*
X120078000Y-88248400D01*
X120078000Y-87346400D01*
X123000000Y-87346400D01*
X123000000Y-88248400D01*
X123000000Y-88248400D01*
G37*
G36*
X136559243Y-84779719D02*
X136625427Y-84786237D01*
X136738653Y-84820584D01*
X136795267Y-84837757D01*
X136933887Y-84911852D01*
X136951791Y-84921422D01*
X136987529Y-84950752D01*
X137088986Y-85034014D01*
X137172248Y-85135471D01*
X137201578Y-85171209D01*
X137201579Y-85171211D01*
X137285243Y-85327733D01*
X137285243Y-85327734D01*
X137336763Y-85497573D01*
X137354159Y-85674200D01*
X137336763Y-85850827D01*
X137302416Y-85964053D01*
X137285243Y-86020667D01*
X137211148Y-86159287D01*
X137201578Y-86177191D01*
X137172248Y-86212929D01*
X137088986Y-86314386D01*
X136987529Y-86397648D01*
X136951791Y-86426978D01*
X136951789Y-86426979D01*
X136795267Y-86510643D01*
X136738653Y-86527816D01*
X136625427Y-86562163D01*
X136559242Y-86568682D01*
X136493060Y-86575200D01*
X136404540Y-86575200D01*
X136338358Y-86568682D01*
X136272173Y-86562163D01*
X136158947Y-86527816D01*
X136102333Y-86510643D01*
X135945811Y-86426979D01*
X135945809Y-86426978D01*
X135910071Y-86397648D01*
X135808614Y-86314386D01*
X135725352Y-86212929D01*
X135696022Y-86177191D01*
X135686452Y-86159287D01*
X135612357Y-86020667D01*
X135595184Y-85964053D01*
X135560837Y-85850827D01*
X135543441Y-85674200D01*
X135560837Y-85497573D01*
X135612357Y-85327734D01*
X135612357Y-85327733D01*
X135696021Y-85171211D01*
X135696022Y-85171209D01*
X135725352Y-85135471D01*
X135808614Y-85034014D01*
X135910071Y-84950752D01*
X135945809Y-84921422D01*
X135963713Y-84911852D01*
X136102333Y-84837757D01*
X136158947Y-84820584D01*
X136272173Y-84786237D01*
X136338357Y-84779719D01*
X136404540Y-84773200D01*
X136493060Y-84773200D01*
X136559243Y-84779719D01*
X136559243Y-84779719D01*
G37*
G36*
X123000000Y-85748400D02*
X120078000Y-85748400D01*
X120078000Y-84846400D01*
X123000000Y-84846400D01*
X123000000Y-85748400D01*
X123000000Y-85748400D01*
G37*
G36*
X136559242Y-82239718D02*
X136625427Y-82246237D01*
X136738653Y-82280584D01*
X136795267Y-82297757D01*
X136933887Y-82371852D01*
X136951791Y-82381422D01*
X136987529Y-82410752D01*
X137088986Y-82494014D01*
X137172248Y-82595471D01*
X137201578Y-82631209D01*
X137201579Y-82631211D01*
X137285243Y-82787733D01*
X137285243Y-82787734D01*
X137336763Y-82957573D01*
X137354159Y-83134200D01*
X137336763Y-83310827D01*
X137302416Y-83424053D01*
X137285243Y-83480667D01*
X137211148Y-83619287D01*
X137201578Y-83637191D01*
X137172248Y-83672929D01*
X137088986Y-83774386D01*
X136987529Y-83857648D01*
X136951791Y-83886978D01*
X136951789Y-83886979D01*
X136795267Y-83970643D01*
X136738653Y-83987816D01*
X136625427Y-84022163D01*
X136559243Y-84028681D01*
X136493060Y-84035200D01*
X136404540Y-84035200D01*
X136338357Y-84028681D01*
X136272173Y-84022163D01*
X136158947Y-83987816D01*
X136102333Y-83970643D01*
X135945811Y-83886979D01*
X135945809Y-83886978D01*
X135910071Y-83857648D01*
X135808614Y-83774386D01*
X135725352Y-83672929D01*
X135696022Y-83637191D01*
X135686452Y-83619287D01*
X135612357Y-83480667D01*
X135595184Y-83424053D01*
X135560837Y-83310827D01*
X135543441Y-83134200D01*
X135560837Y-82957573D01*
X135612357Y-82787734D01*
X135612357Y-82787733D01*
X135696021Y-82631211D01*
X135696022Y-82631209D01*
X135725352Y-82595471D01*
X135808614Y-82494014D01*
X135910071Y-82410752D01*
X135945809Y-82381422D01*
X135963713Y-82371852D01*
X136102333Y-82297757D01*
X136158947Y-82280584D01*
X136272173Y-82246237D01*
X136338358Y-82239718D01*
X136404540Y-82233200D01*
X136493060Y-82233200D01*
X136559242Y-82239718D01*
X136559242Y-82239718D01*
G37*
G36*
X123000000Y-83748400D02*
X120078000Y-83748400D01*
X120078000Y-82846400D01*
X123000000Y-82846400D01*
X123000000Y-83748400D01*
X123000000Y-83748400D01*
G37*
G36*
X137349800Y-81495200D02*
X135547800Y-81495200D01*
X135547800Y-79693200D01*
X137349800Y-79693200D01*
X137349800Y-81495200D01*
X137349800Y-81495200D01*
G37*
G36*
X123000000Y-81248400D02*
X120078000Y-81248400D01*
X120078000Y-80346400D01*
X123000000Y-80346400D01*
X123000000Y-81248400D01*
X123000000Y-81248400D01*
G37*
G36*
X118317871Y-76115808D02*
X118622883Y-76242148D01*
X118895538Y-76424330D01*
X118897390Y-76425568D01*
X119130832Y-76659010D01*
X119130834Y-76659013D01*
X119314252Y-76933517D01*
X119440592Y-77238529D01*
X119505000Y-77562328D01*
X119505000Y-77892472D01*
X119440592Y-78216271D01*
X119314252Y-78521283D01*
X119132070Y-78793938D01*
X119130832Y-78795790D01*
X118897390Y-79029232D01*
X118897387Y-79029234D01*
X118622883Y-79212652D01*
X118317871Y-79338992D01*
X117994072Y-79403400D01*
X117663928Y-79403400D01*
X117340129Y-79338992D01*
X117035117Y-79212652D01*
X116760613Y-79029234D01*
X116760610Y-79029232D01*
X116527168Y-78795790D01*
X116525930Y-78793938D01*
X116343748Y-78521283D01*
X116217408Y-78216271D01*
X116153000Y-77892472D01*
X116153000Y-77562328D01*
X116217408Y-77238529D01*
X116343748Y-76933517D01*
X116527166Y-76659013D01*
X116527168Y-76659010D01*
X116760610Y-76425568D01*
X116762462Y-76424330D01*
X117035117Y-76242148D01*
X117340129Y-76115808D01*
X117663928Y-76051400D01*
X117994072Y-76051400D01*
X118317871Y-76115808D01*
X118317871Y-76115808D01*
G37*
M02*
