G04 #@! TF.GenerationSoftware,KiCad,Pcbnew,5.0.2-bee76a0~70~ubuntu18.04.1*
G04 #@! TF.CreationDate,2019-01-01T14:42:11-08:00*
G04 #@! TF.ProjectId,Outlet_Relay_V1,4f75746c-6574-45f5-9265-6c61795f5631,rev?*
G04 #@! TF.SameCoordinates,Original*
G04 #@! TF.FileFunction,Soldermask,Bot*
G04 #@! TF.FilePolarity,Negative*
%FSLAX46Y46*%
G04 Gerber Fmt 4.6, Leading zero omitted, Abs format (unit mm)*
G04 Created by KiCad (PCBNEW 5.0.2-bee76a0~70~ubuntu18.04.1) date Tue 01 Jan 2019 02:42:11 PM PST*
%MOMM*%
%LPD*%
G01*
G04 APERTURE LIST*
%ADD10C,0.100000*%
G04 APERTURE END LIST*
D10*
G36*
X143695760Y-92311166D02*
X143795516Y-92352486D01*
X143843353Y-92372301D01*
X143974413Y-92459873D01*
X143976185Y-92461057D01*
X144089143Y-92574015D01*
X144177900Y-92706849D01*
X144239034Y-92854440D01*
X144270200Y-93011122D01*
X144270200Y-93170878D01*
X144239034Y-93327560D01*
X144177900Y-93475151D01*
X144089143Y-93607985D01*
X143976185Y-93720943D01*
X143976182Y-93720945D01*
X143843353Y-93809699D01*
X143843352Y-93809700D01*
X143843351Y-93809700D01*
X143695760Y-93870834D01*
X143539078Y-93902000D01*
X143379322Y-93902000D01*
X143222640Y-93870834D01*
X143075049Y-93809700D01*
X143075048Y-93809700D01*
X143075047Y-93809699D01*
X142942218Y-93720945D01*
X142942215Y-93720943D01*
X142829257Y-93607985D01*
X142740500Y-93475151D01*
X142679366Y-93327560D01*
X142648200Y-93170878D01*
X142648200Y-93011122D01*
X142679366Y-92854440D01*
X142740500Y-92706849D01*
X142829257Y-92574015D01*
X142942215Y-92461057D01*
X142943987Y-92459873D01*
X143075047Y-92372301D01*
X143122885Y-92352486D01*
X143222640Y-92311166D01*
X143379322Y-92280000D01*
X143539078Y-92280000D01*
X143695760Y-92311166D01*
X143695760Y-92311166D01*
G37*
G36*
X158891465Y-91445389D02*
X159082734Y-91524615D01*
X159254876Y-91639637D01*
X159401263Y-91786024D01*
X159516285Y-91958166D01*
X159595511Y-92149435D01*
X159635900Y-92352484D01*
X159635900Y-92559516D01*
X159595511Y-92762565D01*
X159516285Y-92953834D01*
X159401263Y-93125976D01*
X159254876Y-93272363D01*
X159082734Y-93387385D01*
X158891465Y-93466611D01*
X158688416Y-93507000D01*
X158481384Y-93507000D01*
X158278335Y-93466611D01*
X158087066Y-93387385D01*
X157914924Y-93272363D01*
X157768537Y-93125976D01*
X157653515Y-92953834D01*
X157574289Y-92762565D01*
X157533900Y-92559516D01*
X157533900Y-92352484D01*
X157574289Y-92149435D01*
X157653515Y-91958166D01*
X157768537Y-91786024D01*
X157914924Y-91639637D01*
X158087066Y-91524615D01*
X158278335Y-91445389D01*
X158481384Y-91405000D01*
X158688416Y-91405000D01*
X158891465Y-91445389D01*
X158891465Y-91445389D01*
G37*
G36*
X158891465Y-86365389D02*
X159082734Y-86444615D01*
X159254876Y-86559637D01*
X159401263Y-86706024D01*
X159516285Y-86878166D01*
X159595511Y-87069435D01*
X159635900Y-87272484D01*
X159635900Y-87479516D01*
X159595511Y-87682565D01*
X159516285Y-87873834D01*
X159401263Y-88045976D01*
X159254876Y-88192363D01*
X159082734Y-88307385D01*
X158891465Y-88386611D01*
X158688416Y-88427000D01*
X158481384Y-88427000D01*
X158278335Y-88386611D01*
X158087066Y-88307385D01*
X157914924Y-88192363D01*
X157768537Y-88045976D01*
X157653515Y-87873834D01*
X157574289Y-87682565D01*
X157533900Y-87479516D01*
X157533900Y-87272484D01*
X157574289Y-87069435D01*
X157653515Y-86878166D01*
X157768537Y-86706024D01*
X157914924Y-86559637D01*
X158087066Y-86444615D01*
X158278335Y-86365389D01*
X158481384Y-86325000D01*
X158688416Y-86325000D01*
X158891465Y-86365389D01*
X158891465Y-86365389D01*
G37*
G36*
X125985765Y-84460389D02*
X126177034Y-84539615D01*
X126349176Y-84654637D01*
X126495563Y-84801024D01*
X126610585Y-84973166D01*
X126689811Y-85164435D01*
X126730200Y-85367484D01*
X126730200Y-85574516D01*
X126689811Y-85777565D01*
X126610585Y-85968834D01*
X126495563Y-86140976D01*
X126349176Y-86287363D01*
X126177034Y-86402385D01*
X125985765Y-86481611D01*
X125782716Y-86522000D01*
X125575684Y-86522000D01*
X125372635Y-86481611D01*
X125181366Y-86402385D01*
X125009224Y-86287363D01*
X124862837Y-86140976D01*
X124747815Y-85968834D01*
X124668589Y-85777565D01*
X124628200Y-85574516D01*
X124628200Y-85367484D01*
X124668589Y-85164435D01*
X124747815Y-84973166D01*
X124862837Y-84801024D01*
X125009224Y-84654637D01*
X125181366Y-84539615D01*
X125372635Y-84460389D01*
X125575684Y-84420000D01*
X125782716Y-84420000D01*
X125985765Y-84460389D01*
X125985765Y-84460389D01*
G37*
G36*
X133605765Y-84460389D02*
X133797034Y-84539615D01*
X133969176Y-84654637D01*
X134115563Y-84801024D01*
X134230585Y-84973166D01*
X134309811Y-85164435D01*
X134350200Y-85367484D01*
X134350200Y-85574516D01*
X134309811Y-85777565D01*
X134230585Y-85968834D01*
X134115563Y-86140976D01*
X133969176Y-86287363D01*
X133797034Y-86402385D01*
X133605765Y-86481611D01*
X133402716Y-86522000D01*
X133195684Y-86522000D01*
X132992635Y-86481611D01*
X132801366Y-86402385D01*
X132629224Y-86287363D01*
X132482837Y-86140976D01*
X132367815Y-85968834D01*
X132288589Y-85777565D01*
X132248200Y-85574516D01*
X132248200Y-85367484D01*
X132288589Y-85164435D01*
X132367815Y-84973166D01*
X132482837Y-84801024D01*
X132629224Y-84654637D01*
X132801366Y-84539615D01*
X132992635Y-84460389D01*
X133195684Y-84420000D01*
X133402716Y-84420000D01*
X133605765Y-84460389D01*
X133605765Y-84460389D01*
G37*
G36*
X144270200Y-86282000D02*
X142648200Y-86282000D01*
X142648200Y-84660000D01*
X144270200Y-84660000D01*
X144270200Y-86282000D01*
X144270200Y-86282000D01*
G37*
G36*
X158891465Y-81285389D02*
X159082734Y-81364615D01*
X159254876Y-81479637D01*
X159401263Y-81626024D01*
X159516285Y-81798166D01*
X159595511Y-81989435D01*
X159635900Y-82192484D01*
X159635900Y-82399516D01*
X159595511Y-82602565D01*
X159516285Y-82793834D01*
X159401263Y-82965976D01*
X159254876Y-83112363D01*
X159082734Y-83227385D01*
X158891465Y-83306611D01*
X158688416Y-83347000D01*
X158481384Y-83347000D01*
X158278335Y-83306611D01*
X158087066Y-83227385D01*
X157914924Y-83112363D01*
X157768537Y-82965976D01*
X157653515Y-82793834D01*
X157574289Y-82602565D01*
X157533900Y-82399516D01*
X157533900Y-82192484D01*
X157574289Y-81989435D01*
X157653515Y-81798166D01*
X157768537Y-81626024D01*
X157914924Y-81479637D01*
X158087066Y-81364615D01*
X158278335Y-81285389D01*
X158481384Y-81245000D01*
X158688416Y-81245000D01*
X158891465Y-81285389D01*
X158891465Y-81285389D01*
G37*
G36*
X147780734Y-77023632D02*
X147990202Y-77110396D01*
X148178723Y-77236362D01*
X148339038Y-77396677D01*
X148465004Y-77585198D01*
X148551768Y-77794666D01*
X148596000Y-78017035D01*
X148596000Y-78243765D01*
X148551768Y-78466134D01*
X148465004Y-78675602D01*
X148339038Y-78864123D01*
X148178723Y-79024438D01*
X147990202Y-79150404D01*
X147780734Y-79237168D01*
X147558365Y-79281400D01*
X147331635Y-79281400D01*
X147109266Y-79237168D01*
X146899798Y-79150404D01*
X146711277Y-79024438D01*
X146550962Y-78864123D01*
X146424996Y-78675602D01*
X146338232Y-78466134D01*
X146294000Y-78243765D01*
X146294000Y-78017035D01*
X146338232Y-77794666D01*
X146424996Y-77585198D01*
X146550962Y-77396677D01*
X146711277Y-77236362D01*
X146899798Y-77110396D01*
X147109266Y-77023632D01*
X147331635Y-76979400D01*
X147558365Y-76979400D01*
X147780734Y-77023632D01*
X147780734Y-77023632D01*
G37*
G36*
X125940734Y-77023632D02*
X126150202Y-77110396D01*
X126338723Y-77236362D01*
X126499038Y-77396677D01*
X126625004Y-77585198D01*
X126711768Y-77794666D01*
X126756000Y-78017035D01*
X126756000Y-78243765D01*
X126711768Y-78466134D01*
X126625004Y-78675602D01*
X126499038Y-78864123D01*
X126338723Y-79024438D01*
X126150202Y-79150404D01*
X125940734Y-79237168D01*
X125718365Y-79281400D01*
X125491635Y-79281400D01*
X125269266Y-79237168D01*
X125059798Y-79150404D01*
X124871277Y-79024438D01*
X124710962Y-78864123D01*
X124584996Y-78675602D01*
X124498232Y-78466134D01*
X124454000Y-78243765D01*
X124454000Y-78017035D01*
X124498232Y-77794666D01*
X124584996Y-77585198D01*
X124710962Y-77396677D01*
X124871277Y-77236362D01*
X125059798Y-77110396D01*
X125269266Y-77023632D01*
X125491635Y-76979400D01*
X125718365Y-76979400D01*
X125940734Y-77023632D01*
X125940734Y-77023632D01*
G37*
G36*
X138050600Y-69965900D02*
X134948600Y-69965900D01*
X134948600Y-66863900D01*
X138050600Y-66863900D01*
X138050600Y-69965900D01*
X138050600Y-69965900D01*
G37*
G36*
X151423700Y-69965900D02*
X148321700Y-69965900D01*
X148321700Y-66863900D01*
X151423700Y-66863900D01*
X151423700Y-69965900D01*
X151423700Y-69965900D01*
G37*
M02*
