G04 #@! TF.GenerationSoftware,KiCad,Pcbnew,5.0.2-bee76a0~70~ubuntu18.04.1*
G04 #@! TF.CreationDate,2019-01-01T14:42:11-08:00*
G04 #@! TF.ProjectId,Outlet_Relay_V1,4f75746c-6574-45f5-9265-6c61795f5631,rev?*
G04 #@! TF.SameCoordinates,Original*
G04 #@! TF.FileFunction,Legend,Bot*
G04 #@! TF.FilePolarity,Positive*
%FSLAX46Y46*%
G04 Gerber Fmt 4.6, Leading zero omitted, Abs format (unit mm)*
G04 Created by KiCad (PCBNEW 5.0.2-bee76a0~70~ubuntu18.04.1) date Tue 01 Jan 2019 02:42:11 PM PST*
%MOMM*%
%LPD*%
G01*
G04 APERTURE LIST*
%ADD10C,0.250000*%
G04 APERTURE END LIST*
D10*
X140826780Y-78113190D02*
X140826780Y-77541761D01*
X140826780Y-77827476D02*
X139826780Y-77827476D01*
X139969638Y-77732238D01*
X140064876Y-77637000D01*
X140112495Y-77541761D01*
X139922019Y-78494142D02*
X139874400Y-78541761D01*
X139826780Y-78637000D01*
X139826780Y-78875095D01*
X139874400Y-78970333D01*
X139922019Y-79017952D01*
X140017257Y-79065571D01*
X140112495Y-79065571D01*
X140255352Y-79017952D01*
X140826780Y-78446523D01*
X140826780Y-79065571D01*
X139826780Y-79684619D02*
X139826780Y-79779857D01*
X139874400Y-79875095D01*
X139922019Y-79922714D01*
X140017257Y-79970333D01*
X140207733Y-80017952D01*
X140445828Y-80017952D01*
X140636304Y-79970333D01*
X140731542Y-79922714D01*
X140779161Y-79875095D01*
X140826780Y-79779857D01*
X140826780Y-79684619D01*
X140779161Y-79589380D01*
X140731542Y-79541761D01*
X140636304Y-79494142D01*
X140445828Y-79446523D01*
X140207733Y-79446523D01*
X140017257Y-79494142D01*
X139922019Y-79541761D01*
X139874400Y-79589380D01*
X139826780Y-79684619D01*
X139826780Y-80303666D02*
X140826780Y-80637000D01*
X139826780Y-80970333D01*
X140541066Y-81256047D02*
X140541066Y-81732238D01*
X140826780Y-81160809D02*
X139826780Y-81494142D01*
X140826780Y-81827476D01*
X140731542Y-82732238D02*
X140779161Y-82684619D01*
X140826780Y-82541761D01*
X140826780Y-82446523D01*
X140779161Y-82303666D01*
X140683923Y-82208428D01*
X140588685Y-82160809D01*
X140398209Y-82113190D01*
X140255352Y-82113190D01*
X140064876Y-82160809D01*
X139969638Y-82208428D01*
X139874400Y-82303666D01*
X139826780Y-82446523D01*
X139826780Y-82541761D01*
X139874400Y-82684619D01*
X139922019Y-82732238D01*
X141576780Y-78137000D02*
X141576780Y-77660809D01*
X142052971Y-77613190D01*
X142005352Y-77660809D01*
X141957733Y-77756047D01*
X141957733Y-77994142D01*
X142005352Y-78089380D01*
X142052971Y-78137000D01*
X142148209Y-78184619D01*
X142386304Y-78184619D01*
X142481542Y-78137000D01*
X142529161Y-78089380D01*
X142576780Y-77994142D01*
X142576780Y-77756047D01*
X142529161Y-77660809D01*
X142481542Y-77613190D01*
X142291066Y-78565571D02*
X142291066Y-79041761D01*
X142576780Y-78470333D02*
X141576780Y-78803666D01*
X142576780Y-79137000D01*
X142576780Y-80232238D02*
X141576780Y-80232238D01*
X142291066Y-80565571D01*
X141576780Y-80898904D01*
X142576780Y-80898904D01*
X142576780Y-81803666D02*
X142052971Y-81803666D01*
X141957733Y-81756047D01*
X141910114Y-81660809D01*
X141910114Y-81470333D01*
X141957733Y-81375095D01*
X142529161Y-81803666D02*
X142576780Y-81708428D01*
X142576780Y-81470333D01*
X142529161Y-81375095D01*
X142433923Y-81327476D01*
X142338685Y-81327476D01*
X142243447Y-81375095D01*
X142195828Y-81470333D01*
X142195828Y-81708428D01*
X142148209Y-81803666D01*
X142576780Y-82184619D02*
X141910114Y-82708428D01*
X141910114Y-82184619D02*
X142576780Y-82708428D01*
X161834580Y-75538700D02*
X161834580Y-75729176D01*
X161882200Y-75824414D01*
X161977438Y-75919652D01*
X162167914Y-75967271D01*
X162501247Y-75967271D01*
X162691723Y-75919652D01*
X162786961Y-75824414D01*
X162834580Y-75729176D01*
X162834580Y-75538700D01*
X162786961Y-75443461D01*
X162691723Y-75348223D01*
X162501247Y-75300604D01*
X162167914Y-75300604D01*
X161977438Y-75348223D01*
X161882200Y-75443461D01*
X161834580Y-75538700D01*
X162167914Y-76824414D02*
X162834580Y-76824414D01*
X162167914Y-76395842D02*
X162691723Y-76395842D01*
X162786961Y-76443461D01*
X162834580Y-76538700D01*
X162834580Y-76681557D01*
X162786961Y-76776795D01*
X162739342Y-76824414D01*
X162167914Y-77157747D02*
X162167914Y-77538700D01*
X161834580Y-77300604D02*
X162691723Y-77300604D01*
X162786961Y-77348223D01*
X162834580Y-77443461D01*
X162834580Y-77538700D01*
X162834580Y-78014890D02*
X162786961Y-77919652D01*
X162691723Y-77872033D01*
X161834580Y-77872033D01*
X162786961Y-78776795D02*
X162834580Y-78681557D01*
X162834580Y-78491080D01*
X162786961Y-78395842D01*
X162691723Y-78348223D01*
X162310771Y-78348223D01*
X162215533Y-78395842D01*
X162167914Y-78491080D01*
X162167914Y-78681557D01*
X162215533Y-78776795D01*
X162310771Y-78824414D01*
X162406009Y-78824414D01*
X162501247Y-78348223D01*
X162167914Y-79110128D02*
X162167914Y-79491080D01*
X161834580Y-79252985D02*
X162691723Y-79252985D01*
X162786961Y-79300604D01*
X162834580Y-79395842D01*
X162834580Y-79491080D01*
X162929819Y-79586319D02*
X162929819Y-80348223D01*
X162834580Y-81157747D02*
X162358390Y-80824414D01*
X162834580Y-80586319D02*
X161834580Y-80586319D01*
X161834580Y-80967271D01*
X161882200Y-81062509D01*
X161929819Y-81110128D01*
X162025057Y-81157747D01*
X162167914Y-81157747D01*
X162263152Y-81110128D01*
X162310771Y-81062509D01*
X162358390Y-80967271D01*
X162358390Y-80586319D01*
X162786961Y-81967271D02*
X162834580Y-81872033D01*
X162834580Y-81681557D01*
X162786961Y-81586319D01*
X162691723Y-81538700D01*
X162310771Y-81538700D01*
X162215533Y-81586319D01*
X162167914Y-81681557D01*
X162167914Y-81872033D01*
X162215533Y-81967271D01*
X162310771Y-82014890D01*
X162406009Y-82014890D01*
X162501247Y-81538700D01*
X162834580Y-82586319D02*
X162786961Y-82491080D01*
X162691723Y-82443461D01*
X161834580Y-82443461D01*
X162834580Y-83395842D02*
X162310771Y-83395842D01*
X162215533Y-83348223D01*
X162167914Y-83252985D01*
X162167914Y-83062509D01*
X162215533Y-82967271D01*
X162786961Y-83395842D02*
X162834580Y-83300604D01*
X162834580Y-83062509D01*
X162786961Y-82967271D01*
X162691723Y-82919652D01*
X162596485Y-82919652D01*
X162501247Y-82967271D01*
X162453628Y-83062509D01*
X162453628Y-83300604D01*
X162406009Y-83395842D01*
X162167914Y-83776795D02*
X162834580Y-84014890D01*
X162167914Y-84252985D02*
X162834580Y-84014890D01*
X163072676Y-83919652D01*
X163120295Y-83872033D01*
X163167914Y-83776795D01*
X162929819Y-84395842D02*
X162929819Y-85157747D01*
X161834580Y-85252985D02*
X162834580Y-85586319D01*
X161834580Y-85919652D01*
X162834580Y-86776795D02*
X162834580Y-86205366D01*
X162834580Y-86491080D02*
X161834580Y-86491080D01*
X161977438Y-86395842D01*
X162072676Y-86300604D01*
X162120295Y-86205366D01*
M02*
