G04 #@! TF.GenerationSoftware,KiCad,Pcbnew,5.0.2-bee76a0~70~ubuntu18.04.1*
G04 #@! TF.CreationDate,2019-01-01T14:35:21-08:00*
G04 #@! TF.ProjectId,Buck_Converter_V1,4275636b-5f43-46f6-9e76-65727465725f,rev?*
G04 #@! TF.SameCoordinates,Original*
G04 #@! TF.FileFunction,Copper,L2,Bot*
G04 #@! TF.FilePolarity,Positive*
%FSLAX46Y46*%
G04 Gerber Fmt 4.6, Leading zero omitted, Abs format (unit mm)*
G04 Created by KiCad (PCBNEW 5.0.2-bee76a0~70~ubuntu18.04.1) date Tue 01 Jan 2019 02:35:21 PM PST*
%MOMM*%
%LPD*%
G01*
G04 APERTURE LIST*
G04 #@! TA.AperFunction,ComponentPad*
%ADD10R,1.700000X1.700000*%
G04 #@! TD*
G04 #@! TA.AperFunction,ComponentPad*
%ADD11C,1.440000*%
G04 #@! TD*
G04 #@! TA.AperFunction,ViaPad*
%ADD12C,0.800000*%
G04 #@! TD*
G04 #@! TA.AperFunction,Conductor*
%ADD13C,0.250000*%
G04 #@! TD*
G04 #@! TA.AperFunction,Conductor*
%ADD14C,0.254000*%
G04 #@! TD*
G04 APERTURE END LIST*
D10*
G04 #@! TO.P,OUT+,1*
G04 #@! TO.N,Vout*
X178800000Y-85380000D03*
G04 #@! TD*
G04 #@! TO.P,OUT-,1*
G04 #@! TO.N,GND*
X178800000Y-104000000D03*
G04 #@! TD*
G04 #@! TO.P,IN-,1*
G04 #@! TO.N,GND*
X113800000Y-104000000D03*
G04 #@! TD*
G04 #@! TO.P,J1,1*
G04 #@! TO.N,Net-(F1-Pad2)*
X113800000Y-85800000D03*
G04 #@! TD*
G04 #@! TO.P,J2,1*
G04 #@! TO.N,GND*
X113800000Y-98500000D03*
G04 #@! TD*
G04 #@! TO.P,J3,1*
G04 #@! TO.N,Vout*
X178800000Y-90880000D03*
G04 #@! TD*
G04 #@! TO.P,J4,1*
G04 #@! TO.N,GND*
X178800000Y-98500000D03*
G04 #@! TD*
D11*
G04 #@! TO.P,RV1,1*
G04 #@! TO.N,GND*
X148958300Y-74015600D03*
G04 #@! TO.P,RV1,2*
G04 #@! TO.N,Net-(RV1-Pad2)*
X151498300Y-74015600D03*
G04 #@! TO.P,RV1,3*
G04 #@! TO.N,Net-(RV1-Pad3)*
X154038300Y-74015600D03*
G04 #@! TD*
G04 #@! TO.P,RV2,3*
G04 #@! TO.N,Net-(RV2-Pad3)*
X143103600Y-74028300D03*
G04 #@! TO.P,RV2,2*
G04 #@! TO.N,GND*
X140563600Y-74028300D03*
G04 #@! TO.P,RV2,1*
G04 #@! TO.N,Net-(C7-Pad1)*
X138023600Y-74028300D03*
G04 #@! TD*
D10*
G04 #@! TO.P,IN+,1*
G04 #@! TO.N,Net-(F1-Pad2)*
X113800000Y-80300000D03*
G04 #@! TD*
D12*
G04 #@! TO.N,GND*
X152323800Y-80073500D03*
X152285700Y-81953100D03*
X152361900Y-83934300D03*
X136448800Y-77419200D03*
X127241300Y-102552500D03*
X142824200Y-102298500D03*
X167957500Y-103657400D03*
X175323500Y-104368600D03*
X116840000Y-104165400D03*
X116522500Y-100482400D03*
X175577500Y-100609400D03*
X136169400Y-97574100D03*
X124206000Y-84201000D03*
X130479800Y-86144100D03*
X140436600Y-86664800D03*
X144043400Y-85166200D03*
X129959100Y-74066400D03*
X145275300Y-77749400D03*
X157556200Y-101396800D03*
X149669500Y-101333300D03*
X156387800Y-84658200D03*
G04 #@! TO.N,Vin*
X132994400Y-80276700D03*
X120942100Y-92240100D03*
G04 #@! TO.N,Vout*
X163080700Y-88468200D03*
X127139700Y-75857100D03*
G04 #@! TD*
D13*
G04 #@! TO.N,Vin*
X132905500Y-80276700D02*
X132994400Y-80276700D01*
X120942100Y-92240100D02*
X132905500Y-80276700D01*
G04 #@! TO.N,Vout*
X127152400Y-75844400D02*
X127139700Y-75857100D01*
X132054600Y-75844400D02*
X127152400Y-75844400D01*
X163080700Y-88468200D02*
X144678400Y-88468200D01*
X144678400Y-88468200D02*
X132054600Y-75844400D01*
G04 #@! TD*
D14*
G04 #@! TO.N,GND*
G36*
X183078201Y-107514400D02*
X109498200Y-107514400D01*
X109498200Y-92034226D01*
X119907100Y-92034226D01*
X119907100Y-92445974D01*
X120064669Y-92826380D01*
X120355820Y-93117531D01*
X120736226Y-93275100D01*
X121147974Y-93275100D01*
X121528380Y-93117531D01*
X121819531Y-92826380D01*
X121977100Y-92445974D01*
X121977100Y-92279901D01*
X132945302Y-81311700D01*
X133200274Y-81311700D01*
X133580680Y-81154131D01*
X133871831Y-80862980D01*
X134029400Y-80482574D01*
X134029400Y-80070826D01*
X133871831Y-79690420D01*
X133580680Y-79399269D01*
X133200274Y-79241700D01*
X132788526Y-79241700D01*
X132408120Y-79399269D01*
X132116969Y-79690420D01*
X131959400Y-80070826D01*
X131959400Y-80147998D01*
X120902299Y-91205100D01*
X120736226Y-91205100D01*
X120355820Y-91362669D01*
X120064669Y-91653820D01*
X119907100Y-92034226D01*
X109498200Y-92034226D01*
X109498200Y-78321432D01*
X111099600Y-78321432D01*
X111125000Y-87744832D01*
X111134667Y-87793091D01*
X111162197Y-87834293D01*
X111203399Y-87861823D01*
X111252000Y-87871490D01*
X116293900Y-87871490D01*
X116342501Y-87861823D01*
X116383703Y-87834293D01*
X116411233Y-87793091D01*
X116420900Y-87744490D01*
X116420900Y-78333790D01*
X116411359Y-78285496D01*
X116383937Y-78244222D01*
X116342807Y-78216585D01*
X116294232Y-78206790D01*
X111430132Y-78194090D01*
X111226600Y-78194090D01*
X111177683Y-78203889D01*
X111136556Y-78231530D01*
X111109137Y-78272806D01*
X111099600Y-78321432D01*
X109498200Y-78321432D01*
X109498200Y-75651226D01*
X126104700Y-75651226D01*
X126104700Y-76062974D01*
X126262269Y-76443380D01*
X126553420Y-76734531D01*
X126933826Y-76892100D01*
X127345574Y-76892100D01*
X127725980Y-76734531D01*
X127856111Y-76604400D01*
X131739799Y-76604400D01*
X144088071Y-88952673D01*
X144130471Y-89016129D01*
X144381863Y-89184104D01*
X144603548Y-89228200D01*
X144603552Y-89228200D01*
X144678399Y-89243088D01*
X144753246Y-89228200D01*
X162376989Y-89228200D01*
X162494420Y-89345631D01*
X162874826Y-89503200D01*
X163286574Y-89503200D01*
X163666980Y-89345631D01*
X163958131Y-89054480D01*
X164115700Y-88674074D01*
X164115700Y-88262326D01*
X163958131Y-87881920D01*
X163666980Y-87590769D01*
X163286574Y-87433200D01*
X162874826Y-87433200D01*
X162494420Y-87590769D01*
X162376989Y-87708200D01*
X144993202Y-87708200D01*
X140682656Y-83397654D01*
X176136300Y-83397654D01*
X176161700Y-92821054D01*
X176171367Y-92869313D01*
X176198897Y-92910515D01*
X176240099Y-92938045D01*
X176288700Y-92947712D01*
X181330600Y-92947712D01*
X181379201Y-92938045D01*
X181420403Y-92910515D01*
X181447933Y-92869313D01*
X181457600Y-92820712D01*
X181457600Y-83410012D01*
X181448059Y-83361718D01*
X181420637Y-83320444D01*
X181379507Y-83292807D01*
X181330932Y-83283012D01*
X176466832Y-83270312D01*
X176263300Y-83270312D01*
X176214383Y-83280111D01*
X176173256Y-83307752D01*
X176145837Y-83349028D01*
X176136300Y-83397654D01*
X140682656Y-83397654D01*
X132644931Y-75359930D01*
X132602529Y-75296471D01*
X132351137Y-75128496D01*
X132129452Y-75084400D01*
X132129447Y-75084400D01*
X132054600Y-75069512D01*
X131979753Y-75084400D01*
X127830711Y-75084400D01*
X127725980Y-74979669D01*
X127345574Y-74822100D01*
X126933826Y-74822100D01*
X126553420Y-74979669D01*
X126262269Y-75270820D01*
X126104700Y-75651226D01*
X109498200Y-75651226D01*
X109498200Y-73758774D01*
X136668600Y-73758774D01*
X136668600Y-74297826D01*
X136874886Y-74795846D01*
X137256054Y-75177014D01*
X137754074Y-75383300D01*
X138293126Y-75383300D01*
X138791146Y-75177014D01*
X139172314Y-74795846D01*
X139378600Y-74297826D01*
X139378600Y-73758774D01*
X141748600Y-73758774D01*
X141748600Y-74297826D01*
X141954886Y-74795846D01*
X142336054Y-75177014D01*
X142834074Y-75383300D01*
X143373126Y-75383300D01*
X143871146Y-75177014D01*
X144252314Y-74795846D01*
X144458600Y-74297826D01*
X144458600Y-73758774D01*
X144453340Y-73746074D01*
X150143300Y-73746074D01*
X150143300Y-74285126D01*
X150349586Y-74783146D01*
X150730754Y-75164314D01*
X151228774Y-75370600D01*
X151767826Y-75370600D01*
X152265846Y-75164314D01*
X152647014Y-74783146D01*
X152768300Y-74490335D01*
X152889586Y-74783146D01*
X153270754Y-75164314D01*
X153768774Y-75370600D01*
X154307826Y-75370600D01*
X154805846Y-75164314D01*
X155187014Y-74783146D01*
X155393300Y-74285126D01*
X155393300Y-73746074D01*
X155187014Y-73248054D01*
X154805846Y-72866886D01*
X154307826Y-72660600D01*
X153768774Y-72660600D01*
X153270754Y-72866886D01*
X152889586Y-73248054D01*
X152768300Y-73540865D01*
X152647014Y-73248054D01*
X152265846Y-72866886D01*
X151767826Y-72660600D01*
X151228774Y-72660600D01*
X150730754Y-72866886D01*
X150349586Y-73248054D01*
X150143300Y-73746074D01*
X144453340Y-73746074D01*
X144252314Y-73260754D01*
X143871146Y-72879586D01*
X143373126Y-72673300D01*
X142834074Y-72673300D01*
X142336054Y-72879586D01*
X141954886Y-73260754D01*
X141748600Y-73758774D01*
X139378600Y-73758774D01*
X139172314Y-73260754D01*
X138791146Y-72879586D01*
X138293126Y-72673300D01*
X137754074Y-72673300D01*
X137256054Y-72879586D01*
X136874886Y-73260754D01*
X136668600Y-73758774D01*
X109498200Y-73758774D01*
X109498200Y-68934400D01*
X183078200Y-68934400D01*
X183078201Y-107514400D01*
X183078201Y-107514400D01*
G37*
X183078201Y-107514400D02*
X109498200Y-107514400D01*
X109498200Y-92034226D01*
X119907100Y-92034226D01*
X119907100Y-92445974D01*
X120064669Y-92826380D01*
X120355820Y-93117531D01*
X120736226Y-93275100D01*
X121147974Y-93275100D01*
X121528380Y-93117531D01*
X121819531Y-92826380D01*
X121977100Y-92445974D01*
X121977100Y-92279901D01*
X132945302Y-81311700D01*
X133200274Y-81311700D01*
X133580680Y-81154131D01*
X133871831Y-80862980D01*
X134029400Y-80482574D01*
X134029400Y-80070826D01*
X133871831Y-79690420D01*
X133580680Y-79399269D01*
X133200274Y-79241700D01*
X132788526Y-79241700D01*
X132408120Y-79399269D01*
X132116969Y-79690420D01*
X131959400Y-80070826D01*
X131959400Y-80147998D01*
X120902299Y-91205100D01*
X120736226Y-91205100D01*
X120355820Y-91362669D01*
X120064669Y-91653820D01*
X119907100Y-92034226D01*
X109498200Y-92034226D01*
X109498200Y-78321432D01*
X111099600Y-78321432D01*
X111125000Y-87744832D01*
X111134667Y-87793091D01*
X111162197Y-87834293D01*
X111203399Y-87861823D01*
X111252000Y-87871490D01*
X116293900Y-87871490D01*
X116342501Y-87861823D01*
X116383703Y-87834293D01*
X116411233Y-87793091D01*
X116420900Y-87744490D01*
X116420900Y-78333790D01*
X116411359Y-78285496D01*
X116383937Y-78244222D01*
X116342807Y-78216585D01*
X116294232Y-78206790D01*
X111430132Y-78194090D01*
X111226600Y-78194090D01*
X111177683Y-78203889D01*
X111136556Y-78231530D01*
X111109137Y-78272806D01*
X111099600Y-78321432D01*
X109498200Y-78321432D01*
X109498200Y-75651226D01*
X126104700Y-75651226D01*
X126104700Y-76062974D01*
X126262269Y-76443380D01*
X126553420Y-76734531D01*
X126933826Y-76892100D01*
X127345574Y-76892100D01*
X127725980Y-76734531D01*
X127856111Y-76604400D01*
X131739799Y-76604400D01*
X144088071Y-88952673D01*
X144130471Y-89016129D01*
X144381863Y-89184104D01*
X144603548Y-89228200D01*
X144603552Y-89228200D01*
X144678399Y-89243088D01*
X144753246Y-89228200D01*
X162376989Y-89228200D01*
X162494420Y-89345631D01*
X162874826Y-89503200D01*
X163286574Y-89503200D01*
X163666980Y-89345631D01*
X163958131Y-89054480D01*
X164115700Y-88674074D01*
X164115700Y-88262326D01*
X163958131Y-87881920D01*
X163666980Y-87590769D01*
X163286574Y-87433200D01*
X162874826Y-87433200D01*
X162494420Y-87590769D01*
X162376989Y-87708200D01*
X144993202Y-87708200D01*
X140682656Y-83397654D01*
X176136300Y-83397654D01*
X176161700Y-92821054D01*
X176171367Y-92869313D01*
X176198897Y-92910515D01*
X176240099Y-92938045D01*
X176288700Y-92947712D01*
X181330600Y-92947712D01*
X181379201Y-92938045D01*
X181420403Y-92910515D01*
X181447933Y-92869313D01*
X181457600Y-92820712D01*
X181457600Y-83410012D01*
X181448059Y-83361718D01*
X181420637Y-83320444D01*
X181379507Y-83292807D01*
X181330932Y-83283012D01*
X176466832Y-83270312D01*
X176263300Y-83270312D01*
X176214383Y-83280111D01*
X176173256Y-83307752D01*
X176145837Y-83349028D01*
X176136300Y-83397654D01*
X140682656Y-83397654D01*
X132644931Y-75359930D01*
X132602529Y-75296471D01*
X132351137Y-75128496D01*
X132129452Y-75084400D01*
X132129447Y-75084400D01*
X132054600Y-75069512D01*
X131979753Y-75084400D01*
X127830711Y-75084400D01*
X127725980Y-74979669D01*
X127345574Y-74822100D01*
X126933826Y-74822100D01*
X126553420Y-74979669D01*
X126262269Y-75270820D01*
X126104700Y-75651226D01*
X109498200Y-75651226D01*
X109498200Y-73758774D01*
X136668600Y-73758774D01*
X136668600Y-74297826D01*
X136874886Y-74795846D01*
X137256054Y-75177014D01*
X137754074Y-75383300D01*
X138293126Y-75383300D01*
X138791146Y-75177014D01*
X139172314Y-74795846D01*
X139378600Y-74297826D01*
X139378600Y-73758774D01*
X141748600Y-73758774D01*
X141748600Y-74297826D01*
X141954886Y-74795846D01*
X142336054Y-75177014D01*
X142834074Y-75383300D01*
X143373126Y-75383300D01*
X143871146Y-75177014D01*
X144252314Y-74795846D01*
X144458600Y-74297826D01*
X144458600Y-73758774D01*
X144453340Y-73746074D01*
X150143300Y-73746074D01*
X150143300Y-74285126D01*
X150349586Y-74783146D01*
X150730754Y-75164314D01*
X151228774Y-75370600D01*
X151767826Y-75370600D01*
X152265846Y-75164314D01*
X152647014Y-74783146D01*
X152768300Y-74490335D01*
X152889586Y-74783146D01*
X153270754Y-75164314D01*
X153768774Y-75370600D01*
X154307826Y-75370600D01*
X154805846Y-75164314D01*
X155187014Y-74783146D01*
X155393300Y-74285126D01*
X155393300Y-73746074D01*
X155187014Y-73248054D01*
X154805846Y-72866886D01*
X154307826Y-72660600D01*
X153768774Y-72660600D01*
X153270754Y-72866886D01*
X152889586Y-73248054D01*
X152768300Y-73540865D01*
X152647014Y-73248054D01*
X152265846Y-72866886D01*
X151767826Y-72660600D01*
X151228774Y-72660600D01*
X150730754Y-72866886D01*
X150349586Y-73248054D01*
X150143300Y-73746074D01*
X144453340Y-73746074D01*
X144252314Y-73260754D01*
X143871146Y-72879586D01*
X143373126Y-72673300D01*
X142834074Y-72673300D01*
X142336054Y-72879586D01*
X141954886Y-73260754D01*
X141748600Y-73758774D01*
X139378600Y-73758774D01*
X139172314Y-73260754D01*
X138791146Y-72879586D01*
X138293126Y-72673300D01*
X137754074Y-72673300D01*
X137256054Y-72879586D01*
X136874886Y-73260754D01*
X136668600Y-73758774D01*
X109498200Y-73758774D01*
X109498200Y-68934400D01*
X183078200Y-68934400D01*
X183078201Y-107514400D01*
G04 #@! TD*
M02*
