G04 #@! TF.GenerationSoftware,KiCad,Pcbnew,5.0.2-bee76a0~70~ubuntu18.04.1*
G04 #@! TF.CreationDate,2019-01-01T14:35:21-08:00*
G04 #@! TF.ProjectId,Buck_Converter_V1,4275636b-5f43-46f6-9e76-65727465725f,rev?*
G04 #@! TF.SameCoordinates,Original*
G04 #@! TF.FileFunction,Legend,Top*
G04 #@! TF.FilePolarity,Positive*
%FSLAX46Y46*%
G04 Gerber Fmt 4.6, Leading zero omitted, Abs format (unit mm)*
G04 Created by KiCad (PCBNEW 5.0.2-bee76a0~70~ubuntu18.04.1) date Tue 01 Jan 2019 02:35:21 PM PST*
%MOMM*%
%LPD*%
G01*
G04 APERTURE LIST*
%ADD10C,0.300000*%
%ADD11C,0.250000*%
%ADD12C,0.120000*%
%ADD13C,0.150000*%
G04 APERTURE END LIST*
D10*
X135302242Y-104375757D02*
X135516528Y-104447185D01*
X135587957Y-104518614D01*
X135659385Y-104661471D01*
X135659385Y-104875757D01*
X135587957Y-105018614D01*
X135516528Y-105090042D01*
X135373671Y-105161471D01*
X134802242Y-105161471D01*
X134802242Y-103661471D01*
X135302242Y-103661471D01*
X135445100Y-103732900D01*
X135516528Y-103804328D01*
X135587957Y-103947185D01*
X135587957Y-104090042D01*
X135516528Y-104232900D01*
X135445100Y-104304328D01*
X135302242Y-104375757D01*
X134802242Y-104375757D01*
X136945100Y-104161471D02*
X136945100Y-105161471D01*
X136302242Y-104161471D02*
X136302242Y-104947185D01*
X136373671Y-105090042D01*
X136516528Y-105161471D01*
X136730814Y-105161471D01*
X136873671Y-105090042D01*
X136945100Y-105018614D01*
X138302242Y-105090042D02*
X138159385Y-105161471D01*
X137873671Y-105161471D01*
X137730814Y-105090042D01*
X137659385Y-105018614D01*
X137587957Y-104875757D01*
X137587957Y-104447185D01*
X137659385Y-104304328D01*
X137730814Y-104232900D01*
X137873671Y-104161471D01*
X138159385Y-104161471D01*
X138302242Y-104232900D01*
X138945100Y-105161471D02*
X138945100Y-103661471D01*
X139087957Y-104590042D02*
X139516528Y-105161471D01*
X139516528Y-104161471D02*
X138945100Y-104732900D01*
X142159385Y-105018614D02*
X142087957Y-105090042D01*
X141873671Y-105161471D01*
X141730814Y-105161471D01*
X141516528Y-105090042D01*
X141373671Y-104947185D01*
X141302242Y-104804328D01*
X141230814Y-104518614D01*
X141230814Y-104304328D01*
X141302242Y-104018614D01*
X141373671Y-103875757D01*
X141516528Y-103732900D01*
X141730814Y-103661471D01*
X141873671Y-103661471D01*
X142087957Y-103732900D01*
X142159385Y-103804328D01*
X143016528Y-105161471D02*
X142873671Y-105090042D01*
X142802242Y-105018614D01*
X142730814Y-104875757D01*
X142730814Y-104447185D01*
X142802242Y-104304328D01*
X142873671Y-104232900D01*
X143016528Y-104161471D01*
X143230814Y-104161471D01*
X143373671Y-104232900D01*
X143445100Y-104304328D01*
X143516528Y-104447185D01*
X143516528Y-104875757D01*
X143445100Y-105018614D01*
X143373671Y-105090042D01*
X143230814Y-105161471D01*
X143016528Y-105161471D01*
X144159385Y-104161471D02*
X144159385Y-105161471D01*
X144159385Y-104304328D02*
X144230814Y-104232900D01*
X144373671Y-104161471D01*
X144587957Y-104161471D01*
X144730814Y-104232900D01*
X144802242Y-104375757D01*
X144802242Y-105161471D01*
X145373671Y-104161471D02*
X145730814Y-105161471D01*
X146087957Y-104161471D01*
X147230814Y-105090042D02*
X147087957Y-105161471D01*
X146802242Y-105161471D01*
X146659385Y-105090042D01*
X146587957Y-104947185D01*
X146587957Y-104375757D01*
X146659385Y-104232900D01*
X146802242Y-104161471D01*
X147087957Y-104161471D01*
X147230814Y-104232900D01*
X147302242Y-104375757D01*
X147302242Y-104518614D01*
X146587957Y-104661471D01*
X147945100Y-105161471D02*
X147945100Y-104161471D01*
X147945100Y-104447185D02*
X148016528Y-104304328D01*
X148087957Y-104232900D01*
X148230814Y-104161471D01*
X148373671Y-104161471D01*
X148659385Y-104161471D02*
X149230814Y-104161471D01*
X148873671Y-103661471D02*
X148873671Y-104947185D01*
X148945100Y-105090042D01*
X149087957Y-105161471D01*
X149230814Y-105161471D01*
X150302242Y-105090042D02*
X150159385Y-105161471D01*
X149873671Y-105161471D01*
X149730814Y-105090042D01*
X149659385Y-104947185D01*
X149659385Y-104375757D01*
X149730814Y-104232900D01*
X149873671Y-104161471D01*
X150159385Y-104161471D01*
X150302242Y-104232900D01*
X150373671Y-104375757D01*
X150373671Y-104518614D01*
X149659385Y-104661471D01*
X151016528Y-105161471D02*
X151016528Y-104161471D01*
X151016528Y-104447185D02*
X151087957Y-104304328D01*
X151159385Y-104232900D01*
X151302242Y-104161471D01*
X151445100Y-104161471D01*
X152873671Y-103661471D02*
X153373671Y-105161471D01*
X153873671Y-103661471D01*
X155159385Y-105161471D02*
X154302242Y-105161471D01*
X154730814Y-105161471D02*
X154730814Y-103661471D01*
X154587957Y-103875757D01*
X154445100Y-104018614D01*
X154302242Y-104090042D01*
X173625771Y-97726914D02*
X173625771Y-97441200D01*
X173697200Y-97298342D01*
X173840057Y-97155485D01*
X174125771Y-97084057D01*
X174625771Y-97084057D01*
X174911485Y-97155485D01*
X175054342Y-97298342D01*
X175125771Y-97441200D01*
X175125771Y-97726914D01*
X175054342Y-97869771D01*
X174911485Y-98012628D01*
X174625771Y-98084057D01*
X174125771Y-98084057D01*
X173840057Y-98012628D01*
X173697200Y-97869771D01*
X173625771Y-97726914D01*
X174125771Y-95798342D02*
X175125771Y-95798342D01*
X174125771Y-96441200D02*
X174911485Y-96441200D01*
X175054342Y-96369771D01*
X175125771Y-96226914D01*
X175125771Y-96012628D01*
X175054342Y-95869771D01*
X174982914Y-95798342D01*
X174125771Y-95298342D02*
X174125771Y-94726914D01*
X173625771Y-95084057D02*
X174911485Y-95084057D01*
X175054342Y-95012628D01*
X175125771Y-94869771D01*
X175125771Y-94726914D01*
X174125771Y-94226914D02*
X175625771Y-94226914D01*
X174197200Y-94226914D02*
X174125771Y-94084057D01*
X174125771Y-93798342D01*
X174197200Y-93655485D01*
X174268628Y-93584057D01*
X174411485Y-93512628D01*
X174840057Y-93512628D01*
X174982914Y-93584057D01*
X175054342Y-93655485D01*
X175125771Y-93798342D01*
X175125771Y-94084057D01*
X175054342Y-94226914D01*
X174125771Y-92226914D02*
X175125771Y-92226914D01*
X174125771Y-92869771D02*
X174911485Y-92869771D01*
X175054342Y-92798342D01*
X175125771Y-92655485D01*
X175125771Y-92441200D01*
X175054342Y-92298342D01*
X174982914Y-92226914D01*
X174125771Y-91726914D02*
X174125771Y-91155485D01*
X173625771Y-91512628D02*
X174911485Y-91512628D01*
X175054342Y-91441200D01*
X175125771Y-91298342D01*
X175125771Y-91155485D01*
X113164228Y-89394814D02*
X114664228Y-89394814D01*
X114164228Y-90109100D02*
X113164228Y-90109100D01*
X114021371Y-90109100D02*
X114092800Y-90180528D01*
X114164228Y-90323385D01*
X114164228Y-90537671D01*
X114092800Y-90680528D01*
X113949942Y-90751957D01*
X113164228Y-90751957D01*
X114164228Y-91466242D02*
X112664228Y-91466242D01*
X114092800Y-91466242D02*
X114164228Y-91609100D01*
X114164228Y-91894814D01*
X114092800Y-92037671D01*
X114021371Y-92109100D01*
X113878514Y-92180528D01*
X113449942Y-92180528D01*
X113307085Y-92109100D01*
X113235657Y-92037671D01*
X113164228Y-91894814D01*
X113164228Y-91609100D01*
X113235657Y-91466242D01*
X114164228Y-93466242D02*
X113164228Y-93466242D01*
X114164228Y-92823385D02*
X113378514Y-92823385D01*
X113235657Y-92894814D01*
X113164228Y-93037671D01*
X113164228Y-93251957D01*
X113235657Y-93394814D01*
X113307085Y-93466242D01*
X114164228Y-93966242D02*
X114164228Y-94537671D01*
X114664228Y-94180528D02*
X113378514Y-94180528D01*
X113235657Y-94251957D01*
X113164228Y-94394814D01*
X113164228Y-94537671D01*
D11*
X142701709Y-70651619D02*
X142511233Y-70651619D01*
X142415995Y-70604000D01*
X142320757Y-70508761D01*
X142273138Y-70318285D01*
X142273138Y-69984952D01*
X142320757Y-69794476D01*
X142415995Y-69699238D01*
X142511233Y-69651619D01*
X142701709Y-69651619D01*
X142796947Y-69699238D01*
X142892185Y-69794476D01*
X142939804Y-69984952D01*
X142939804Y-70318285D01*
X142892185Y-70508761D01*
X142796947Y-70604000D01*
X142701709Y-70651619D01*
X141415995Y-70318285D02*
X141415995Y-69651619D01*
X141844566Y-70318285D02*
X141844566Y-69794476D01*
X141796947Y-69699238D01*
X141701709Y-69651619D01*
X141558852Y-69651619D01*
X141463614Y-69699238D01*
X141415995Y-69746857D01*
X141082661Y-70318285D02*
X140701709Y-70318285D01*
X140939804Y-70651619D02*
X140939804Y-69794476D01*
X140892185Y-69699238D01*
X140796947Y-69651619D01*
X140701709Y-69651619D01*
X140368376Y-70318285D02*
X140368376Y-69318285D01*
X140368376Y-70270666D02*
X140273138Y-70318285D01*
X140082661Y-70318285D01*
X139987423Y-70270666D01*
X139939804Y-70223047D01*
X139892185Y-70127809D01*
X139892185Y-69842095D01*
X139939804Y-69746857D01*
X139987423Y-69699238D01*
X140082661Y-69651619D01*
X140273138Y-69651619D01*
X140368376Y-69699238D01*
X139035042Y-70318285D02*
X139035042Y-69651619D01*
X139463614Y-70318285D02*
X139463614Y-69794476D01*
X139415995Y-69699238D01*
X139320757Y-69651619D01*
X139177900Y-69651619D01*
X139082661Y-69699238D01*
X139035042Y-69746857D01*
X138701709Y-70318285D02*
X138320757Y-70318285D01*
X138558852Y-70651619D02*
X138558852Y-69794476D01*
X138511233Y-69699238D01*
X138415995Y-69651619D01*
X138320757Y-69651619D01*
X152812619Y-70137328D02*
X153145952Y-70137328D01*
X153145952Y-69613519D02*
X153145952Y-70613519D01*
X152669761Y-70613519D01*
X152288809Y-69613519D02*
X152288809Y-70280185D01*
X152288809Y-70089709D02*
X152241190Y-70184947D01*
X152193571Y-70232566D01*
X152098333Y-70280185D01*
X152003095Y-70280185D01*
X151288809Y-69661138D02*
X151384047Y-69613519D01*
X151574523Y-69613519D01*
X151669761Y-69661138D01*
X151717380Y-69756376D01*
X151717380Y-70137328D01*
X151669761Y-70232566D01*
X151574523Y-70280185D01*
X151384047Y-70280185D01*
X151288809Y-70232566D01*
X151241190Y-70137328D01*
X151241190Y-70042090D01*
X151717380Y-69946852D01*
X150384047Y-70280185D02*
X150384047Y-69280185D01*
X150384047Y-69661138D02*
X150479285Y-69613519D01*
X150669761Y-69613519D01*
X150765000Y-69661138D01*
X150812619Y-69708757D01*
X150860238Y-69803995D01*
X150860238Y-70089709D01*
X150812619Y-70184947D01*
X150765000Y-70232566D01*
X150669761Y-70280185D01*
X150479285Y-70280185D01*
X150384047Y-70232566D01*
D12*
G04 #@! TO.C,OUT+*
X177470000Y-86710000D02*
X180130000Y-86710000D01*
X177470000Y-86650000D02*
X177470000Y-86710000D01*
X180130000Y-86650000D02*
X180130000Y-86710000D01*
X177470000Y-86650000D02*
X180130000Y-86650000D01*
X177470000Y-85380000D02*
X177470000Y-84050000D01*
X177470000Y-84050000D02*
X178800000Y-84050000D01*
G04 #@! TO.C,OUT-*
X177470000Y-102670000D02*
X178800000Y-102670000D01*
X177470000Y-104000000D02*
X177470000Y-102670000D01*
X177470000Y-105270000D02*
X180130000Y-105270000D01*
X180130000Y-105270000D02*
X180130000Y-105330000D01*
X177470000Y-105270000D02*
X177470000Y-105330000D01*
X177470000Y-105330000D02*
X180130000Y-105330000D01*
G04 #@! TO.C,IN-*
X112470000Y-105330000D02*
X115130000Y-105330000D01*
X112470000Y-105270000D02*
X112470000Y-105330000D01*
X115130000Y-105270000D02*
X115130000Y-105330000D01*
X112470000Y-105270000D02*
X115130000Y-105270000D01*
X112470000Y-104000000D02*
X112470000Y-102670000D01*
X112470000Y-102670000D02*
X113800000Y-102670000D01*
G04 #@! TO.C,C1*
X149295033Y-81379600D02*
X149637567Y-81379600D01*
X149295033Y-82399600D02*
X149637567Y-82399600D01*
D13*
G04 #@! TO.C,C2*
X129779400Y-91493700D02*
X124779400Y-91493700D01*
X123129400Y-93343700D02*
X123129400Y-99793700D01*
X123129400Y-99793700D02*
X131429400Y-99793700D01*
X131429400Y-99793700D02*
X131429400Y-93343700D01*
X129779400Y-91493700D02*
X131429400Y-93343700D01*
X124779400Y-91493700D02*
X123129400Y-93343700D01*
X131978400Y-91198700D02*
X130708400Y-91198700D01*
X131343400Y-90563700D02*
X131343400Y-91833700D01*
D12*
G04 #@! TO.C,C3*
X149637567Y-83233800D02*
X149295033Y-83233800D01*
X149637567Y-84253800D02*
X149295033Y-84253800D01*
G04 #@! TO.C,C4*
X135295100Y-79228767D02*
X135295100Y-78886233D01*
X134275100Y-79228767D02*
X134275100Y-78886233D01*
G04 #@! TO.C,C5*
X131603933Y-81620900D02*
X131946467Y-81620900D01*
X131603933Y-82640900D02*
X131946467Y-82640900D01*
D13*
G04 #@! TO.C,C6*
X172046900Y-91655900D02*
X172046900Y-92925900D01*
X172681900Y-92290900D02*
X171411900Y-92290900D01*
X165482900Y-92585900D02*
X163832900Y-94435900D01*
X170482900Y-92585900D02*
X172132900Y-94435900D01*
X172132900Y-100885900D02*
X172132900Y-94435900D01*
X163832900Y-100885900D02*
X172132900Y-100885900D01*
X163832900Y-94435900D02*
X163832900Y-100885900D01*
X170482900Y-92585900D02*
X165482900Y-92585900D01*
D12*
G04 #@! TO.C,C7*
X135269700Y-83191167D02*
X135269700Y-82848633D01*
X134249700Y-83191167D02*
X134249700Y-82848633D01*
G04 #@! TO.C,C8*
X127768533Y-77633100D02*
X128111067Y-77633100D01*
X127768533Y-78653100D02*
X128111067Y-78653100D01*
G04 #@! TO.C,D1*
X144410700Y-91942200D02*
X141110700Y-91942200D01*
X141110700Y-91942200D02*
X141110700Y-98842200D01*
X144410700Y-91942200D02*
X144410700Y-98842200D01*
G04 #@! TO.C,F1*
X119517700Y-89376067D02*
X119517700Y-89033533D01*
X120537700Y-89376067D02*
X120537700Y-89033533D01*
G04 #@! TO.C,J1*
X112470000Y-87130000D02*
X115130000Y-87130000D01*
X112470000Y-87070000D02*
X112470000Y-87130000D01*
X115130000Y-87070000D02*
X115130000Y-87130000D01*
X112470000Y-87070000D02*
X115130000Y-87070000D01*
X112470000Y-85800000D02*
X112470000Y-84470000D01*
X112470000Y-84470000D02*
X113800000Y-84470000D01*
G04 #@! TO.C,J2*
X112470000Y-97170000D02*
X113800000Y-97170000D01*
X112470000Y-98500000D02*
X112470000Y-97170000D01*
X112470000Y-99770000D02*
X115130000Y-99770000D01*
X115130000Y-99770000D02*
X115130000Y-99830000D01*
X112470000Y-99770000D02*
X112470000Y-99830000D01*
X112470000Y-99830000D02*
X115130000Y-99830000D01*
G04 #@! TO.C,J3*
X177470000Y-92210000D02*
X180130000Y-92210000D01*
X177470000Y-92150000D02*
X177470000Y-92210000D01*
X180130000Y-92150000D02*
X180130000Y-92210000D01*
X177470000Y-92150000D02*
X180130000Y-92150000D01*
X177470000Y-90880000D02*
X177470000Y-89550000D01*
X177470000Y-89550000D02*
X178800000Y-89550000D01*
G04 #@! TO.C,J4*
X177470000Y-97170000D02*
X178800000Y-97170000D01*
X177470000Y-98500000D02*
X177470000Y-97170000D01*
X177470000Y-99770000D02*
X180130000Y-99770000D01*
X180130000Y-99770000D02*
X180130000Y-99830000D01*
X177470000Y-99770000D02*
X177470000Y-99830000D01*
X177470000Y-99830000D02*
X180130000Y-99830000D01*
G04 #@! TO.C,L1*
X159944600Y-96162400D02*
X159944600Y-99162400D01*
X159944600Y-99162400D02*
X147344600Y-99162400D01*
X147344600Y-99162400D02*
X147344600Y-96162400D01*
X147344600Y-89562400D02*
X147344600Y-86562400D01*
X147344600Y-86562400D02*
X159944600Y-86562400D01*
X159944600Y-86562400D02*
X159944600Y-89562400D01*
G04 #@! TO.C,R1*
X149282333Y-79538100D02*
X149624867Y-79538100D01*
X149282333Y-80558100D02*
X149624867Y-80558100D01*
G04 #@! TO.C,R2*
X133504400Y-89046233D02*
X133504400Y-89388767D01*
X132484400Y-89046233D02*
X132484400Y-89388767D01*
G04 #@! TO.C,R3*
X129249900Y-83216567D02*
X129249900Y-82874033D01*
X128229900Y-83216567D02*
X128229900Y-82874033D01*
G04 #@! TO.C,R4*
X127793933Y-79538100D02*
X128136467Y-79538100D01*
X127793933Y-80558100D02*
X128136467Y-80558100D01*
G04 #@! TO.C,R5*
X130333134Y-78911633D02*
X130333134Y-79254167D01*
X131353134Y-78911633D02*
X131353134Y-79254167D01*
G04 #@! TO.C,RV1*
X156383300Y-76545600D02*
X146613300Y-76545600D01*
X156383300Y-71475600D02*
X146613300Y-71475600D01*
X156383300Y-76545600D02*
X156383300Y-71475600D01*
X146613300Y-76545600D02*
X146613300Y-71475600D01*
G04 #@! TO.C,RV2*
X135678600Y-76558300D02*
X135678600Y-71488300D01*
X145448600Y-76558300D02*
X145448600Y-71488300D01*
X145448600Y-71488300D02*
X135678600Y-71488300D01*
X145448600Y-76558300D02*
X135678600Y-76558300D01*
D13*
G04 #@! TO.C,U1*
X137904400Y-78501800D02*
X137904400Y-78551800D01*
X142054400Y-78501800D02*
X142054400Y-78646800D01*
X142054400Y-83651800D02*
X142054400Y-83506800D01*
X137904400Y-83651800D02*
X137904400Y-83506800D01*
X137904400Y-78501800D02*
X142054400Y-78501800D01*
X137904400Y-83651800D02*
X142054400Y-83651800D01*
X137904400Y-78551800D02*
X136504400Y-78551800D01*
D12*
G04 #@! TO.C,IN+*
X112470000Y-78970000D02*
X113800000Y-78970000D01*
X112470000Y-80300000D02*
X112470000Y-78970000D01*
X112470000Y-81570000D02*
X115130000Y-81570000D01*
X115130000Y-81570000D02*
X115130000Y-81630000D01*
X112470000Y-81570000D02*
X112470000Y-81630000D01*
X112470000Y-81630000D02*
X115130000Y-81630000D01*
G04 #@! TO.C,Q1*
X137869200Y-90810200D02*
X137869200Y-89880200D01*
X137869200Y-87650200D02*
X137869200Y-88580200D01*
X137869200Y-87650200D02*
X134709200Y-87650200D01*
X137869200Y-90810200D02*
X136409200Y-90810200D01*
G04 #@! TO.C,OUT+*
D13*
X181557680Y-92424047D02*
X181557680Y-92233571D01*
X181605300Y-92138333D01*
X181700538Y-92043095D01*
X181891014Y-91995476D01*
X182224347Y-91995476D01*
X182414823Y-92043095D01*
X182510061Y-92138333D01*
X182557680Y-92233571D01*
X182557680Y-92424047D01*
X182510061Y-92519285D01*
X182414823Y-92614523D01*
X182224347Y-92662142D01*
X181891014Y-92662142D01*
X181700538Y-92614523D01*
X181605300Y-92519285D01*
X181557680Y-92424047D01*
X181557680Y-91566904D02*
X182367204Y-91566904D01*
X182462442Y-91519285D01*
X182510061Y-91471666D01*
X182557680Y-91376428D01*
X182557680Y-91185952D01*
X182510061Y-91090714D01*
X182462442Y-91043095D01*
X182367204Y-90995476D01*
X181557680Y-90995476D01*
X181557680Y-90662142D02*
X181557680Y-90090714D01*
X182557680Y-90376428D02*
X181557680Y-90376428D01*
X182176728Y-89757380D02*
X182176728Y-88995476D01*
X182557680Y-89376428D02*
X181795776Y-89376428D01*
G04 #@! TO.C,OUT-*
X181570380Y-99802747D02*
X181570380Y-99612271D01*
X181618000Y-99517033D01*
X181713238Y-99421795D01*
X181903714Y-99374176D01*
X182237047Y-99374176D01*
X182427523Y-99421795D01*
X182522761Y-99517033D01*
X182570380Y-99612271D01*
X182570380Y-99802747D01*
X182522761Y-99897985D01*
X182427523Y-99993223D01*
X182237047Y-100040842D01*
X181903714Y-100040842D01*
X181713238Y-99993223D01*
X181618000Y-99897985D01*
X181570380Y-99802747D01*
X181570380Y-98945604D02*
X182379904Y-98945604D01*
X182475142Y-98897985D01*
X182522761Y-98850366D01*
X182570380Y-98755128D01*
X182570380Y-98564652D01*
X182522761Y-98469414D01*
X182475142Y-98421795D01*
X182379904Y-98374176D01*
X181570380Y-98374176D01*
X181570380Y-98040842D02*
X181570380Y-97469414D01*
X182570380Y-97755128D02*
X181570380Y-97755128D01*
X182189428Y-97136080D02*
X182189428Y-96374176D01*
G04 #@! TO.C,IN-*
X109969419Y-97624742D02*
X110969419Y-97624742D01*
X109969419Y-98100933D02*
X110969419Y-98100933D01*
X109969419Y-98672361D01*
X110969419Y-98672361D01*
X110350371Y-99148552D02*
X110350371Y-99910457D01*
G04 #@! TO.C,C1*
X146175433Y-82297542D02*
X146127814Y-82345161D01*
X145984957Y-82392780D01*
X145889719Y-82392780D01*
X145746861Y-82345161D01*
X145651623Y-82249923D01*
X145604004Y-82154685D01*
X145556385Y-81964209D01*
X145556385Y-81821352D01*
X145604004Y-81630876D01*
X145651623Y-81535638D01*
X145746861Y-81440400D01*
X145889719Y-81392780D01*
X145984957Y-81392780D01*
X146127814Y-81440400D01*
X146175433Y-81488019D01*
X147127814Y-82392780D02*
X146556385Y-82392780D01*
X146842100Y-82392780D02*
X146842100Y-81392780D01*
X146746861Y-81535638D01*
X146651623Y-81630876D01*
X146556385Y-81678495D01*
G04 #@! TO.C,C2*
X132957842Y-96153266D02*
X133005461Y-96200885D01*
X133053080Y-96343742D01*
X133053080Y-96438980D01*
X133005461Y-96581838D01*
X132910223Y-96677076D01*
X132814985Y-96724695D01*
X132624509Y-96772314D01*
X132481652Y-96772314D01*
X132291176Y-96724695D01*
X132195938Y-96677076D01*
X132100700Y-96581838D01*
X132053080Y-96438980D01*
X132053080Y-96343742D01*
X132100700Y-96200885D01*
X132148319Y-96153266D01*
X132148319Y-95772314D02*
X132100700Y-95724695D01*
X132053080Y-95629457D01*
X132053080Y-95391361D01*
X132100700Y-95296123D01*
X132148319Y-95248504D01*
X132243557Y-95200885D01*
X132338795Y-95200885D01*
X132481652Y-95248504D01*
X133053080Y-95819933D01*
X133053080Y-95200885D01*
G04 #@! TO.C,C3*
X146200833Y-84139042D02*
X146153214Y-84186661D01*
X146010357Y-84234280D01*
X145915119Y-84234280D01*
X145772261Y-84186661D01*
X145677023Y-84091423D01*
X145629404Y-83996185D01*
X145581785Y-83805709D01*
X145581785Y-83662852D01*
X145629404Y-83472376D01*
X145677023Y-83377138D01*
X145772261Y-83281900D01*
X145915119Y-83234280D01*
X146010357Y-83234280D01*
X146153214Y-83281900D01*
X146200833Y-83329519D01*
X146534166Y-83234280D02*
X147153214Y-83234280D01*
X146819880Y-83615233D01*
X146962738Y-83615233D01*
X147057976Y-83662852D01*
X147105595Y-83710471D01*
X147153214Y-83805709D01*
X147153214Y-84043804D01*
X147105595Y-84139042D01*
X147057976Y-84186661D01*
X146962738Y-84234280D01*
X146677023Y-84234280D01*
X146581785Y-84186661D01*
X146534166Y-84139042D01*
G04 #@! TO.C,C4*
X134812042Y-76150766D02*
X134859661Y-76198385D01*
X134907280Y-76341242D01*
X134907280Y-76436480D01*
X134859661Y-76579338D01*
X134764423Y-76674576D01*
X134669185Y-76722195D01*
X134478709Y-76769814D01*
X134335852Y-76769814D01*
X134145376Y-76722195D01*
X134050138Y-76674576D01*
X133954900Y-76579338D01*
X133907280Y-76436480D01*
X133907280Y-76341242D01*
X133954900Y-76198385D01*
X134002519Y-76150766D01*
X134240614Y-75293623D02*
X134907280Y-75293623D01*
X133859661Y-75531719D02*
X134573947Y-75769814D01*
X134573947Y-75150766D01*
G04 #@! TO.C,C5*
X131608533Y-84037442D02*
X131560914Y-84085061D01*
X131418057Y-84132680D01*
X131322819Y-84132680D01*
X131179961Y-84085061D01*
X131084723Y-83989823D01*
X131037104Y-83894585D01*
X130989485Y-83704109D01*
X130989485Y-83561252D01*
X131037104Y-83370776D01*
X131084723Y-83275538D01*
X131179961Y-83180300D01*
X131322819Y-83132680D01*
X131418057Y-83132680D01*
X131560914Y-83180300D01*
X131608533Y-83227919D01*
X132513295Y-83132680D02*
X132037104Y-83132680D01*
X131989485Y-83608871D01*
X132037104Y-83561252D01*
X132132342Y-83513633D01*
X132370438Y-83513633D01*
X132465676Y-83561252D01*
X132513295Y-83608871D01*
X132560914Y-83704109D01*
X132560914Y-83942204D01*
X132513295Y-84037442D01*
X132465676Y-84085061D01*
X132370438Y-84132680D01*
X132132342Y-84132680D01*
X132037104Y-84085061D01*
X131989485Y-84037442D01*
G04 #@! TO.C,C6*
X164133233Y-102604842D02*
X164085614Y-102652461D01*
X163942757Y-102700080D01*
X163847519Y-102700080D01*
X163704661Y-102652461D01*
X163609423Y-102557223D01*
X163561804Y-102461985D01*
X163514185Y-102271509D01*
X163514185Y-102128652D01*
X163561804Y-101938176D01*
X163609423Y-101842938D01*
X163704661Y-101747700D01*
X163847519Y-101700080D01*
X163942757Y-101700080D01*
X164085614Y-101747700D01*
X164133233Y-101795319D01*
X164990376Y-101700080D02*
X164799900Y-101700080D01*
X164704661Y-101747700D01*
X164657042Y-101795319D01*
X164561804Y-101938176D01*
X164514185Y-102128652D01*
X164514185Y-102509604D01*
X164561804Y-102604842D01*
X164609423Y-102652461D01*
X164704661Y-102700080D01*
X164895138Y-102700080D01*
X164990376Y-102652461D01*
X165037995Y-102604842D01*
X165085614Y-102509604D01*
X165085614Y-102271509D01*
X165037995Y-102176271D01*
X164990376Y-102128652D01*
X164895138Y-102081033D01*
X164704661Y-102081033D01*
X164609423Y-102128652D01*
X164561804Y-102176271D01*
X164514185Y-102271509D01*
G04 #@! TO.C,C7*
X135269242Y-85891666D02*
X135316861Y-85939285D01*
X135364480Y-86082142D01*
X135364480Y-86177380D01*
X135316861Y-86320238D01*
X135221623Y-86415476D01*
X135126385Y-86463095D01*
X134935909Y-86510714D01*
X134793052Y-86510714D01*
X134602576Y-86463095D01*
X134507338Y-86415476D01*
X134412100Y-86320238D01*
X134364480Y-86177380D01*
X134364480Y-86082142D01*
X134412100Y-85939285D01*
X134459719Y-85891666D01*
X134364480Y-85558333D02*
X134364480Y-84891666D01*
X135364480Y-85320238D01*
G04 #@! TO.C,C8*
X124864833Y-78474842D02*
X124817214Y-78522461D01*
X124674357Y-78570080D01*
X124579119Y-78570080D01*
X124436261Y-78522461D01*
X124341023Y-78427223D01*
X124293404Y-78331985D01*
X124245785Y-78141509D01*
X124245785Y-77998652D01*
X124293404Y-77808176D01*
X124341023Y-77712938D01*
X124436261Y-77617700D01*
X124579119Y-77570080D01*
X124674357Y-77570080D01*
X124817214Y-77617700D01*
X124864833Y-77665319D01*
X125436261Y-77998652D02*
X125341023Y-77951033D01*
X125293404Y-77903414D01*
X125245785Y-77808176D01*
X125245785Y-77760557D01*
X125293404Y-77665319D01*
X125341023Y-77617700D01*
X125436261Y-77570080D01*
X125626738Y-77570080D01*
X125721976Y-77617700D01*
X125769595Y-77665319D01*
X125817214Y-77760557D01*
X125817214Y-77808176D01*
X125769595Y-77903414D01*
X125721976Y-77951033D01*
X125626738Y-77998652D01*
X125436261Y-77998652D01*
X125341023Y-78046271D01*
X125293404Y-78093890D01*
X125245785Y-78189128D01*
X125245785Y-78379604D01*
X125293404Y-78474842D01*
X125341023Y-78522461D01*
X125436261Y-78570080D01*
X125626738Y-78570080D01*
X125721976Y-78522461D01*
X125769595Y-78474842D01*
X125817214Y-78379604D01*
X125817214Y-78189128D01*
X125769595Y-78093890D01*
X125721976Y-78046271D01*
X125626738Y-77998652D01*
G04 #@! TO.C,D1*
X140368280Y-96953295D02*
X139368280Y-96953295D01*
X139368280Y-96715200D01*
X139415900Y-96572342D01*
X139511138Y-96477104D01*
X139606376Y-96429485D01*
X139796852Y-96381866D01*
X139939709Y-96381866D01*
X140130185Y-96429485D01*
X140225423Y-96477104D01*
X140320661Y-96572342D01*
X140368280Y-96715200D01*
X140368280Y-96953295D01*
X140368280Y-95429485D02*
X140368280Y-96000914D01*
X140368280Y-95715200D02*
X139368280Y-95715200D01*
X139511138Y-95810438D01*
X139606376Y-95905676D01*
X139653995Y-96000914D01*
G04 #@! TO.C,F1*
X118317971Y-89652433D02*
X118317971Y-89985766D01*
X118841780Y-89985766D02*
X117841780Y-89985766D01*
X117841780Y-89509576D01*
X118841780Y-88604814D02*
X118841780Y-89176242D01*
X118841780Y-88890528D02*
X117841780Y-88890528D01*
X117984638Y-88985766D01*
X118079876Y-89081004D01*
X118127495Y-89176242D01*
G04 #@! TO.C,J1*
X115995580Y-86133333D02*
X116709866Y-86133333D01*
X116852723Y-86180952D01*
X116947961Y-86276190D01*
X116995580Y-86419047D01*
X116995580Y-86514285D01*
X116995580Y-85133333D02*
X116995580Y-85704761D01*
X116995580Y-85419047D02*
X115995580Y-85419047D01*
X116138438Y-85514285D01*
X116233676Y-85609523D01*
X116281295Y-85704761D01*
G04 #@! TO.C,J2*
X116033680Y-98985733D02*
X116747966Y-98985733D01*
X116890823Y-99033352D01*
X116986061Y-99128590D01*
X117033680Y-99271447D01*
X117033680Y-99366685D01*
X116128919Y-98557161D02*
X116081300Y-98509542D01*
X116033680Y-98414304D01*
X116033680Y-98176209D01*
X116081300Y-98080971D01*
X116128919Y-98033352D01*
X116224157Y-97985733D01*
X116319395Y-97985733D01*
X116462252Y-98033352D01*
X117033680Y-98604780D01*
X117033680Y-97985733D01*
G04 #@! TO.C,J3*
X178419166Y-87603080D02*
X178419166Y-88317366D01*
X178371547Y-88460223D01*
X178276309Y-88555461D01*
X178133452Y-88603080D01*
X178038214Y-88603080D01*
X178800119Y-87603080D02*
X179419166Y-87603080D01*
X179085833Y-87984033D01*
X179228690Y-87984033D01*
X179323928Y-88031652D01*
X179371547Y-88079271D01*
X179419166Y-88174509D01*
X179419166Y-88412604D01*
X179371547Y-88507842D01*
X179323928Y-88555461D01*
X179228690Y-88603080D01*
X178942976Y-88603080D01*
X178847738Y-88555461D01*
X178800119Y-88507842D01*
G04 #@! TO.C,J4*
X178482666Y-95223080D02*
X178482666Y-95937366D01*
X178435047Y-96080223D01*
X178339809Y-96175461D01*
X178196952Y-96223080D01*
X178101714Y-96223080D01*
X179387428Y-95556414D02*
X179387428Y-96223080D01*
X179149333Y-95175461D02*
X178911238Y-95889747D01*
X179530285Y-95889747D01*
G04 #@! TO.C,L1*
X153287433Y-101201480D02*
X152811242Y-101201480D01*
X152811242Y-100201480D01*
X154144576Y-101201480D02*
X153573147Y-101201480D01*
X153858861Y-101201480D02*
X153858861Y-100201480D01*
X153763623Y-100344338D01*
X153668385Y-100439576D01*
X153573147Y-100487195D01*
G04 #@! TO.C,R1*
X146175433Y-80640180D02*
X145842100Y-80163990D01*
X145604004Y-80640180D02*
X145604004Y-79640180D01*
X145984957Y-79640180D01*
X146080195Y-79687800D01*
X146127814Y-79735419D01*
X146175433Y-79830657D01*
X146175433Y-79973514D01*
X146127814Y-80068752D01*
X146080195Y-80116371D01*
X145984957Y-80163990D01*
X145604004Y-80163990D01*
X147127814Y-80640180D02*
X146556385Y-80640180D01*
X146842100Y-80640180D02*
X146842100Y-79640180D01*
X146746861Y-79783038D01*
X146651623Y-79878276D01*
X146556385Y-79925895D01*
G04 #@! TO.C,R2*
X133522980Y-86501266D02*
X133046790Y-86834600D01*
X133522980Y-87072695D02*
X132522980Y-87072695D01*
X132522980Y-86691742D01*
X132570600Y-86596504D01*
X132618219Y-86548885D01*
X132713457Y-86501266D01*
X132856314Y-86501266D01*
X132951552Y-86548885D01*
X132999171Y-86596504D01*
X133046790Y-86691742D01*
X133046790Y-87072695D01*
X132618219Y-86120314D02*
X132570600Y-86072695D01*
X132522980Y-85977457D01*
X132522980Y-85739361D01*
X132570600Y-85644123D01*
X132618219Y-85596504D01*
X132713457Y-85548885D01*
X132808695Y-85548885D01*
X132951552Y-85596504D01*
X133522980Y-86167933D01*
X133522980Y-85548885D01*
G04 #@! TO.C,R3*
X129103380Y-86069466D02*
X128627190Y-86402800D01*
X129103380Y-86640895D02*
X128103380Y-86640895D01*
X128103380Y-86259942D01*
X128151000Y-86164704D01*
X128198619Y-86117085D01*
X128293857Y-86069466D01*
X128436714Y-86069466D01*
X128531952Y-86117085D01*
X128579571Y-86164704D01*
X128627190Y-86259942D01*
X128627190Y-86640895D01*
X128103380Y-85736133D02*
X128103380Y-85117085D01*
X128484333Y-85450419D01*
X128484333Y-85307561D01*
X128531952Y-85212323D01*
X128579571Y-85164704D01*
X128674809Y-85117085D01*
X128912904Y-85117085D01*
X129008142Y-85164704D01*
X129055761Y-85212323D01*
X129103380Y-85307561D01*
X129103380Y-85593276D01*
X129055761Y-85688514D01*
X129008142Y-85736133D01*
G04 #@! TO.C,R4*
X124928333Y-80500480D02*
X124595000Y-80024290D01*
X124356904Y-80500480D02*
X124356904Y-79500480D01*
X124737857Y-79500480D01*
X124833095Y-79548100D01*
X124880714Y-79595719D01*
X124928333Y-79690957D01*
X124928333Y-79833814D01*
X124880714Y-79929052D01*
X124833095Y-79976671D01*
X124737857Y-80024290D01*
X124356904Y-80024290D01*
X125785476Y-79833814D02*
X125785476Y-80500480D01*
X125547380Y-79452861D02*
X125309285Y-80167147D01*
X125928333Y-80167147D01*
G04 #@! TO.C,R5*
X131351280Y-76506366D02*
X130875090Y-76839700D01*
X131351280Y-77077795D02*
X130351280Y-77077795D01*
X130351280Y-76696842D01*
X130398900Y-76601604D01*
X130446519Y-76553985D01*
X130541757Y-76506366D01*
X130684614Y-76506366D01*
X130779852Y-76553985D01*
X130827471Y-76601604D01*
X130875090Y-76696842D01*
X130875090Y-77077795D01*
X130351280Y-75601604D02*
X130351280Y-76077795D01*
X130827471Y-76125414D01*
X130779852Y-76077795D01*
X130732233Y-75982557D01*
X130732233Y-75744461D01*
X130779852Y-75649223D01*
X130827471Y-75601604D01*
X130922709Y-75553985D01*
X131160804Y-75553985D01*
X131256042Y-75601604D01*
X131303661Y-75649223D01*
X131351280Y-75744461D01*
X131351280Y-75982557D01*
X131303661Y-76077795D01*
X131256042Y-76125414D01*
G04 #@! TO.C,RV1*
X158084780Y-72947138D02*
X157608590Y-73280471D01*
X158084780Y-73518566D02*
X157084780Y-73518566D01*
X157084780Y-73137614D01*
X157132400Y-73042376D01*
X157180019Y-72994757D01*
X157275257Y-72947138D01*
X157418114Y-72947138D01*
X157513352Y-72994757D01*
X157560971Y-73042376D01*
X157608590Y-73137614D01*
X157608590Y-73518566D01*
X157084780Y-72661423D02*
X158084780Y-72328090D01*
X157084780Y-71994757D01*
X158084780Y-71137614D02*
X158084780Y-71709042D01*
X158084780Y-71423328D02*
X157084780Y-71423328D01*
X157227638Y-71518566D01*
X157322876Y-71613804D01*
X157370495Y-71709042D01*
G04 #@! TO.C,RV2*
X135059680Y-73048738D02*
X134583490Y-73382071D01*
X135059680Y-73620166D02*
X134059680Y-73620166D01*
X134059680Y-73239214D01*
X134107300Y-73143976D01*
X134154919Y-73096357D01*
X134250157Y-73048738D01*
X134393014Y-73048738D01*
X134488252Y-73096357D01*
X134535871Y-73143976D01*
X134583490Y-73239214D01*
X134583490Y-73620166D01*
X134059680Y-72763023D02*
X135059680Y-72429690D01*
X134059680Y-72096357D01*
X134154919Y-71810642D02*
X134107300Y-71763023D01*
X134059680Y-71667785D01*
X134059680Y-71429690D01*
X134107300Y-71334452D01*
X134154919Y-71286833D01*
X134250157Y-71239214D01*
X134345395Y-71239214D01*
X134488252Y-71286833D01*
X135059680Y-71858261D01*
X135059680Y-71239214D01*
G04 #@! TO.C,U1*
X139268295Y-84288380D02*
X139268295Y-85097904D01*
X139315914Y-85193142D01*
X139363533Y-85240761D01*
X139458771Y-85288380D01*
X139649247Y-85288380D01*
X139744485Y-85240761D01*
X139792104Y-85193142D01*
X139839723Y-85097904D01*
X139839723Y-84288380D01*
X140839723Y-85288380D02*
X140268295Y-85288380D01*
X140554009Y-85288380D02*
X140554009Y-84288380D01*
X140458771Y-84431238D01*
X140363533Y-84526476D01*
X140268295Y-84574095D01*
G04 #@! TO.C,IN+*
X110121819Y-83919642D02*
X111121819Y-83919642D01*
X110121819Y-84395833D02*
X111121819Y-84395833D01*
X110121819Y-84967261D01*
X111121819Y-84967261D01*
X110502771Y-85443452D02*
X110502771Y-86205357D01*
X110121819Y-85824404D02*
X110883723Y-85824404D01*
G04 #@! TO.C,Q1*
X137013961Y-87277819D02*
X136918723Y-87230200D01*
X136823485Y-87134961D01*
X136680628Y-86992104D01*
X136585390Y-86944485D01*
X136490152Y-86944485D01*
X136537771Y-87182580D02*
X136442533Y-87134961D01*
X136347295Y-87039723D01*
X136299676Y-86849247D01*
X136299676Y-86515914D01*
X136347295Y-86325438D01*
X136442533Y-86230200D01*
X136537771Y-86182580D01*
X136728247Y-86182580D01*
X136823485Y-86230200D01*
X136918723Y-86325438D01*
X136966342Y-86515914D01*
X136966342Y-86849247D01*
X136918723Y-87039723D01*
X136823485Y-87134961D01*
X136728247Y-87182580D01*
X136537771Y-87182580D01*
X137918723Y-87182580D02*
X137347295Y-87182580D01*
X137633009Y-87182580D02*
X137633009Y-86182580D01*
X137537771Y-86325438D01*
X137442533Y-86420676D01*
X137347295Y-86468295D01*
G04 #@! TD*
M02*
