G04 #@! TF.GenerationSoftware,KiCad,Pcbnew,5.0.2-bee76a0~70~ubuntu18.04.1*
G04 #@! TF.CreationDate,2019-01-01T14:35:21-08:00*
G04 #@! TF.ProjectId,Buck_Converter_V1,4275636b-5f43-46f6-9e76-65727465725f,rev?*
G04 #@! TF.SameCoordinates,Original*
G04 #@! TF.FileFunction,Soldermask,Top*
G04 #@! TF.FilePolarity,Negative*
%FSLAX46Y46*%
G04 Gerber Fmt 4.6, Leading zero omitted, Abs format (unit mm)*
G04 Created by KiCad (PCBNEW 5.0.2-bee76a0~70~ubuntu18.04.1) date Tue 01 Jan 2019 02:35:21 PM PST*
%MOMM*%
%LPD*%
G01*
G04 APERTURE LIST*
%ADD10C,0.100000*%
G04 APERTURE END LIST*
D10*
G36*
X114701000Y-104901000D02*
X112899000Y-104901000D01*
X112899000Y-103099000D01*
X114701000Y-103099000D01*
X114701000Y-104901000D01*
X114701000Y-104901000D01*
G37*
G36*
X179701000Y-104901000D02*
X177899000Y-104901000D01*
X177899000Y-103099000D01*
X179701000Y-103099000D01*
X179701000Y-104901000D01*
X179701000Y-104901000D01*
G37*
G36*
X168983900Y-102386900D02*
X166981900Y-102386900D01*
X166981900Y-98084900D01*
X168983900Y-98084900D01*
X168983900Y-102386900D01*
X168983900Y-102386900D01*
G37*
G36*
X128280400Y-101294700D02*
X126278400Y-101294700D01*
X126278400Y-96992700D01*
X128280400Y-96992700D01*
X128280400Y-101294700D01*
X128280400Y-101294700D01*
G37*
G36*
X143711700Y-100643200D02*
X141809700Y-100643200D01*
X141809700Y-97041200D01*
X143711700Y-97041200D01*
X143711700Y-100643200D01*
X143711700Y-100643200D01*
G37*
G36*
X179701000Y-99401000D02*
X177899000Y-99401000D01*
X177899000Y-97599000D01*
X179701000Y-97599000D01*
X179701000Y-99401000D01*
X179701000Y-99401000D01*
G37*
G36*
X114701000Y-99401000D02*
X112899000Y-99401000D01*
X112899000Y-97599000D01*
X114701000Y-97599000D01*
X114701000Y-99401000D01*
X114701000Y-99401000D01*
G37*
G36*
X143711700Y-95643200D02*
X141809700Y-95643200D01*
X141809700Y-92041200D01*
X143711700Y-92041200D01*
X143711700Y-95643200D01*
X143711700Y-95643200D01*
G37*
G36*
X160095600Y-95613400D02*
X157093600Y-95613400D01*
X157093600Y-90111400D01*
X160095600Y-90111400D01*
X160095600Y-95613400D01*
X160095600Y-95613400D01*
G37*
G36*
X150195600Y-95613400D02*
X147193600Y-95613400D01*
X147193600Y-90111400D01*
X150195600Y-90111400D01*
X150195600Y-95613400D01*
X150195600Y-95613400D01*
G37*
G36*
X168983900Y-95386900D02*
X166981900Y-95386900D01*
X166981900Y-91084900D01*
X168983900Y-91084900D01*
X168983900Y-95386900D01*
X168983900Y-95386900D01*
G37*
G36*
X128280400Y-94294700D02*
X126278400Y-94294700D01*
X126278400Y-89992700D01*
X128280400Y-89992700D01*
X128280400Y-94294700D01*
X128280400Y-94294700D01*
G37*
G36*
X179701000Y-91781000D02*
X177899000Y-91781000D01*
X177899000Y-89979000D01*
X179701000Y-89979000D01*
X179701000Y-91781000D01*
X179701000Y-91781000D01*
G37*
G36*
X133358899Y-89520945D02*
X133396393Y-89532319D01*
X133430957Y-89550794D01*
X133461247Y-89575653D01*
X133486106Y-89605943D01*
X133504581Y-89640507D01*
X133515955Y-89678001D01*
X133520400Y-89723138D01*
X133520400Y-90461862D01*
X133515955Y-90506999D01*
X133504581Y-90544493D01*
X133486106Y-90579057D01*
X133461247Y-90609347D01*
X133430957Y-90634206D01*
X133396393Y-90652681D01*
X133358899Y-90664055D01*
X133313762Y-90668500D01*
X132675038Y-90668500D01*
X132629901Y-90664055D01*
X132592407Y-90652681D01*
X132557843Y-90634206D01*
X132527553Y-90609347D01*
X132502694Y-90579057D01*
X132484219Y-90544493D01*
X132472845Y-90506999D01*
X132468400Y-90461862D01*
X132468400Y-89723138D01*
X132472845Y-89678001D01*
X132484219Y-89640507D01*
X132502694Y-89605943D01*
X132527553Y-89575653D01*
X132557843Y-89550794D01*
X132592407Y-89532319D01*
X132629901Y-89520945D01*
X132675038Y-89516500D01*
X133313762Y-89516500D01*
X133358899Y-89520945D01*
X133358899Y-89520945D01*
G37*
G36*
X120392199Y-89508245D02*
X120429693Y-89519619D01*
X120464257Y-89538094D01*
X120494547Y-89562953D01*
X120519406Y-89593243D01*
X120537881Y-89627807D01*
X120549255Y-89665301D01*
X120553700Y-89710438D01*
X120553700Y-90449162D01*
X120549255Y-90494299D01*
X120537881Y-90531793D01*
X120519406Y-90566357D01*
X120494547Y-90596647D01*
X120464257Y-90621506D01*
X120429693Y-90639981D01*
X120392199Y-90651355D01*
X120347062Y-90655800D01*
X119708338Y-90655800D01*
X119663201Y-90651355D01*
X119625707Y-90639981D01*
X119591143Y-90621506D01*
X119560853Y-90596647D01*
X119535994Y-90566357D01*
X119517519Y-90531793D01*
X119506145Y-90494299D01*
X119501700Y-90449162D01*
X119501700Y-89710438D01*
X119506145Y-89665301D01*
X119517519Y-89627807D01*
X119535994Y-89593243D01*
X119560853Y-89562953D01*
X119591143Y-89538094D01*
X119625707Y-89519619D01*
X119663201Y-89508245D01*
X119708338Y-89503800D01*
X120347062Y-89503800D01*
X120392199Y-89508245D01*
X120392199Y-89508245D01*
G37*
G36*
X136610200Y-90631200D02*
X134608200Y-90631200D01*
X134608200Y-89729200D01*
X136610200Y-89729200D01*
X136610200Y-90631200D01*
X136610200Y-90631200D01*
G37*
G36*
X139610200Y-89681200D02*
X137608200Y-89681200D01*
X137608200Y-88779200D01*
X139610200Y-88779200D01*
X139610200Y-89681200D01*
X139610200Y-89681200D01*
G37*
G36*
X133358899Y-87770945D02*
X133396393Y-87782319D01*
X133430957Y-87800794D01*
X133461247Y-87825653D01*
X133486106Y-87855943D01*
X133504581Y-87890507D01*
X133515955Y-87928001D01*
X133520400Y-87973138D01*
X133520400Y-88711862D01*
X133515955Y-88756999D01*
X133504581Y-88794493D01*
X133486106Y-88829057D01*
X133461247Y-88859347D01*
X133430957Y-88884206D01*
X133396393Y-88902681D01*
X133358899Y-88914055D01*
X133313762Y-88918500D01*
X132675038Y-88918500D01*
X132629901Y-88914055D01*
X132592407Y-88902681D01*
X132557843Y-88884206D01*
X132527553Y-88859347D01*
X132502694Y-88829057D01*
X132484219Y-88794493D01*
X132472845Y-88756999D01*
X132468400Y-88711862D01*
X132468400Y-87973138D01*
X132472845Y-87928001D01*
X132484219Y-87890507D01*
X132502694Y-87855943D01*
X132527553Y-87825653D01*
X132557843Y-87800794D01*
X132592407Y-87782319D01*
X132629901Y-87770945D01*
X132675038Y-87766500D01*
X133313762Y-87766500D01*
X133358899Y-87770945D01*
X133358899Y-87770945D01*
G37*
G36*
X120392199Y-87758245D02*
X120429693Y-87769619D01*
X120464257Y-87788094D01*
X120494547Y-87812953D01*
X120519406Y-87843243D01*
X120537881Y-87877807D01*
X120549255Y-87915301D01*
X120553700Y-87960438D01*
X120553700Y-88699162D01*
X120549255Y-88744299D01*
X120537881Y-88781793D01*
X120519406Y-88816357D01*
X120494547Y-88846647D01*
X120464257Y-88871506D01*
X120429693Y-88889981D01*
X120392199Y-88901355D01*
X120347062Y-88905800D01*
X119708338Y-88905800D01*
X119663201Y-88901355D01*
X119625707Y-88889981D01*
X119591143Y-88871506D01*
X119560853Y-88846647D01*
X119535994Y-88816357D01*
X119517519Y-88781793D01*
X119506145Y-88744299D01*
X119501700Y-88699162D01*
X119501700Y-87960438D01*
X119506145Y-87915301D01*
X119517519Y-87877807D01*
X119535994Y-87843243D01*
X119560853Y-87812953D01*
X119591143Y-87788094D01*
X119625707Y-87769619D01*
X119663201Y-87758245D01*
X119708338Y-87753800D01*
X120347062Y-87753800D01*
X120392199Y-87758245D01*
X120392199Y-87758245D01*
G37*
G36*
X136610200Y-88731200D02*
X134608200Y-88731200D01*
X134608200Y-87829200D01*
X136610200Y-87829200D01*
X136610200Y-88731200D01*
X136610200Y-88731200D01*
G37*
G36*
X114701000Y-86701000D02*
X112899000Y-86701000D01*
X112899000Y-84899000D01*
X114701000Y-84899000D01*
X114701000Y-86701000D01*
X114701000Y-86701000D01*
G37*
G36*
X179701000Y-86281000D02*
X177899000Y-86281000D01*
X177899000Y-84479000D01*
X179701000Y-84479000D01*
X179701000Y-86281000D01*
X179701000Y-86281000D01*
G37*
G36*
X129104399Y-83348745D02*
X129141893Y-83360119D01*
X129176457Y-83378594D01*
X129206747Y-83403453D01*
X129231606Y-83433743D01*
X129250081Y-83468307D01*
X129261455Y-83505801D01*
X129265900Y-83550938D01*
X129265900Y-84289662D01*
X129261455Y-84334799D01*
X129250081Y-84372293D01*
X129231606Y-84406857D01*
X129206747Y-84437147D01*
X129176457Y-84462006D01*
X129141893Y-84480481D01*
X129104399Y-84491855D01*
X129059262Y-84496300D01*
X128420538Y-84496300D01*
X128375401Y-84491855D01*
X128337907Y-84480481D01*
X128303343Y-84462006D01*
X128273053Y-84437147D01*
X128248194Y-84406857D01*
X128229719Y-84372293D01*
X128218345Y-84334799D01*
X128213900Y-84289662D01*
X128213900Y-83550938D01*
X128218345Y-83505801D01*
X128229719Y-83468307D01*
X128248194Y-83433743D01*
X128273053Y-83403453D01*
X128303343Y-83378594D01*
X128337907Y-83360119D01*
X128375401Y-83348745D01*
X128420538Y-83344300D01*
X129059262Y-83344300D01*
X129104399Y-83348745D01*
X129104399Y-83348745D01*
G37*
G36*
X135124199Y-83323345D02*
X135161693Y-83334719D01*
X135196257Y-83353194D01*
X135226547Y-83378053D01*
X135251406Y-83408343D01*
X135269881Y-83442907D01*
X135281255Y-83480401D01*
X135285700Y-83525538D01*
X135285700Y-84264262D01*
X135281255Y-84309399D01*
X135269881Y-84346893D01*
X135251406Y-84381457D01*
X135226547Y-84411747D01*
X135196257Y-84436606D01*
X135161693Y-84455081D01*
X135124199Y-84466455D01*
X135079062Y-84470900D01*
X134440338Y-84470900D01*
X134395201Y-84466455D01*
X134357707Y-84455081D01*
X134323143Y-84436606D01*
X134292853Y-84411747D01*
X134267994Y-84381457D01*
X134249519Y-84346893D01*
X134238145Y-84309399D01*
X134233700Y-84264262D01*
X134233700Y-83525538D01*
X134238145Y-83480401D01*
X134249519Y-83442907D01*
X134267994Y-83408343D01*
X134292853Y-83378053D01*
X134323143Y-83353194D01*
X134357707Y-83334719D01*
X134395201Y-83323345D01*
X134440338Y-83318900D01*
X135079062Y-83318900D01*
X135124199Y-83323345D01*
X135124199Y-83323345D01*
G37*
G36*
X150755799Y-83222245D02*
X150793293Y-83233619D01*
X150827857Y-83252094D01*
X150858147Y-83276953D01*
X150883006Y-83307243D01*
X150901481Y-83341807D01*
X150912855Y-83379301D01*
X150917300Y-83424438D01*
X150917300Y-84063162D01*
X150912855Y-84108299D01*
X150901481Y-84145793D01*
X150883006Y-84180357D01*
X150858147Y-84210647D01*
X150827857Y-84235506D01*
X150793293Y-84253981D01*
X150755799Y-84265355D01*
X150710662Y-84269800D01*
X149971938Y-84269800D01*
X149926801Y-84265355D01*
X149889307Y-84253981D01*
X149854743Y-84235506D01*
X149824453Y-84210647D01*
X149799594Y-84180357D01*
X149781119Y-84145793D01*
X149769745Y-84108299D01*
X149765300Y-84063162D01*
X149765300Y-83424438D01*
X149769745Y-83379301D01*
X149781119Y-83341807D01*
X149799594Y-83307243D01*
X149824453Y-83276953D01*
X149854743Y-83252094D01*
X149889307Y-83233619D01*
X149926801Y-83222245D01*
X149971938Y-83217800D01*
X150710662Y-83217800D01*
X150755799Y-83222245D01*
X150755799Y-83222245D01*
G37*
G36*
X149005799Y-83222245D02*
X149043293Y-83233619D01*
X149077857Y-83252094D01*
X149108147Y-83276953D01*
X149133006Y-83307243D01*
X149151481Y-83341807D01*
X149162855Y-83379301D01*
X149167300Y-83424438D01*
X149167300Y-84063162D01*
X149162855Y-84108299D01*
X149151481Y-84145793D01*
X149133006Y-84180357D01*
X149108147Y-84210647D01*
X149077857Y-84235506D01*
X149043293Y-84253981D01*
X149005799Y-84265355D01*
X148960662Y-84269800D01*
X148221938Y-84269800D01*
X148176801Y-84265355D01*
X148139307Y-84253981D01*
X148104743Y-84235506D01*
X148074453Y-84210647D01*
X148049594Y-84180357D01*
X148031119Y-84145793D01*
X148019745Y-84108299D01*
X148015300Y-84063162D01*
X148015300Y-83424438D01*
X148019745Y-83379301D01*
X148031119Y-83341807D01*
X148049594Y-83307243D01*
X148074453Y-83276953D01*
X148104743Y-83252094D01*
X148139307Y-83233619D01*
X148176801Y-83222245D01*
X148221938Y-83217800D01*
X148960662Y-83217800D01*
X149005799Y-83222245D01*
X149005799Y-83222245D01*
G37*
G36*
X143505400Y-83332800D02*
X141853400Y-83332800D01*
X141853400Y-82630800D01*
X143505400Y-82630800D01*
X143505400Y-83332800D01*
X143505400Y-83332800D01*
G37*
G36*
X138105400Y-83332800D02*
X136453400Y-83332800D01*
X136453400Y-82630800D01*
X138105400Y-82630800D01*
X138105400Y-83332800D01*
X138105400Y-83332800D01*
G37*
G36*
X129104399Y-81598745D02*
X129141893Y-81610119D01*
X129176457Y-81628594D01*
X129206747Y-81653453D01*
X129231606Y-81683743D01*
X129250081Y-81718307D01*
X129261455Y-81755801D01*
X129265900Y-81800938D01*
X129265900Y-82539662D01*
X129261455Y-82584799D01*
X129250081Y-82622293D01*
X129231606Y-82656857D01*
X129206747Y-82687147D01*
X129176457Y-82712006D01*
X129141893Y-82730481D01*
X129104399Y-82741855D01*
X129059262Y-82746300D01*
X128420538Y-82746300D01*
X128375401Y-82741855D01*
X128337907Y-82730481D01*
X128303343Y-82712006D01*
X128273053Y-82687147D01*
X128248194Y-82656857D01*
X128229719Y-82622293D01*
X128218345Y-82584799D01*
X128213900Y-82539662D01*
X128213900Y-81800938D01*
X128218345Y-81755801D01*
X128229719Y-81718307D01*
X128248194Y-81683743D01*
X128273053Y-81653453D01*
X128303343Y-81628594D01*
X128337907Y-81610119D01*
X128375401Y-81598745D01*
X128420538Y-81594300D01*
X129059262Y-81594300D01*
X129104399Y-81598745D01*
X129104399Y-81598745D01*
G37*
G36*
X135124199Y-81573345D02*
X135161693Y-81584719D01*
X135196257Y-81603194D01*
X135226547Y-81628053D01*
X135251406Y-81658343D01*
X135269881Y-81692907D01*
X135281255Y-81730401D01*
X135285700Y-81775538D01*
X135285700Y-82514262D01*
X135281255Y-82559399D01*
X135269881Y-82596893D01*
X135251406Y-82631457D01*
X135226547Y-82661747D01*
X135196257Y-82686606D01*
X135161693Y-82705081D01*
X135124199Y-82716455D01*
X135079062Y-82720900D01*
X134440338Y-82720900D01*
X134395201Y-82716455D01*
X134357707Y-82705081D01*
X134323143Y-82686606D01*
X134292853Y-82661747D01*
X134267994Y-82631457D01*
X134249519Y-82596893D01*
X134238145Y-82559399D01*
X134233700Y-82514262D01*
X134233700Y-81775538D01*
X134238145Y-81730401D01*
X134249519Y-81692907D01*
X134267994Y-81658343D01*
X134292853Y-81628053D01*
X134323143Y-81603194D01*
X134357707Y-81584719D01*
X134395201Y-81573345D01*
X134440338Y-81568900D01*
X135079062Y-81568900D01*
X135124199Y-81573345D01*
X135124199Y-81573345D01*
G37*
G36*
X131314699Y-81609345D02*
X131352193Y-81620719D01*
X131386757Y-81639194D01*
X131417047Y-81664053D01*
X131441906Y-81694343D01*
X131460381Y-81728907D01*
X131471755Y-81766401D01*
X131476200Y-81811538D01*
X131476200Y-82450262D01*
X131471755Y-82495399D01*
X131460381Y-82532893D01*
X131441906Y-82567457D01*
X131417047Y-82597747D01*
X131386757Y-82622606D01*
X131352193Y-82641081D01*
X131314699Y-82652455D01*
X131269562Y-82656900D01*
X130530838Y-82656900D01*
X130485701Y-82652455D01*
X130448207Y-82641081D01*
X130413643Y-82622606D01*
X130383353Y-82597747D01*
X130358494Y-82567457D01*
X130340019Y-82532893D01*
X130328645Y-82495399D01*
X130324200Y-82450262D01*
X130324200Y-81811538D01*
X130328645Y-81766401D01*
X130340019Y-81728907D01*
X130358494Y-81694343D01*
X130383353Y-81664053D01*
X130413643Y-81639194D01*
X130448207Y-81620719D01*
X130485701Y-81609345D01*
X130530838Y-81604900D01*
X131269562Y-81604900D01*
X131314699Y-81609345D01*
X131314699Y-81609345D01*
G37*
G36*
X133064699Y-81609345D02*
X133102193Y-81620719D01*
X133136757Y-81639194D01*
X133167047Y-81664053D01*
X133191906Y-81694343D01*
X133210381Y-81728907D01*
X133221755Y-81766401D01*
X133226200Y-81811538D01*
X133226200Y-82450262D01*
X133221755Y-82495399D01*
X133210381Y-82532893D01*
X133191906Y-82567457D01*
X133167047Y-82597747D01*
X133136757Y-82622606D01*
X133102193Y-82641081D01*
X133064699Y-82652455D01*
X133019562Y-82656900D01*
X132280838Y-82656900D01*
X132235701Y-82652455D01*
X132198207Y-82641081D01*
X132163643Y-82622606D01*
X132133353Y-82597747D01*
X132108494Y-82567457D01*
X132090019Y-82532893D01*
X132078645Y-82495399D01*
X132074200Y-82450262D01*
X132074200Y-81811538D01*
X132078645Y-81766401D01*
X132090019Y-81728907D01*
X132108494Y-81694343D01*
X132133353Y-81664053D01*
X132163643Y-81639194D01*
X132198207Y-81620719D01*
X132235701Y-81609345D01*
X132280838Y-81604900D01*
X133019562Y-81604900D01*
X133064699Y-81609345D01*
X133064699Y-81609345D01*
G37*
G36*
X150755799Y-81368045D02*
X150793293Y-81379419D01*
X150827857Y-81397894D01*
X150858147Y-81422753D01*
X150883006Y-81453043D01*
X150901481Y-81487607D01*
X150912855Y-81525101D01*
X150917300Y-81570238D01*
X150917300Y-82208962D01*
X150912855Y-82254099D01*
X150901481Y-82291593D01*
X150883006Y-82326157D01*
X150858147Y-82356447D01*
X150827857Y-82381306D01*
X150793293Y-82399781D01*
X150755799Y-82411155D01*
X150710662Y-82415600D01*
X149971938Y-82415600D01*
X149926801Y-82411155D01*
X149889307Y-82399781D01*
X149854743Y-82381306D01*
X149824453Y-82356447D01*
X149799594Y-82326157D01*
X149781119Y-82291593D01*
X149769745Y-82254099D01*
X149765300Y-82208962D01*
X149765300Y-81570238D01*
X149769745Y-81525101D01*
X149781119Y-81487607D01*
X149799594Y-81453043D01*
X149824453Y-81422753D01*
X149854743Y-81397894D01*
X149889307Y-81379419D01*
X149926801Y-81368045D01*
X149971938Y-81363600D01*
X150710662Y-81363600D01*
X150755799Y-81368045D01*
X150755799Y-81368045D01*
G37*
G36*
X149005799Y-81368045D02*
X149043293Y-81379419D01*
X149077857Y-81397894D01*
X149108147Y-81422753D01*
X149133006Y-81453043D01*
X149151481Y-81487607D01*
X149162855Y-81525101D01*
X149167300Y-81570238D01*
X149167300Y-82208962D01*
X149162855Y-82254099D01*
X149151481Y-82291593D01*
X149133006Y-82326157D01*
X149108147Y-82356447D01*
X149077857Y-82381306D01*
X149043293Y-82399781D01*
X149005799Y-82411155D01*
X148960662Y-82415600D01*
X148221938Y-82415600D01*
X148176801Y-82411155D01*
X148139307Y-82399781D01*
X148104743Y-82381306D01*
X148074453Y-82356447D01*
X148049594Y-82326157D01*
X148031119Y-82291593D01*
X148019745Y-82254099D01*
X148015300Y-82208962D01*
X148015300Y-81570238D01*
X148019745Y-81525101D01*
X148031119Y-81487607D01*
X148049594Y-81453043D01*
X148074453Y-81422753D01*
X148104743Y-81397894D01*
X148139307Y-81379419D01*
X148176801Y-81368045D01*
X148221938Y-81363600D01*
X148960662Y-81363600D01*
X149005799Y-81368045D01*
X149005799Y-81368045D01*
G37*
G36*
X143505400Y-82062800D02*
X141853400Y-82062800D01*
X141853400Y-81360800D01*
X143505400Y-81360800D01*
X143505400Y-82062800D01*
X143505400Y-82062800D01*
G37*
G36*
X138105400Y-82062800D02*
X136453400Y-82062800D01*
X136453400Y-81360800D01*
X138105400Y-81360800D01*
X138105400Y-82062800D01*
X138105400Y-82062800D01*
G37*
G36*
X114701000Y-81201000D02*
X112899000Y-81201000D01*
X112899000Y-79399000D01*
X114701000Y-79399000D01*
X114701000Y-81201000D01*
X114701000Y-81201000D01*
G37*
G36*
X138105400Y-80792800D02*
X136453400Y-80792800D01*
X136453400Y-80090800D01*
X138105400Y-80090800D01*
X138105400Y-80792800D01*
X138105400Y-80792800D01*
G37*
G36*
X143505400Y-80792800D02*
X141853400Y-80792800D01*
X141853400Y-80090800D01*
X143505400Y-80090800D01*
X143505400Y-80792800D01*
X143505400Y-80792800D01*
G37*
G36*
X127504699Y-79526545D02*
X127542193Y-79537919D01*
X127576757Y-79556394D01*
X127607047Y-79581253D01*
X127631906Y-79611543D01*
X127650381Y-79646107D01*
X127661755Y-79683601D01*
X127666200Y-79728738D01*
X127666200Y-80367462D01*
X127661755Y-80412599D01*
X127650381Y-80450093D01*
X127631906Y-80484657D01*
X127607047Y-80514947D01*
X127576757Y-80539806D01*
X127542193Y-80558281D01*
X127504699Y-80569655D01*
X127459562Y-80574100D01*
X126720838Y-80574100D01*
X126675701Y-80569655D01*
X126638207Y-80558281D01*
X126603643Y-80539806D01*
X126573353Y-80514947D01*
X126548494Y-80484657D01*
X126530019Y-80450093D01*
X126518645Y-80412599D01*
X126514200Y-80367462D01*
X126514200Y-79728738D01*
X126518645Y-79683601D01*
X126530019Y-79646107D01*
X126548494Y-79611543D01*
X126573353Y-79581253D01*
X126603643Y-79556394D01*
X126638207Y-79537919D01*
X126675701Y-79526545D01*
X126720838Y-79522100D01*
X127459562Y-79522100D01*
X127504699Y-79526545D01*
X127504699Y-79526545D01*
G37*
G36*
X129254699Y-79526545D02*
X129292193Y-79537919D01*
X129326757Y-79556394D01*
X129357047Y-79581253D01*
X129381906Y-79611543D01*
X129400381Y-79646107D01*
X129411755Y-79683601D01*
X129416200Y-79728738D01*
X129416200Y-80367462D01*
X129411755Y-80412599D01*
X129400381Y-80450093D01*
X129381906Y-80484657D01*
X129357047Y-80514947D01*
X129326757Y-80539806D01*
X129292193Y-80558281D01*
X129254699Y-80569655D01*
X129209562Y-80574100D01*
X128470838Y-80574100D01*
X128425701Y-80569655D01*
X128388207Y-80558281D01*
X128353643Y-80539806D01*
X128323353Y-80514947D01*
X128298494Y-80484657D01*
X128280019Y-80450093D01*
X128268645Y-80412599D01*
X128264200Y-80367462D01*
X128264200Y-79728738D01*
X128268645Y-79683601D01*
X128280019Y-79646107D01*
X128298494Y-79611543D01*
X128323353Y-79581253D01*
X128353643Y-79556394D01*
X128388207Y-79537919D01*
X128425701Y-79526545D01*
X128470838Y-79522100D01*
X129209562Y-79522100D01*
X129254699Y-79526545D01*
X129254699Y-79526545D01*
G37*
G36*
X148993099Y-79526545D02*
X149030593Y-79537919D01*
X149065157Y-79556394D01*
X149095447Y-79581253D01*
X149120306Y-79611543D01*
X149138781Y-79646107D01*
X149150155Y-79683601D01*
X149154600Y-79728738D01*
X149154600Y-80367462D01*
X149150155Y-80412599D01*
X149138781Y-80450093D01*
X149120306Y-80484657D01*
X149095447Y-80514947D01*
X149065157Y-80539806D01*
X149030593Y-80558281D01*
X148993099Y-80569655D01*
X148947962Y-80574100D01*
X148209238Y-80574100D01*
X148164101Y-80569655D01*
X148126607Y-80558281D01*
X148092043Y-80539806D01*
X148061753Y-80514947D01*
X148036894Y-80484657D01*
X148018419Y-80450093D01*
X148007045Y-80412599D01*
X148002600Y-80367462D01*
X148002600Y-79728738D01*
X148007045Y-79683601D01*
X148018419Y-79646107D01*
X148036894Y-79611543D01*
X148061753Y-79581253D01*
X148092043Y-79556394D01*
X148126607Y-79537919D01*
X148164101Y-79526545D01*
X148209238Y-79522100D01*
X148947962Y-79522100D01*
X148993099Y-79526545D01*
X148993099Y-79526545D01*
G37*
G36*
X150743099Y-79526545D02*
X150780593Y-79537919D01*
X150815157Y-79556394D01*
X150845447Y-79581253D01*
X150870306Y-79611543D01*
X150888781Y-79646107D01*
X150900155Y-79683601D01*
X150904600Y-79728738D01*
X150904600Y-80367462D01*
X150900155Y-80412599D01*
X150888781Y-80450093D01*
X150870306Y-80484657D01*
X150845447Y-80514947D01*
X150815157Y-80539806D01*
X150780593Y-80558281D01*
X150743099Y-80569655D01*
X150697962Y-80574100D01*
X149959238Y-80574100D01*
X149914101Y-80569655D01*
X149876607Y-80558281D01*
X149842043Y-80539806D01*
X149811753Y-80514947D01*
X149786894Y-80484657D01*
X149768419Y-80450093D01*
X149757045Y-80412599D01*
X149752600Y-80367462D01*
X149752600Y-79728738D01*
X149757045Y-79683601D01*
X149768419Y-79646107D01*
X149786894Y-79611543D01*
X149811753Y-79581253D01*
X149842043Y-79556394D01*
X149876607Y-79537919D01*
X149914101Y-79526545D01*
X149959238Y-79522100D01*
X150697962Y-79522100D01*
X150743099Y-79526545D01*
X150743099Y-79526545D01*
G37*
G36*
X131207633Y-79386345D02*
X131245127Y-79397719D01*
X131279691Y-79416194D01*
X131309981Y-79441053D01*
X131334840Y-79471343D01*
X131353315Y-79505907D01*
X131364689Y-79543401D01*
X131369134Y-79588538D01*
X131369134Y-80327262D01*
X131364689Y-80372399D01*
X131353315Y-80409893D01*
X131334840Y-80444457D01*
X131309981Y-80474747D01*
X131279691Y-80499606D01*
X131245127Y-80518081D01*
X131207633Y-80529455D01*
X131162496Y-80533900D01*
X130523772Y-80533900D01*
X130478635Y-80529455D01*
X130441141Y-80518081D01*
X130406577Y-80499606D01*
X130376287Y-80474747D01*
X130351428Y-80444457D01*
X130332953Y-80409893D01*
X130321579Y-80372399D01*
X130317134Y-80327262D01*
X130317134Y-79588538D01*
X130321579Y-79543401D01*
X130332953Y-79505907D01*
X130351428Y-79471343D01*
X130376287Y-79441053D01*
X130406577Y-79416194D01*
X130441141Y-79397719D01*
X130478635Y-79386345D01*
X130523772Y-79381900D01*
X131162496Y-79381900D01*
X131207633Y-79386345D01*
X131207633Y-79386345D01*
G37*
G36*
X135149599Y-79360945D02*
X135187093Y-79372319D01*
X135221657Y-79390794D01*
X135251947Y-79415653D01*
X135276806Y-79445943D01*
X135295281Y-79480507D01*
X135306655Y-79518001D01*
X135311100Y-79563138D01*
X135311100Y-80301862D01*
X135306655Y-80346999D01*
X135295281Y-80384493D01*
X135276806Y-80419057D01*
X135251947Y-80449347D01*
X135221657Y-80474206D01*
X135187093Y-80492681D01*
X135149599Y-80504055D01*
X135104462Y-80508500D01*
X134465738Y-80508500D01*
X134420601Y-80504055D01*
X134383107Y-80492681D01*
X134348543Y-80474206D01*
X134318253Y-80449347D01*
X134293394Y-80419057D01*
X134274919Y-80384493D01*
X134263545Y-80346999D01*
X134259100Y-80301862D01*
X134259100Y-79563138D01*
X134263545Y-79518001D01*
X134274919Y-79480507D01*
X134293394Y-79445943D01*
X134318253Y-79415653D01*
X134348543Y-79390794D01*
X134383107Y-79372319D01*
X134420601Y-79360945D01*
X134465738Y-79356500D01*
X135104462Y-79356500D01*
X135149599Y-79360945D01*
X135149599Y-79360945D01*
G37*
G36*
X143505400Y-79522800D02*
X141853400Y-79522800D01*
X141853400Y-78820800D01*
X143505400Y-78820800D01*
X143505400Y-79522800D01*
X143505400Y-79522800D01*
G37*
G36*
X138105400Y-79522800D02*
X136453400Y-79522800D01*
X136453400Y-78820800D01*
X138105400Y-78820800D01*
X138105400Y-79522800D01*
X138105400Y-79522800D01*
G37*
G36*
X131207633Y-77636345D02*
X131245127Y-77647719D01*
X131279691Y-77666194D01*
X131309981Y-77691053D01*
X131334840Y-77721343D01*
X131353315Y-77755907D01*
X131364689Y-77793401D01*
X131369134Y-77838538D01*
X131369134Y-78577262D01*
X131364689Y-78622399D01*
X131353315Y-78659893D01*
X131334840Y-78694457D01*
X131309981Y-78724747D01*
X131279691Y-78749606D01*
X131245127Y-78768081D01*
X131207633Y-78779455D01*
X131162496Y-78783900D01*
X130523772Y-78783900D01*
X130478635Y-78779455D01*
X130441141Y-78768081D01*
X130406577Y-78749606D01*
X130376287Y-78724747D01*
X130351428Y-78694457D01*
X130332953Y-78659893D01*
X130321579Y-78622399D01*
X130317134Y-78577262D01*
X130317134Y-77838538D01*
X130321579Y-77793401D01*
X130332953Y-77755907D01*
X130351428Y-77721343D01*
X130376287Y-77691053D01*
X130406577Y-77666194D01*
X130441141Y-77647719D01*
X130478635Y-77636345D01*
X130523772Y-77631900D01*
X131162496Y-77631900D01*
X131207633Y-77636345D01*
X131207633Y-77636345D01*
G37*
G36*
X135149599Y-77610945D02*
X135187093Y-77622319D01*
X135221657Y-77640794D01*
X135251947Y-77665653D01*
X135276806Y-77695943D01*
X135295281Y-77730507D01*
X135306655Y-77768001D01*
X135311100Y-77813138D01*
X135311100Y-78551862D01*
X135306655Y-78596999D01*
X135295281Y-78634493D01*
X135276806Y-78669057D01*
X135251947Y-78699347D01*
X135221657Y-78724206D01*
X135187093Y-78742681D01*
X135149599Y-78754055D01*
X135104462Y-78758500D01*
X134465738Y-78758500D01*
X134420601Y-78754055D01*
X134383107Y-78742681D01*
X134348543Y-78724206D01*
X134318253Y-78699347D01*
X134293394Y-78669057D01*
X134274919Y-78634493D01*
X134263545Y-78596999D01*
X134259100Y-78551862D01*
X134259100Y-77813138D01*
X134263545Y-77768001D01*
X134274919Y-77730507D01*
X134293394Y-77695943D01*
X134318253Y-77665653D01*
X134348543Y-77640794D01*
X134383107Y-77622319D01*
X134420601Y-77610945D01*
X134465738Y-77606500D01*
X135104462Y-77606500D01*
X135149599Y-77610945D01*
X135149599Y-77610945D01*
G37*
G36*
X129229299Y-77621545D02*
X129266793Y-77632919D01*
X129301357Y-77651394D01*
X129331647Y-77676253D01*
X129356506Y-77706543D01*
X129374981Y-77741107D01*
X129386355Y-77778601D01*
X129390800Y-77823738D01*
X129390800Y-78462462D01*
X129386355Y-78507599D01*
X129374981Y-78545093D01*
X129356506Y-78579657D01*
X129331647Y-78609947D01*
X129301357Y-78634806D01*
X129266793Y-78653281D01*
X129229299Y-78664655D01*
X129184162Y-78669100D01*
X128445438Y-78669100D01*
X128400301Y-78664655D01*
X128362807Y-78653281D01*
X128328243Y-78634806D01*
X128297953Y-78609947D01*
X128273094Y-78579657D01*
X128254619Y-78545093D01*
X128243245Y-78507599D01*
X128238800Y-78462462D01*
X128238800Y-77823738D01*
X128243245Y-77778601D01*
X128254619Y-77741107D01*
X128273094Y-77706543D01*
X128297953Y-77676253D01*
X128328243Y-77651394D01*
X128362807Y-77632919D01*
X128400301Y-77621545D01*
X128445438Y-77617100D01*
X129184162Y-77617100D01*
X129229299Y-77621545D01*
X129229299Y-77621545D01*
G37*
G36*
X127479299Y-77621545D02*
X127516793Y-77632919D01*
X127551357Y-77651394D01*
X127581647Y-77676253D01*
X127606506Y-77706543D01*
X127624981Y-77741107D01*
X127636355Y-77778601D01*
X127640800Y-77823738D01*
X127640800Y-78462462D01*
X127636355Y-78507599D01*
X127624981Y-78545093D01*
X127606506Y-78579657D01*
X127581647Y-78609947D01*
X127551357Y-78634806D01*
X127516793Y-78653281D01*
X127479299Y-78664655D01*
X127434162Y-78669100D01*
X126695438Y-78669100D01*
X126650301Y-78664655D01*
X126612807Y-78653281D01*
X126578243Y-78634806D01*
X126547953Y-78609947D01*
X126523094Y-78579657D01*
X126504619Y-78545093D01*
X126493245Y-78507599D01*
X126488800Y-78462462D01*
X126488800Y-77823738D01*
X126493245Y-77778601D01*
X126504619Y-77741107D01*
X126523094Y-77706543D01*
X126547953Y-77676253D01*
X126578243Y-77651394D01*
X126612807Y-77632919D01*
X126650301Y-77621545D01*
X126695438Y-77617100D01*
X127434162Y-77617100D01*
X127479299Y-77621545D01*
X127479299Y-77621545D01*
G37*
G36*
X140689189Y-73267176D02*
X140788493Y-73286929D01*
X140928806Y-73345048D01*
X141055084Y-73429425D01*
X141162475Y-73536816D01*
X141246852Y-73663094D01*
X141304971Y-73803407D01*
X141334600Y-73952363D01*
X141334600Y-74104237D01*
X141304971Y-74253193D01*
X141246852Y-74393506D01*
X141162475Y-74519784D01*
X141055084Y-74627175D01*
X140928806Y-74711552D01*
X140788493Y-74769671D01*
X140689189Y-74789424D01*
X140639538Y-74799300D01*
X140487662Y-74799300D01*
X140438011Y-74789424D01*
X140338707Y-74769671D01*
X140198394Y-74711552D01*
X140072116Y-74627175D01*
X139964725Y-74519784D01*
X139880348Y-74393506D01*
X139822229Y-74253193D01*
X139792600Y-74104237D01*
X139792600Y-73952363D01*
X139822229Y-73803407D01*
X139880348Y-73663094D01*
X139964725Y-73536816D01*
X140072116Y-73429425D01*
X140198394Y-73345048D01*
X140338707Y-73286929D01*
X140438011Y-73267176D01*
X140487662Y-73257300D01*
X140639538Y-73257300D01*
X140689189Y-73267176D01*
X140689189Y-73267176D01*
G37*
G36*
X138149189Y-73267176D02*
X138248493Y-73286929D01*
X138388806Y-73345048D01*
X138515084Y-73429425D01*
X138622475Y-73536816D01*
X138706852Y-73663094D01*
X138764971Y-73803407D01*
X138794600Y-73952363D01*
X138794600Y-74104237D01*
X138764971Y-74253193D01*
X138706852Y-74393506D01*
X138622475Y-74519784D01*
X138515084Y-74627175D01*
X138388806Y-74711552D01*
X138248493Y-74769671D01*
X138149189Y-74789424D01*
X138099538Y-74799300D01*
X137947662Y-74799300D01*
X137898011Y-74789424D01*
X137798707Y-74769671D01*
X137658394Y-74711552D01*
X137532116Y-74627175D01*
X137424725Y-74519784D01*
X137340348Y-74393506D01*
X137282229Y-74253193D01*
X137252600Y-74104237D01*
X137252600Y-73952363D01*
X137282229Y-73803407D01*
X137340348Y-73663094D01*
X137424725Y-73536816D01*
X137532116Y-73429425D01*
X137658394Y-73345048D01*
X137798707Y-73286929D01*
X137898011Y-73267176D01*
X137947662Y-73257300D01*
X138099538Y-73257300D01*
X138149189Y-73267176D01*
X138149189Y-73267176D01*
G37*
G36*
X143229189Y-73267176D02*
X143328493Y-73286929D01*
X143468806Y-73345048D01*
X143595084Y-73429425D01*
X143702475Y-73536816D01*
X143786852Y-73663094D01*
X143844971Y-73803407D01*
X143874600Y-73952363D01*
X143874600Y-74104237D01*
X143844971Y-74253193D01*
X143786852Y-74393506D01*
X143702475Y-74519784D01*
X143595084Y-74627175D01*
X143468806Y-74711552D01*
X143328493Y-74769671D01*
X143229189Y-74789424D01*
X143179538Y-74799300D01*
X143027662Y-74799300D01*
X142978011Y-74789424D01*
X142878707Y-74769671D01*
X142738394Y-74711552D01*
X142612116Y-74627175D01*
X142504725Y-74519784D01*
X142420348Y-74393506D01*
X142362229Y-74253193D01*
X142332600Y-74104237D01*
X142332600Y-73952363D01*
X142362229Y-73803407D01*
X142420348Y-73663094D01*
X142504725Y-73536816D01*
X142612116Y-73429425D01*
X142738394Y-73345048D01*
X142878707Y-73286929D01*
X142978011Y-73267176D01*
X143027662Y-73257300D01*
X143179538Y-73257300D01*
X143229189Y-73267176D01*
X143229189Y-73267176D01*
G37*
G36*
X154163889Y-73254476D02*
X154263193Y-73274229D01*
X154403506Y-73332348D01*
X154529784Y-73416725D01*
X154637175Y-73524116D01*
X154721552Y-73650394D01*
X154779671Y-73790707D01*
X154809300Y-73939663D01*
X154809300Y-74091537D01*
X154779671Y-74240493D01*
X154721552Y-74380806D01*
X154637175Y-74507084D01*
X154529784Y-74614475D01*
X154403506Y-74698852D01*
X154263193Y-74756971D01*
X154199345Y-74769671D01*
X154114238Y-74786600D01*
X153962362Y-74786600D01*
X153877255Y-74769671D01*
X153813407Y-74756971D01*
X153673094Y-74698852D01*
X153546816Y-74614475D01*
X153439425Y-74507084D01*
X153355048Y-74380806D01*
X153296929Y-74240493D01*
X153267300Y-74091537D01*
X153267300Y-73939663D01*
X153296929Y-73790707D01*
X153355048Y-73650394D01*
X153439425Y-73524116D01*
X153546816Y-73416725D01*
X153673094Y-73332348D01*
X153813407Y-73274229D01*
X153912711Y-73254476D01*
X153962362Y-73244600D01*
X154114238Y-73244600D01*
X154163889Y-73254476D01*
X154163889Y-73254476D01*
G37*
G36*
X151623889Y-73254476D02*
X151723193Y-73274229D01*
X151863506Y-73332348D01*
X151989784Y-73416725D01*
X152097175Y-73524116D01*
X152181552Y-73650394D01*
X152239671Y-73790707D01*
X152269300Y-73939663D01*
X152269300Y-74091537D01*
X152239671Y-74240493D01*
X152181552Y-74380806D01*
X152097175Y-74507084D01*
X151989784Y-74614475D01*
X151863506Y-74698852D01*
X151723193Y-74756971D01*
X151659345Y-74769671D01*
X151574238Y-74786600D01*
X151422362Y-74786600D01*
X151337255Y-74769671D01*
X151273407Y-74756971D01*
X151133094Y-74698852D01*
X151006816Y-74614475D01*
X150899425Y-74507084D01*
X150815048Y-74380806D01*
X150756929Y-74240493D01*
X150727300Y-74091537D01*
X150727300Y-73939663D01*
X150756929Y-73790707D01*
X150815048Y-73650394D01*
X150899425Y-73524116D01*
X151006816Y-73416725D01*
X151133094Y-73332348D01*
X151273407Y-73274229D01*
X151372711Y-73254476D01*
X151422362Y-73244600D01*
X151574238Y-73244600D01*
X151623889Y-73254476D01*
X151623889Y-73254476D01*
G37*
G36*
X149083889Y-73254476D02*
X149183193Y-73274229D01*
X149323506Y-73332348D01*
X149449784Y-73416725D01*
X149557175Y-73524116D01*
X149641552Y-73650394D01*
X149699671Y-73790707D01*
X149729300Y-73939663D01*
X149729300Y-74091537D01*
X149699671Y-74240493D01*
X149641552Y-74380806D01*
X149557175Y-74507084D01*
X149449784Y-74614475D01*
X149323506Y-74698852D01*
X149183193Y-74756971D01*
X149119345Y-74769671D01*
X149034238Y-74786600D01*
X148882362Y-74786600D01*
X148797255Y-74769671D01*
X148733407Y-74756971D01*
X148593094Y-74698852D01*
X148466816Y-74614475D01*
X148359425Y-74507084D01*
X148275048Y-74380806D01*
X148216929Y-74240493D01*
X148187300Y-74091537D01*
X148187300Y-73939663D01*
X148216929Y-73790707D01*
X148275048Y-73650394D01*
X148359425Y-73524116D01*
X148466816Y-73416725D01*
X148593094Y-73332348D01*
X148733407Y-73274229D01*
X148832711Y-73254476D01*
X148882362Y-73244600D01*
X149034238Y-73244600D01*
X149083889Y-73254476D01*
X149083889Y-73254476D01*
G37*
M02*
