M48
;DRILL file {KiCad 5.0.2-bee76a0~70~ubuntu18.04.1} date Tue 01 Jan 2019 02:35:30 PM PST
;FORMAT={-:-/ absolute / inch / decimal}
FMAT,2
INCH,TZ
T1C0.0157
T2C0.0315
T3C0.0394
%
G90
G05
T1
X4.5875Y-3.956
X4.6Y-4.101
X4.7615Y-3.6315
X4.89Y-3.315
X5.0055Y-2.9865
X5.0095Y-4.0375
X5.1165Y-2.916
X5.137Y-3.3915
X5.236Y-3.1605
X5.361Y-3.8415
X5.372Y-3.048
X5.529Y-3.412
X5.623Y-4.0275
X5.671Y-3.353
X5.7195Y-3.061
X5.8925Y-3.9895
X5.9955Y-3.2265
X5.997Y-3.1525
X5.9985Y-3.3045
X6.157Y-3.333
X6.203Y-3.992
X6.4205Y-3.483
X6.6125Y-4.081
X6.9025Y-4.109
X6.9125Y-3.961
T2
X5.8645Y-2.914
X5.9645Y-2.914
X6.0645Y-2.914
X5.434Y-2.9145
X5.534Y-2.9145
X5.634Y-2.9145
T3
X7.0394Y-3.3614
X7.0394Y-3.878
X4.4803Y-3.1614
X7.0394Y-3.578
X4.4803Y-4.0945
X4.4803Y-3.378
X7.0394Y-4.0945
X4.4803Y-3.878
T0
M30
