M48
;DRILL file {KiCad 5.0.2-bee76a0~70~ubuntu18.04.1} date Wed 12 Dec 2018 05:35:28 PM PST
;FORMAT={-:-/ absolute / inch / decimal}
FMAT,2
INCH,TZ
T1C0.0079
T2C0.0157
T3C0.0197
T4C0.0217
T5C0.0256
T6C0.0315
T7C0.0354
T8C0.0394
%
G90
G05
T1
X6.5372Y-4.0262
X6.5372Y-4.0761
X6.5372Y-4.1259
X6.5372Y-4.1758
X6.5871Y-4.0262
X6.5871Y-4.0761
X6.5871Y-4.1259
X6.5871Y-4.1758
X6.6369Y-4.0262
X6.6369Y-4.0761
X6.6369Y-4.1259
X6.6369Y-4.1758
X6.6868Y-4.0262
X6.6868Y-4.0761
X6.6868Y-4.1259
X6.6868Y-4.1758
T2
X3.9975Y-4.53
X4.45Y-3.145
X4.47Y-4.5425
X4.5525Y-3.915
X4.5675Y-3.3175
X4.57Y-3.55
X4.5725Y-4.195
X4.5875Y-3.78
X4.72Y-3.675
X4.7225Y-3.8125
X4.7225Y-3.9925
X4.7225Y-4.12
X4.725Y-3.1
X4.725Y-3.7525
X4.725Y-3.87
X4.725Y-3.9325
X4.725Y-4.055
X4.725Y-4.185
X4.7275Y-4.24
X4.7625Y-4.3975
X4.9325Y-4.0225
X4.935Y-3.73
X4.935Y-4.0875
X4.935Y-4.15
X4.935Y-4.2125
X4.9375Y-4.2775
X4.94Y-4.405
X4.9625Y-3.4825
X4.965Y-3.605
X4.9775Y-3.78
X5.015Y-3.36
X5.03Y-3.9775
X5.0625Y-3.1225
X5.165Y-3.125
X5.215Y-4.2475
X5.2675Y-3.1325
X5.3625Y-3.0825
X5.3875Y-4.49
X5.39Y-3.4925
X5.415Y-3.6725
X5.42Y-4.0075
X5.4575Y-3.09
X5.48Y-4.1525
X5.5Y-4.3725
X5.53Y-3.645
X5.5575Y-3.1675
X5.5575Y-3.865
X5.595Y-3.4775
X5.6025Y-4.06
X5.6075Y-4.145
X5.6325Y-4.6
X5.66Y-3.1975
X5.665Y-4.3725
X5.74Y-4.3075
X5.7575Y-3.2275
X5.82Y-3.23
X5.82Y-4.715
X5.8225Y-4.3725
X5.8425Y-4.5325
X5.8525Y-4.145
X5.8825Y-4.31
X5.91Y-4.37
X5.9575Y-3.955
X6.01Y-3.24
X6.0225Y-4.3025
X6.0225Y-4.5775
X6.04Y-4.7075
X6.0475Y-4.53
X6.065Y-3.385
X6.1225Y-4.1625
X6.14Y-4.5806
X6.18Y-4.035
X6.1975Y-4.6125
X6.225Y-3.72
X6.225Y-4.245
X6.24Y-3.125
X6.24Y-3.4975
X6.26Y-4.255
X6.2838Y-4.2756
X6.285Y-3.8225
X6.302Y-4.2989
X6.3245Y-4.318
X6.334Y-3.916
X6.34Y-3.125
X6.3425Y-4.535
X6.3524Y-4.3275
X6.36Y-3.4975
X6.3675Y-4.7575
X6.38Y-4.6125
X6.3833Y-4.3258
X6.3903Y-3.9246
X6.3909Y-4.5388
X6.401Y-3.728
X6.41Y-3.435
X6.411Y-3.786
X6.4154Y-4.323
X6.4204Y-4.3521
X6.45Y-3.275
X6.45Y-4.355
X6.4525Y-3.1675
X6.4769Y-4.2632
X6.5Y-4.354
X6.5147Y-4.3902
X6.5325Y-3.1625
X6.5442Y-4.3892
X6.545Y-3.575
X6.568Y-4.3718
X6.5753Y-3.8538
X6.5753Y-3.9128
X6.59Y-4.352
X6.6142Y-4.3351
X6.6193Y-3.76
X6.6365Y-4.3157
X6.64Y-3.1575
X6.6488Y-3.76
X6.65Y-4.5125
X6.6637Y-4.3042
X6.6783Y-3.7601
X6.6882Y-4.2879
X6.7079Y-3.7599
X6.71Y-3.41
X6.7168Y-4.2714
X6.72Y-3.095
X6.73Y-4.245
X6.7342Y-3.8935
X6.7377Y-3.7592
X6.7675Y-4.26
X6.768Y-3.818
X6.7681Y-3.7581
X6.7975Y-4.72
X6.8Y-3.76
X6.814Y-3.816
X6.8187Y-4.2705
X6.8429Y-4.2297
X6.8459Y-4.2591
X6.8475Y-3.08
X6.8475Y-3.1875
X6.8491Y-4.2009
X6.868Y-3.774
X6.87Y-4.18
X6.89Y-3.355
X6.908Y-3.984
X6.908Y-4.034
X6.918Y-4.204
X6.98Y-3.605
X6.994Y-4.208
X7.016Y-3.898
X7.016Y-4.032
X7.0375Y-3.2125
X7.05Y-3.0375
X7.065Y-3.485
X7.068Y-4.208
X7.075Y-3.16
X7.08Y-3.6225
X7.0925Y-3.8725
X7.0925Y-3.95
X7.0925Y-4.025
X7.0925Y-4.265
X7.0925Y-4.3775
X7.0925Y-4.4825
X7.0925Y-4.605
X7.0925Y-4.7175
X7.1375Y-3.345
X7.155Y-3.13
X7.1625Y-3.4875
X7.19Y-3.8675
X7.295Y-3.8675
X7.3875Y-3.8675
T3
X4.6538Y-4.1994
T4
X4.6538Y-3.3136
X4.6538Y-3.3726
X4.6538Y-3.4317
X4.6538Y-3.4907
X4.6538Y-3.5498
X4.6538Y-3.6088
X4.6538Y-3.6679
X4.6538Y-3.7269
X4.6538Y-3.786
X4.6538Y-3.8451
X4.6538Y-3.9041
X4.6538Y-3.9632
X4.6538Y-4.0222
X4.6538Y-4.0813
X4.6538Y-4.1403
X4.6538Y-4.2584
T5
X6.09Y-4.735
X6.09Y-4.785
X6.14Y-4.735
X6.14Y-4.785
X6.19Y-4.735
X6.19Y-4.785
X6.24Y-4.735
X6.24Y-4.785
X6.29Y-4.735
X6.29Y-4.785
T7
X3.8966Y-4.669
X3.8966Y-4.799
X3.995Y-4.669
X3.995Y-4.799
X4.0934Y-4.669
X4.0934Y-4.799
X7.1466Y-3.681
X7.1466Y-3.811
X7.245Y-3.681
X7.245Y-3.811
X7.3434Y-3.681
X7.3434Y-3.811
X3.7503Y-2.9947
X3.7503Y-4.5773
X4.6597Y-2.9947
X4.6597Y-4.5773
T8
X5.146Y-3.935
X5.246Y-3.935
X4.385Y-4.7825
X4.485Y-4.7825
X4.585Y-4.7825
X4.685Y-4.7825
X4.785Y-4.7825
X4.885Y-4.7825
X4.985Y-4.7825
X5.085Y-4.7825
X5.185Y-4.7825
X5.285Y-4.7825
X6.5554Y-4.551
X6.5554Y-4.807
X6.7326Y-4.551
X6.7326Y-4.807
X6.8654Y-4.548
X6.8654Y-4.804
X7.0426Y-4.548
X7.0426Y-4.804
X5.146Y-3.767
X5.246Y-3.767
X7.274Y-3.433
X7.274Y-3.533
X4.805Y-3.015
X4.905Y-3.015
X5.005Y-3.015
X5.105Y-3.015
X5.205Y-3.015
X5.305Y-3.015
X5.405Y-3.015
X5.505Y-3.015
X5.605Y-3.015
X5.705Y-3.015
X5.146Y-4.1
X5.246Y-4.1
X5.144Y-3.608
X5.244Y-3.608
X5.485Y-4.7825
X5.585Y-4.7825
X5.685Y-4.7825
X5.785Y-4.7825
X5.142Y-3.449
X5.242Y-3.449
X5.885Y-3.015
X5.985Y-3.015
X6.085Y-3.015
X6.185Y-3.015
X6.285Y-3.015
X6.385Y-3.015
X6.485Y-3.015
X6.585Y-3.015
X6.685Y-3.015
X6.785Y-3.015
T3
X7.0722Y-2.9868G85X7.0722Y-2.9612
G05
X7.3478Y-2.9868G85X7.3478Y-2.9612
G05
T4
X7.1175Y-3.0803G85X7.1057Y-3.0803
G05
X7.3143Y-3.0803G85X7.3025Y-3.0803
G05
T6
X4.583Y-3.1167G85X4.583Y-3.0931
G05
X4.583Y-4.4789G85X4.583Y-4.4553
G05
T0
M30
