G04 #@! TF.GenerationSoftware,KiCad,Pcbnew,5.0.2-bee76a0~70~ubuntu18.04.1*
G04 #@! TF.CreationDate,2018-12-12T17:35:25-08:00*
G04 #@! TF.ProjectId,NRF52832_Reference,4e524635-3238-4333-925f-526566657265,rev?*
G04 #@! TF.SameCoordinates,Original*
G04 #@! TF.FileFunction,Soldermask,Bot*
G04 #@! TF.FilePolarity,Negative*
%FSLAX46Y46*%
G04 Gerber Fmt 4.6, Leading zero omitted, Abs format (unit mm)*
G04 Created by KiCad (PCBNEW 5.0.2-bee76a0~70~ubuntu18.04.1) date Wed 12 Dec 2018 05:35:25 PM PST*
%MOMM*%
%LPD*%
G01*
G04 APERTURE LIST*
%ADD10C,2.500000*%
%ADD11R,2.000000X2.000000*%
%ADD12O,2.000000X2.000000*%
%ADD13C,1.300000*%
%ADD14O,1.550000X1.250000*%
%ADD15O,1.190000X1.850000*%
%ADD16C,2.300000*%
%ADD17C,1.950000*%
%ADD18C,1.400000*%
%ADD19O,1.800000X2.400000*%
%ADD20C,1.500000*%
G04 APERTURE END LIST*
D10*
G04 #@! TO.C,M3*
X153733500Y-102806500D03*
G04 #@! TD*
G04 #@! TO.C,M2*
X129032000Y-109982000D03*
G04 #@! TD*
D11*
G04 #@! TO.C,J1*
X172339000Y-76581000D03*
D12*
X169799000Y-76581000D03*
X167259000Y-76581000D03*
X164719000Y-76581000D03*
X162179000Y-76581000D03*
X159639000Y-76581000D03*
X157099000Y-76581000D03*
X154559000Y-76581000D03*
X152019000Y-76581000D03*
X149479000Y-76581000D03*
G04 #@! TD*
D11*
G04 #@! TO.C,J2*
X144907000Y-76581000D03*
D12*
X142367000Y-76581000D03*
X139827000Y-76581000D03*
X137287000Y-76581000D03*
X134747000Y-76581000D03*
X132207000Y-76581000D03*
X129667000Y-76581000D03*
X127127000Y-76581000D03*
X124587000Y-76581000D03*
X122047000Y-76581000D03*
G04 #@! TD*
G04 #@! TO.C,J3*
X130708400Y-104140000D03*
D11*
X133248400Y-104140000D03*
G04 #@! TD*
G04 #@! TO.C,J4*
X133248400Y-99949000D03*
D12*
X130708400Y-99949000D03*
G04 #@! TD*
G04 #@! TO.C,J5*
X130708400Y-95681800D03*
D11*
X133248400Y-95681800D03*
G04 #@! TD*
G04 #@! TO.C,J6*
X133197600Y-91643200D03*
D12*
X130657600Y-91643200D03*
G04 #@! TD*
G04 #@! TO.C,J7*
X130606800Y-87604600D03*
D11*
X133146800Y-87604600D03*
G04 #@! TD*
D12*
G04 #@! TO.C,J10*
X134239000Y-121475500D03*
X131699000Y-121475500D03*
X129159000Y-121475500D03*
X126619000Y-121475500D03*
X124079000Y-121475500D03*
X121539000Y-121475500D03*
X118999000Y-121475500D03*
X116459000Y-121475500D03*
X113919000Y-121475500D03*
D11*
X111379000Y-121475500D03*
G04 #@! TD*
G04 #@! TO.C,J11*
X139319000Y-121475500D03*
D12*
X141859000Y-121475500D03*
X144399000Y-121475500D03*
X146939000Y-121475500D03*
G04 #@! TD*
D13*
G04 #@! TO.C,J12*
X154686000Y-121539000D03*
X154686000Y-120269000D03*
X155956000Y-121539000D03*
X155956000Y-120269000D03*
X157226000Y-121539000D03*
X157226000Y-120269000D03*
X158496000Y-121539000D03*
X158496000Y-120269000D03*
X159766000Y-121539000D03*
X159766000Y-120269000D03*
G04 #@! TD*
D14*
G04 #@! TO.C,J17*
X180634000Y-78239600D03*
X185634000Y-78239600D03*
D15*
X186634000Y-75539600D03*
X179634000Y-75539600D03*
G04 #@! TD*
D11*
G04 #@! TO.C,J18*
X184759600Y-87198200D03*
D12*
X184759600Y-89738200D03*
G04 #@! TD*
D16*
G04 #@! TO.C,SW1*
X174381600Y-122020400D03*
X174381600Y-115520400D03*
X178881600Y-122020400D03*
X178881600Y-115520400D03*
G04 #@! TD*
G04 #@! TO.C,SW2*
X166507600Y-122096600D03*
X166507600Y-115596600D03*
X171007600Y-122096600D03*
X171007600Y-115596600D03*
G04 #@! TD*
D17*
G04 #@! TO.C,U1*
X103973000Y-118593600D03*
X101473000Y-118593600D03*
X98973000Y-118593600D03*
X103973000Y-121893600D03*
X101473000Y-121893600D03*
X98973000Y-121893600D03*
G04 #@! TD*
D18*
G04 #@! TO.C,U3*
X118207000Y-108164400D03*
X118207000Y-106664400D03*
X118207000Y-105164400D03*
X118207000Y-103664400D03*
X118207000Y-102164400D03*
X118207000Y-100664400D03*
X118207000Y-99164400D03*
X118207000Y-97664400D03*
X118207000Y-96164400D03*
X118207000Y-94664400D03*
X118207000Y-93164400D03*
X118207000Y-91664400D03*
X118207000Y-90164400D03*
X118207000Y-88664400D03*
X118207000Y-87164400D03*
X118207000Y-85664400D03*
X118207000Y-84164400D03*
D19*
X116407000Y-113464400D03*
X116407000Y-78864400D03*
D20*
X118357000Y-116264400D03*
X118357000Y-76064400D03*
X95257000Y-116264400D03*
X95257000Y-76064400D03*
G04 #@! TD*
D17*
G04 #@! TO.C,U14*
X186523000Y-93498400D03*
X184023000Y-93498400D03*
X181523000Y-93498400D03*
X186523000Y-96798400D03*
X184023000Y-96798400D03*
X181523000Y-96798400D03*
G04 #@! TD*
D10*
G04 #@! TO.C,M1*
X124079000Y-85788500D03*
G04 #@! TD*
M02*
