G04 #@! TF.GenerationSoftware,KiCad,Pcbnew,5.0.2-bee76a0~70~ubuntu18.04.1*
G04 #@! TF.CreationDate,2018-12-12T17:35:25-08:00*
G04 #@! TF.ProjectId,NRF52832_Reference,4e524635-3238-4333-925f-526566657265,rev?*
G04 #@! TF.SameCoordinates,Original*
G04 #@! TF.FileFunction,Legend,Bot*
G04 #@! TF.FilePolarity,Positive*
%FSLAX46Y46*%
G04 Gerber Fmt 4.6, Leading zero omitted, Abs format (unit mm)*
G04 Created by KiCad (PCBNEW 5.0.2-bee76a0~70~ubuntu18.04.1) date Wed 12 Dec 2018 05:35:25 PM PST*
%MOMM*%
%LPD*%
G01*
G04 APERTURE LIST*
%ADD10C,0.300000*%
%ADD11C,0.200000*%
%ADD12C,0.250000*%
G04 APERTURE END LIST*
D10*
X176875214Y-79432571D02*
X176946642Y-79361142D01*
X177018071Y-79146857D01*
X177018071Y-79004000D01*
X176946642Y-78789714D01*
X176803785Y-78646857D01*
X176660928Y-78575428D01*
X176375214Y-78504000D01*
X176160928Y-78504000D01*
X175875214Y-78575428D01*
X175732357Y-78646857D01*
X175589500Y-78789714D01*
X175518071Y-79004000D01*
X175518071Y-79146857D01*
X175589500Y-79361142D01*
X175660928Y-79432571D01*
X176018071Y-80718285D02*
X177018071Y-80718285D01*
X176018071Y-80075428D02*
X176803785Y-80075428D01*
X176946642Y-80146857D01*
X177018071Y-80289714D01*
X177018071Y-80504000D01*
X176946642Y-80646857D01*
X176875214Y-80718285D01*
X176946642Y-81361142D02*
X177018071Y-81504000D01*
X177018071Y-81789714D01*
X176946642Y-81932571D01*
X176803785Y-82004000D01*
X176732357Y-82004000D01*
X176589500Y-81932571D01*
X176518071Y-81789714D01*
X176518071Y-81575428D01*
X176446642Y-81432571D01*
X176303785Y-81361142D01*
X176232357Y-81361142D01*
X176089500Y-81432571D01*
X176018071Y-81575428D01*
X176018071Y-81789714D01*
X176089500Y-81932571D01*
X176018071Y-82432571D02*
X176018071Y-83004000D01*
X175518071Y-82646857D02*
X176803785Y-82646857D01*
X176946642Y-82718285D01*
X177018071Y-82861142D01*
X177018071Y-83004000D01*
X177018071Y-83718285D02*
X176946642Y-83575428D01*
X176875214Y-83504000D01*
X176732357Y-83432571D01*
X176303785Y-83432571D01*
X176160928Y-83504000D01*
X176089500Y-83575428D01*
X176018071Y-83718285D01*
X176018071Y-83932571D01*
X176089500Y-84075428D01*
X176160928Y-84146857D01*
X176303785Y-84218285D01*
X176732357Y-84218285D01*
X176875214Y-84146857D01*
X176946642Y-84075428D01*
X177018071Y-83932571D01*
X177018071Y-83718285D01*
X177018071Y-84861142D02*
X176018071Y-84861142D01*
X176160928Y-84861142D02*
X176089500Y-84932571D01*
X176018071Y-85075428D01*
X176018071Y-85289714D01*
X176089500Y-85432571D01*
X176232357Y-85504000D01*
X177018071Y-85504000D01*
X176232357Y-85504000D02*
X176089500Y-85575428D01*
X176018071Y-85718285D01*
X176018071Y-85932571D01*
X176089500Y-86075428D01*
X176232357Y-86146857D01*
X177018071Y-86146857D01*
X177018071Y-88004000D02*
X175518071Y-88004000D01*
X177018071Y-88861142D01*
X175518071Y-88861142D01*
X177018071Y-90432571D02*
X176303785Y-89932571D01*
X177018071Y-89575428D02*
X175518071Y-89575428D01*
X175518071Y-90146857D01*
X175589500Y-90289714D01*
X175660928Y-90361142D01*
X175803785Y-90432571D01*
X176018071Y-90432571D01*
X176160928Y-90361142D01*
X176232357Y-90289714D01*
X176303785Y-90146857D01*
X176303785Y-89575428D01*
X176232357Y-91575428D02*
X176232357Y-91075428D01*
X177018071Y-91075428D02*
X175518071Y-91075428D01*
X175518071Y-91789714D01*
X175518071Y-93075428D02*
X175518071Y-92361142D01*
X176232357Y-92289714D01*
X176160928Y-92361142D01*
X176089500Y-92504000D01*
X176089500Y-92861142D01*
X176160928Y-93004000D01*
X176232357Y-93075428D01*
X176375214Y-93146857D01*
X176732357Y-93146857D01*
X176875214Y-93075428D01*
X176946642Y-93004000D01*
X177018071Y-92861142D01*
X177018071Y-92504000D01*
X176946642Y-92361142D01*
X176875214Y-92289714D01*
X175660928Y-93718285D02*
X175589500Y-93789714D01*
X175518071Y-93932571D01*
X175518071Y-94289714D01*
X175589500Y-94432571D01*
X175660928Y-94504000D01*
X175803785Y-94575428D01*
X175946642Y-94575428D01*
X176160928Y-94504000D01*
X177018071Y-93646857D01*
X177018071Y-94575428D01*
X176160928Y-95432571D02*
X176089500Y-95289714D01*
X176018071Y-95218285D01*
X175875214Y-95146857D01*
X175803785Y-95146857D01*
X175660928Y-95218285D01*
X175589500Y-95289714D01*
X175518071Y-95432571D01*
X175518071Y-95718285D01*
X175589500Y-95861142D01*
X175660928Y-95932571D01*
X175803785Y-96004000D01*
X175875214Y-96004000D01*
X176018071Y-95932571D01*
X176089500Y-95861142D01*
X176160928Y-95718285D01*
X176160928Y-95432571D01*
X176232357Y-95289714D01*
X176303785Y-95218285D01*
X176446642Y-95146857D01*
X176732357Y-95146857D01*
X176875214Y-95218285D01*
X176946642Y-95289714D01*
X177018071Y-95432571D01*
X177018071Y-95718285D01*
X176946642Y-95861142D01*
X176875214Y-95932571D01*
X176732357Y-96004000D01*
X176446642Y-96004000D01*
X176303785Y-95932571D01*
X176232357Y-95861142D01*
X176160928Y-95718285D01*
X175518071Y-96504000D02*
X175518071Y-97432571D01*
X176089500Y-96932571D01*
X176089500Y-97146857D01*
X176160928Y-97289714D01*
X176232357Y-97361142D01*
X176375214Y-97432571D01*
X176732357Y-97432571D01*
X176875214Y-97361142D01*
X176946642Y-97289714D01*
X177018071Y-97146857D01*
X177018071Y-96718285D01*
X176946642Y-96575428D01*
X176875214Y-96504000D01*
X175660928Y-98004000D02*
X175589500Y-98075428D01*
X175518071Y-98218285D01*
X175518071Y-98575428D01*
X175589500Y-98718285D01*
X175660928Y-98789714D01*
X175803785Y-98861142D01*
X175946642Y-98861142D01*
X176160928Y-98789714D01*
X177018071Y-97932571D01*
X177018071Y-98861142D01*
X176232357Y-101146857D02*
X176303785Y-101361142D01*
X176375214Y-101432571D01*
X176518071Y-101504000D01*
X176732357Y-101504000D01*
X176875214Y-101432571D01*
X176946642Y-101361142D01*
X177018071Y-101218285D01*
X177018071Y-100646857D01*
X175518071Y-100646857D01*
X175518071Y-101146857D01*
X175589500Y-101289714D01*
X175660928Y-101361142D01*
X175803785Y-101432571D01*
X175946642Y-101432571D01*
X176089500Y-101361142D01*
X176160928Y-101289714D01*
X176232357Y-101146857D01*
X176232357Y-100646857D01*
X177018071Y-102361142D02*
X176946642Y-102218285D01*
X176875214Y-102146857D01*
X176732357Y-102075428D01*
X176303785Y-102075428D01*
X176160928Y-102146857D01*
X176089500Y-102218285D01*
X176018071Y-102361142D01*
X176018071Y-102575428D01*
X176089500Y-102718285D01*
X176160928Y-102789714D01*
X176303785Y-102861142D01*
X176732357Y-102861142D01*
X176875214Y-102789714D01*
X176946642Y-102718285D01*
X177018071Y-102575428D01*
X177018071Y-102361142D01*
X177018071Y-104146857D02*
X176232357Y-104146857D01*
X176089500Y-104075428D01*
X176018071Y-103932571D01*
X176018071Y-103646857D01*
X176089500Y-103504000D01*
X176946642Y-104146857D02*
X177018071Y-104004000D01*
X177018071Y-103646857D01*
X176946642Y-103504000D01*
X176803785Y-103432571D01*
X176660928Y-103432571D01*
X176518071Y-103504000D01*
X176446642Y-103646857D01*
X176446642Y-104004000D01*
X176375214Y-104146857D01*
X177018071Y-104861142D02*
X176018071Y-104861142D01*
X176303785Y-104861142D02*
X176160928Y-104932571D01*
X176089500Y-105004000D01*
X176018071Y-105146857D01*
X176018071Y-105289714D01*
X177018071Y-106432571D02*
X175518071Y-106432571D01*
X176946642Y-106432571D02*
X177018071Y-106289714D01*
X177018071Y-106004000D01*
X176946642Y-105861142D01*
X176875214Y-105789714D01*
X176732357Y-105718285D01*
X176303785Y-105718285D01*
X176160928Y-105789714D01*
X176089500Y-105861142D01*
X176018071Y-106004000D01*
X176018071Y-106289714D01*
X176089500Y-106432571D01*
X175518071Y-108075428D02*
X177018071Y-108575428D01*
X175518071Y-109075428D01*
X177018071Y-110361142D02*
X177018071Y-109504000D01*
X177018071Y-109932571D02*
X175518071Y-109932571D01*
X175732357Y-109789714D01*
X175875214Y-109646857D01*
X175946642Y-109504000D01*
X176875214Y-111004000D02*
X176946642Y-111075428D01*
X177018071Y-111004000D01*
X176946642Y-110932571D01*
X176875214Y-111004000D01*
X177018071Y-111004000D01*
X175518071Y-112004000D02*
X175518071Y-112146857D01*
X175589500Y-112289714D01*
X175660928Y-112361142D01*
X175803785Y-112432571D01*
X176089500Y-112504000D01*
X176446642Y-112504000D01*
X176732357Y-112432571D01*
X176875214Y-112361142D01*
X176946642Y-112289714D01*
X177018071Y-112146857D01*
X177018071Y-112004000D01*
X176946642Y-111861142D01*
X176875214Y-111789714D01*
X176732357Y-111718285D01*
X176446642Y-111646857D01*
X176089500Y-111646857D01*
X175803785Y-111718285D01*
X175660928Y-111789714D01*
X175589500Y-111861142D01*
X175518071Y-112004000D01*
D11*
X140652500Y-93218000D02*
X140652500Y-107759500D01*
D12*
X146165380Y-94956904D02*
X146165380Y-95528333D01*
X147165380Y-95242619D02*
X146165380Y-95242619D01*
X147117761Y-96242619D02*
X147165380Y-96147380D01*
X147165380Y-95956904D01*
X147117761Y-95861666D01*
X147022523Y-95814047D01*
X146641571Y-95814047D01*
X146546333Y-95861666D01*
X146498714Y-95956904D01*
X146498714Y-96147380D01*
X146546333Y-96242619D01*
X146641571Y-96290238D01*
X146736809Y-96290238D01*
X146832047Y-95814047D01*
X147165380Y-96718809D02*
X146498714Y-96718809D01*
X146593952Y-96718809D02*
X146546333Y-96766428D01*
X146498714Y-96861666D01*
X146498714Y-97004523D01*
X146546333Y-97099761D01*
X146641571Y-97147380D01*
X147165380Y-97147380D01*
X146641571Y-97147380D02*
X146546333Y-97195000D01*
X146498714Y-97290238D01*
X146498714Y-97433095D01*
X146546333Y-97528333D01*
X146641571Y-97575952D01*
X147165380Y-97575952D01*
X146498714Y-98052142D02*
X147498714Y-98052142D01*
X146546333Y-98052142D02*
X146498714Y-98147380D01*
X146498714Y-98337857D01*
X146546333Y-98433095D01*
X146593952Y-98480714D01*
X146689190Y-98528333D01*
X146974904Y-98528333D01*
X147070142Y-98480714D01*
X147117761Y-98433095D01*
X147165380Y-98337857D01*
X147165380Y-98147380D01*
X147117761Y-98052142D01*
X147117761Y-99671190D02*
X147165380Y-99814047D01*
X147165380Y-100052142D01*
X147117761Y-100147380D01*
X147070142Y-100195000D01*
X146974904Y-100242619D01*
X146879666Y-100242619D01*
X146784428Y-100195000D01*
X146736809Y-100147380D01*
X146689190Y-100052142D01*
X146641571Y-99861666D01*
X146593952Y-99766428D01*
X146546333Y-99718809D01*
X146451095Y-99671190D01*
X146355857Y-99671190D01*
X146260619Y-99718809D01*
X146213000Y-99766428D01*
X146165380Y-99861666D01*
X146165380Y-100099761D01*
X146213000Y-100242619D01*
X147117761Y-101052142D02*
X147165380Y-100956904D01*
X147165380Y-100766428D01*
X147117761Y-100671190D01*
X147022523Y-100623571D01*
X146641571Y-100623571D01*
X146546333Y-100671190D01*
X146498714Y-100766428D01*
X146498714Y-100956904D01*
X146546333Y-101052142D01*
X146641571Y-101099761D01*
X146736809Y-101099761D01*
X146832047Y-100623571D01*
X146498714Y-101528333D02*
X147165380Y-101528333D01*
X146593952Y-101528333D02*
X146546333Y-101575952D01*
X146498714Y-101671190D01*
X146498714Y-101814047D01*
X146546333Y-101909285D01*
X146641571Y-101956904D01*
X147165380Y-101956904D01*
X147117761Y-102385476D02*
X147165380Y-102480714D01*
X147165380Y-102671190D01*
X147117761Y-102766428D01*
X147022523Y-102814047D01*
X146974904Y-102814047D01*
X146879666Y-102766428D01*
X146832047Y-102671190D01*
X146832047Y-102528333D01*
X146784428Y-102433095D01*
X146689190Y-102385476D01*
X146641571Y-102385476D01*
X146546333Y-102433095D01*
X146498714Y-102528333D01*
X146498714Y-102671190D01*
X146546333Y-102766428D01*
X147165380Y-103385476D02*
X147117761Y-103290238D01*
X147070142Y-103242619D01*
X146974904Y-103195000D01*
X146689190Y-103195000D01*
X146593952Y-103242619D01*
X146546333Y-103290238D01*
X146498714Y-103385476D01*
X146498714Y-103528333D01*
X146546333Y-103623571D01*
X146593952Y-103671190D01*
X146689190Y-103718809D01*
X146974904Y-103718809D01*
X147070142Y-103671190D01*
X147117761Y-103623571D01*
X147165380Y-103528333D01*
X147165380Y-103385476D01*
X147165380Y-104147380D02*
X146498714Y-104147380D01*
X146689190Y-104147380D02*
X146593952Y-104195000D01*
X146546333Y-104242619D01*
X146498714Y-104337857D01*
X146498714Y-104433095D01*
X148915380Y-94885476D02*
X147915380Y-94885476D01*
X147915380Y-95266428D01*
X147963000Y-95361666D01*
X148010619Y-95409285D01*
X148105857Y-95456904D01*
X148248714Y-95456904D01*
X148343952Y-95409285D01*
X148391571Y-95361666D01*
X148439190Y-95266428D01*
X148439190Y-94885476D01*
X148915380Y-95885476D02*
X147915380Y-95885476D01*
X148915380Y-96314047D02*
X148391571Y-96314047D01*
X148296333Y-96266428D01*
X148248714Y-96171190D01*
X148248714Y-96028333D01*
X148296333Y-95933095D01*
X148343952Y-95885476D01*
X148915380Y-96933095D02*
X148867761Y-96837857D01*
X148820142Y-96790238D01*
X148724904Y-96742619D01*
X148439190Y-96742619D01*
X148343952Y-96790238D01*
X148296333Y-96837857D01*
X148248714Y-96933095D01*
X148248714Y-97075952D01*
X148296333Y-97171190D01*
X148343952Y-97218809D01*
X148439190Y-97266428D01*
X148724904Y-97266428D01*
X148820142Y-97218809D01*
X148867761Y-97171190D01*
X148915380Y-97075952D01*
X148915380Y-96933095D01*
X148248714Y-97552142D02*
X148248714Y-97933095D01*
X147915380Y-97695000D02*
X148772523Y-97695000D01*
X148867761Y-97742619D01*
X148915380Y-97837857D01*
X148915380Y-97933095D01*
X148915380Y-98409285D02*
X148867761Y-98314047D01*
X148820142Y-98266428D01*
X148724904Y-98218809D01*
X148439190Y-98218809D01*
X148343952Y-98266428D01*
X148296333Y-98314047D01*
X148248714Y-98409285D01*
X148248714Y-98552142D01*
X148296333Y-98647380D01*
X148343952Y-98695000D01*
X148439190Y-98742619D01*
X148724904Y-98742619D01*
X148820142Y-98695000D01*
X148867761Y-98647380D01*
X148915380Y-98552142D01*
X148915380Y-98409285D01*
X148867761Y-99885476D02*
X148915380Y-100028333D01*
X148915380Y-100266428D01*
X148867761Y-100361666D01*
X148820142Y-100409285D01*
X148724904Y-100456904D01*
X148629666Y-100456904D01*
X148534428Y-100409285D01*
X148486809Y-100361666D01*
X148439190Y-100266428D01*
X148391571Y-100075952D01*
X148343952Y-99980714D01*
X148296333Y-99933095D01*
X148201095Y-99885476D01*
X148105857Y-99885476D01*
X148010619Y-99933095D01*
X147963000Y-99980714D01*
X147915380Y-100075952D01*
X147915380Y-100314047D01*
X147963000Y-100456904D01*
X148867761Y-101266428D02*
X148915380Y-101171190D01*
X148915380Y-100980714D01*
X148867761Y-100885476D01*
X148772523Y-100837857D01*
X148391571Y-100837857D01*
X148296333Y-100885476D01*
X148248714Y-100980714D01*
X148248714Y-101171190D01*
X148296333Y-101266428D01*
X148391571Y-101314047D01*
X148486809Y-101314047D01*
X148582047Y-100837857D01*
X148248714Y-101742619D02*
X148915380Y-101742619D01*
X148343952Y-101742619D02*
X148296333Y-101790238D01*
X148248714Y-101885476D01*
X148248714Y-102028333D01*
X148296333Y-102123571D01*
X148391571Y-102171190D01*
X148915380Y-102171190D01*
X148867761Y-102599761D02*
X148915380Y-102695000D01*
X148915380Y-102885476D01*
X148867761Y-102980714D01*
X148772523Y-103028333D01*
X148724904Y-103028333D01*
X148629666Y-102980714D01*
X148582047Y-102885476D01*
X148582047Y-102742619D01*
X148534428Y-102647380D01*
X148439190Y-102599761D01*
X148391571Y-102599761D01*
X148296333Y-102647380D01*
X148248714Y-102742619D01*
X148248714Y-102885476D01*
X148296333Y-102980714D01*
X148915380Y-103599761D02*
X148867761Y-103504523D01*
X148820142Y-103456904D01*
X148724904Y-103409285D01*
X148439190Y-103409285D01*
X148343952Y-103456904D01*
X148296333Y-103504523D01*
X148248714Y-103599761D01*
X148248714Y-103742619D01*
X148296333Y-103837857D01*
X148343952Y-103885476D01*
X148439190Y-103933095D01*
X148724904Y-103933095D01*
X148820142Y-103885476D01*
X148867761Y-103837857D01*
X148915380Y-103742619D01*
X148915380Y-103599761D01*
X148915380Y-104361666D02*
X148248714Y-104361666D01*
X148439190Y-104361666D02*
X148343952Y-104409285D01*
X148296333Y-104456904D01*
X148248714Y-104552142D01*
X148248714Y-104647380D01*
X150141571Y-95075952D02*
X150141571Y-95409285D01*
X150665380Y-95552142D02*
X150665380Y-95075952D01*
X149665380Y-95075952D01*
X149665380Y-95552142D01*
X150141571Y-95980714D02*
X150141571Y-96314047D01*
X150665380Y-96456904D02*
X150665380Y-95980714D01*
X149665380Y-95980714D01*
X149665380Y-96456904D01*
X150665380Y-96885476D02*
X149665380Y-96885476D01*
X149665380Y-97266428D01*
X149713000Y-97361666D01*
X149760619Y-97409285D01*
X149855857Y-97456904D01*
X149998714Y-97456904D01*
X150093952Y-97409285D01*
X150141571Y-97361666D01*
X150189190Y-97266428D01*
X150189190Y-96885476D01*
X150665380Y-98456904D02*
X150189190Y-98123571D01*
X150665380Y-97885476D02*
X149665380Y-97885476D01*
X149665380Y-98266428D01*
X149713000Y-98361666D01*
X149760619Y-98409285D01*
X149855857Y-98456904D01*
X149998714Y-98456904D01*
X150093952Y-98409285D01*
X150141571Y-98361666D01*
X150189190Y-98266428D01*
X150189190Y-97885476D01*
X149665380Y-99075952D02*
X149665380Y-99266428D01*
X149713000Y-99361666D01*
X149808238Y-99456904D01*
X149998714Y-99504523D01*
X150332047Y-99504523D01*
X150522523Y-99456904D01*
X150617761Y-99361666D01*
X150665380Y-99266428D01*
X150665380Y-99075952D01*
X150617761Y-98980714D01*
X150522523Y-98885476D01*
X150332047Y-98837857D01*
X149998714Y-98837857D01*
X149808238Y-98885476D01*
X149713000Y-98980714D01*
X149665380Y-99075952D01*
X150665380Y-99933095D02*
X149665380Y-99933095D01*
X150379666Y-100266428D01*
X149665380Y-100599761D01*
X150665380Y-100599761D01*
X149998714Y-102266428D02*
X150665380Y-102266428D01*
X149617761Y-102028333D02*
X150332047Y-101790238D01*
X150332047Y-102409285D01*
X150665380Y-102790238D02*
X149665380Y-102790238D01*
X150665380Y-103361666D02*
X150093952Y-102933095D01*
X149665380Y-103361666D02*
X150236809Y-102790238D01*
X150141571Y-104123571D02*
X150189190Y-104266428D01*
X150236809Y-104314047D01*
X150332047Y-104361666D01*
X150474904Y-104361666D01*
X150570142Y-104314047D01*
X150617761Y-104266428D01*
X150665380Y-104171190D01*
X150665380Y-103790238D01*
X149665380Y-103790238D01*
X149665380Y-104123571D01*
X149713000Y-104218809D01*
X149760619Y-104266428D01*
X149855857Y-104314047D01*
X149951095Y-104314047D01*
X150046333Y-104266428D01*
X150093952Y-104218809D01*
X150141571Y-104123571D01*
X150141571Y-103790238D01*
X145232380Y-95068023D02*
X144232380Y-95068023D01*
X144232380Y-95448976D01*
X144280000Y-95544214D01*
X144327619Y-95591833D01*
X144422857Y-95639452D01*
X144565714Y-95639452D01*
X144660952Y-95591833D01*
X144708571Y-95544214D01*
X144756190Y-95448976D01*
X144756190Y-95068023D01*
X144232380Y-96258500D02*
X144232380Y-96353738D01*
X144280000Y-96448976D01*
X144327619Y-96496595D01*
X144422857Y-96544214D01*
X144613333Y-96591833D01*
X144851428Y-96591833D01*
X145041904Y-96544214D01*
X145137142Y-96496595D01*
X145184761Y-96448976D01*
X145232380Y-96353738D01*
X145232380Y-96258500D01*
X145184761Y-96163261D01*
X145137142Y-96115642D01*
X145041904Y-96068023D01*
X144851428Y-96020404D01*
X144613333Y-96020404D01*
X144422857Y-96068023D01*
X144327619Y-96115642D01*
X144280000Y-96163261D01*
X144232380Y-96258500D01*
X145137142Y-97020404D02*
X145184761Y-97068023D01*
X145232380Y-97020404D01*
X145184761Y-96972785D01*
X145137142Y-97020404D01*
X145232380Y-97020404D01*
X145232380Y-98020404D02*
X145232380Y-97448976D01*
X145232380Y-97734690D02*
X144232380Y-97734690D01*
X144375238Y-97639452D01*
X144470476Y-97544214D01*
X144518095Y-97448976D01*
X144327619Y-98401357D02*
X144280000Y-98448976D01*
X144232380Y-98544214D01*
X144232380Y-98782309D01*
X144280000Y-98877547D01*
X144327619Y-98925166D01*
X144422857Y-98972785D01*
X144518095Y-98972785D01*
X144660952Y-98925166D01*
X145232380Y-98353738D01*
X145232380Y-98972785D01*
X144851428Y-100163261D02*
X144851428Y-100925166D01*
X145184761Y-102115642D02*
X145232380Y-102258500D01*
X145232380Y-102496595D01*
X145184761Y-102591833D01*
X145137142Y-102639452D01*
X145041904Y-102687071D01*
X144946666Y-102687071D01*
X144851428Y-102639452D01*
X144803809Y-102591833D01*
X144756190Y-102496595D01*
X144708571Y-102306119D01*
X144660952Y-102210880D01*
X144613333Y-102163261D01*
X144518095Y-102115642D01*
X144422857Y-102115642D01*
X144327619Y-102163261D01*
X144280000Y-102210880D01*
X144232380Y-102306119D01*
X144232380Y-102544214D01*
X144280000Y-102687071D01*
X145137142Y-103687071D02*
X145184761Y-103639452D01*
X145232380Y-103496595D01*
X145232380Y-103401357D01*
X145184761Y-103258500D01*
X145089523Y-103163261D01*
X144994285Y-103115642D01*
X144803809Y-103068023D01*
X144660952Y-103068023D01*
X144470476Y-103115642D01*
X144375238Y-103163261D01*
X144280000Y-103258500D01*
X144232380Y-103401357D01*
X144232380Y-103496595D01*
X144280000Y-103639452D01*
X144327619Y-103687071D01*
X145232380Y-104591833D02*
X145232380Y-104115642D01*
X144232380Y-104115642D01*
X143009880Y-95107714D02*
X142009880Y-95107714D01*
X142009880Y-95488666D01*
X142057500Y-95583904D01*
X142105119Y-95631523D01*
X142200357Y-95679142D01*
X142343214Y-95679142D01*
X142438452Y-95631523D01*
X142486071Y-95583904D01*
X142533690Y-95488666D01*
X142533690Y-95107714D01*
X142009880Y-96298190D02*
X142009880Y-96393428D01*
X142057500Y-96488666D01*
X142105119Y-96536285D01*
X142200357Y-96583904D01*
X142390833Y-96631523D01*
X142628928Y-96631523D01*
X142819404Y-96583904D01*
X142914642Y-96536285D01*
X142962261Y-96488666D01*
X143009880Y-96393428D01*
X143009880Y-96298190D01*
X142962261Y-96202952D01*
X142914642Y-96155333D01*
X142819404Y-96107714D01*
X142628928Y-96060095D01*
X142390833Y-96060095D01*
X142200357Y-96107714D01*
X142105119Y-96155333D01*
X142057500Y-96202952D01*
X142009880Y-96298190D01*
X142914642Y-97060095D02*
X142962261Y-97107714D01*
X143009880Y-97060095D01*
X142962261Y-97012476D01*
X142914642Y-97060095D01*
X143009880Y-97060095D01*
X143009880Y-98060095D02*
X143009880Y-97488666D01*
X143009880Y-97774380D02*
X142009880Y-97774380D01*
X142152738Y-97679142D01*
X142247976Y-97583904D01*
X142295595Y-97488666D01*
X143009880Y-99012476D02*
X143009880Y-98441047D01*
X143009880Y-98726761D02*
X142009880Y-98726761D01*
X142152738Y-98631523D01*
X142247976Y-98536285D01*
X142295595Y-98441047D01*
X142628928Y-100202952D02*
X142628928Y-100964857D01*
X142962261Y-102155333D02*
X143009880Y-102298190D01*
X143009880Y-102536285D01*
X142962261Y-102631523D01*
X142914642Y-102679142D01*
X142819404Y-102726761D01*
X142724166Y-102726761D01*
X142628928Y-102679142D01*
X142581309Y-102631523D01*
X142533690Y-102536285D01*
X142486071Y-102345809D01*
X142438452Y-102250571D01*
X142390833Y-102202952D01*
X142295595Y-102155333D01*
X142200357Y-102155333D01*
X142105119Y-102202952D01*
X142057500Y-102250571D01*
X142009880Y-102345809D01*
X142009880Y-102583904D01*
X142057500Y-102726761D01*
X143009880Y-103155333D02*
X142009880Y-103155333D01*
X142009880Y-103393428D01*
X142057500Y-103536285D01*
X142152738Y-103631523D01*
X142247976Y-103679142D01*
X142438452Y-103726761D01*
X142581309Y-103726761D01*
X142771785Y-103679142D01*
X142867023Y-103631523D01*
X142962261Y-103536285D01*
X143009880Y-103393428D01*
X143009880Y-103155333D01*
X142724166Y-104107714D02*
X142724166Y-104583904D01*
X143009880Y-104012476D02*
X142009880Y-104345809D01*
X143009880Y-104679142D01*
D10*
X139362571Y-95182714D02*
X137862571Y-95182714D01*
X138005428Y-95825571D02*
X137934000Y-95897000D01*
X137862571Y-96039857D01*
X137862571Y-96397000D01*
X137934000Y-96539857D01*
X138005428Y-96611285D01*
X138148285Y-96682714D01*
X138291142Y-96682714D01*
X138505428Y-96611285D01*
X139362571Y-95754142D01*
X139362571Y-96682714D01*
X139219714Y-98182714D02*
X139291142Y-98111285D01*
X139362571Y-97897000D01*
X139362571Y-97754142D01*
X139291142Y-97539857D01*
X139148285Y-97397000D01*
X139005428Y-97325571D01*
X138719714Y-97254142D01*
X138505428Y-97254142D01*
X138219714Y-97325571D01*
X138076857Y-97397000D01*
X137934000Y-97539857D01*
X137862571Y-97754142D01*
X137862571Y-97897000D01*
X137934000Y-98111285D01*
X138005428Y-98182714D01*
D12*
X116085880Y-92940690D02*
X115085880Y-92940690D01*
X115085880Y-93321642D01*
X115133500Y-93416880D01*
X115181119Y-93464500D01*
X115276357Y-93512119D01*
X115419214Y-93512119D01*
X115514452Y-93464500D01*
X115562071Y-93416880D01*
X115609690Y-93321642D01*
X115609690Y-92940690D01*
X115085880Y-94131166D02*
X115085880Y-94226404D01*
X115133500Y-94321642D01*
X115181119Y-94369261D01*
X115276357Y-94416880D01*
X115466833Y-94464500D01*
X115704928Y-94464500D01*
X115895404Y-94416880D01*
X115990642Y-94369261D01*
X116038261Y-94321642D01*
X116085880Y-94226404D01*
X116085880Y-94131166D01*
X116038261Y-94035928D01*
X115990642Y-93988309D01*
X115895404Y-93940690D01*
X115704928Y-93893071D01*
X115466833Y-93893071D01*
X115276357Y-93940690D01*
X115181119Y-93988309D01*
X115133500Y-94035928D01*
X115085880Y-94131166D01*
X115990642Y-94893071D02*
X116038261Y-94940690D01*
X116085880Y-94893071D01*
X116038261Y-94845452D01*
X115990642Y-94893071D01*
X116085880Y-94893071D01*
X116085880Y-95893071D02*
X116085880Y-95321642D01*
X116085880Y-95607357D02*
X115085880Y-95607357D01*
X115228738Y-95512119D01*
X115323976Y-95416880D01*
X115371595Y-95321642D01*
X115085880Y-96512119D02*
X115085880Y-96607357D01*
X115133500Y-96702595D01*
X115181119Y-96750214D01*
X115276357Y-96797833D01*
X115466833Y-96845452D01*
X115704928Y-96845452D01*
X115895404Y-96797833D01*
X115990642Y-96750214D01*
X116038261Y-96702595D01*
X116085880Y-96607357D01*
X116085880Y-96512119D01*
X116038261Y-96416880D01*
X115990642Y-96369261D01*
X115895404Y-96321642D01*
X115704928Y-96274023D01*
X115466833Y-96274023D01*
X115276357Y-96321642D01*
X115181119Y-96369261D01*
X115133500Y-96416880D01*
X115085880Y-96512119D01*
X115704928Y-98035928D02*
X115704928Y-98797833D01*
X116038261Y-99988309D02*
X116085880Y-100131166D01*
X116085880Y-100369261D01*
X116038261Y-100464500D01*
X115990642Y-100512119D01*
X115895404Y-100559738D01*
X115800166Y-100559738D01*
X115704928Y-100512119D01*
X115657309Y-100464500D01*
X115609690Y-100369261D01*
X115562071Y-100178785D01*
X115514452Y-100083547D01*
X115466833Y-100035928D01*
X115371595Y-99988309D01*
X115276357Y-99988309D01*
X115181119Y-100035928D01*
X115133500Y-100083547D01*
X115085880Y-100178785D01*
X115085880Y-100416880D01*
X115133500Y-100559738D01*
X116085880Y-100988309D02*
X115085880Y-100988309D01*
X113990380Y-92972523D02*
X112990380Y-92972523D01*
X112990380Y-93353476D01*
X113038000Y-93448714D01*
X113085619Y-93496333D01*
X113180857Y-93543952D01*
X113323714Y-93543952D01*
X113418952Y-93496333D01*
X113466571Y-93448714D01*
X113514190Y-93353476D01*
X113514190Y-92972523D01*
X112990380Y-94163000D02*
X112990380Y-94258238D01*
X113038000Y-94353476D01*
X113085619Y-94401095D01*
X113180857Y-94448714D01*
X113371333Y-94496333D01*
X113609428Y-94496333D01*
X113799904Y-94448714D01*
X113895142Y-94401095D01*
X113942761Y-94353476D01*
X113990380Y-94258238D01*
X113990380Y-94163000D01*
X113942761Y-94067761D01*
X113895142Y-94020142D01*
X113799904Y-93972523D01*
X113609428Y-93924904D01*
X113371333Y-93924904D01*
X113180857Y-93972523D01*
X113085619Y-94020142D01*
X113038000Y-94067761D01*
X112990380Y-94163000D01*
X113895142Y-94924904D02*
X113942761Y-94972523D01*
X113990380Y-94924904D01*
X113942761Y-94877285D01*
X113895142Y-94924904D01*
X113990380Y-94924904D01*
X112990380Y-95591571D02*
X112990380Y-95686809D01*
X113038000Y-95782047D01*
X113085619Y-95829666D01*
X113180857Y-95877285D01*
X113371333Y-95924904D01*
X113609428Y-95924904D01*
X113799904Y-95877285D01*
X113895142Y-95829666D01*
X113942761Y-95782047D01*
X113990380Y-95686809D01*
X113990380Y-95591571D01*
X113942761Y-95496333D01*
X113895142Y-95448714D01*
X113799904Y-95401095D01*
X113609428Y-95353476D01*
X113371333Y-95353476D01*
X113180857Y-95401095D01*
X113085619Y-95448714D01*
X113038000Y-95496333D01*
X112990380Y-95591571D01*
X113990380Y-96401095D02*
X113990380Y-96591571D01*
X113942761Y-96686809D01*
X113895142Y-96734428D01*
X113752285Y-96829666D01*
X113561809Y-96877285D01*
X113180857Y-96877285D01*
X113085619Y-96829666D01*
X113038000Y-96782047D01*
X112990380Y-96686809D01*
X112990380Y-96496333D01*
X113038000Y-96401095D01*
X113085619Y-96353476D01*
X113180857Y-96305857D01*
X113418952Y-96305857D01*
X113514190Y-96353476D01*
X113561809Y-96401095D01*
X113609428Y-96496333D01*
X113609428Y-96686809D01*
X113561809Y-96782047D01*
X113514190Y-96829666D01*
X113418952Y-96877285D01*
X113609428Y-98067761D02*
X113609428Y-98829666D01*
X113942761Y-100020142D02*
X113990380Y-100163000D01*
X113990380Y-100401095D01*
X113942761Y-100496333D01*
X113895142Y-100543952D01*
X113799904Y-100591571D01*
X113704666Y-100591571D01*
X113609428Y-100543952D01*
X113561809Y-100496333D01*
X113514190Y-100401095D01*
X113466571Y-100210619D01*
X113418952Y-100115380D01*
X113371333Y-100067761D01*
X113276095Y-100020142D01*
X113180857Y-100020142D01*
X113085619Y-100067761D01*
X113038000Y-100115380D01*
X112990380Y-100210619D01*
X112990380Y-100448714D01*
X113038000Y-100591571D01*
X113895142Y-101591571D02*
X113942761Y-101543952D01*
X113990380Y-101401095D01*
X113990380Y-101305857D01*
X113942761Y-101163000D01*
X113847523Y-101067761D01*
X113752285Y-101020142D01*
X113561809Y-100972523D01*
X113418952Y-100972523D01*
X113228476Y-101020142D01*
X113133238Y-101067761D01*
X113038000Y-101163000D01*
X112990380Y-101305857D01*
X112990380Y-101401095D01*
X113038000Y-101543952D01*
X113085619Y-101591571D01*
X113990380Y-102496333D02*
X113990380Y-102020142D01*
X112990380Y-102020142D01*
X111831380Y-93004214D02*
X110831380Y-93004214D01*
X110831380Y-93385166D01*
X110879000Y-93480404D01*
X110926619Y-93528023D01*
X111021857Y-93575642D01*
X111164714Y-93575642D01*
X111259952Y-93528023D01*
X111307571Y-93480404D01*
X111355190Y-93385166D01*
X111355190Y-93004214D01*
X110831380Y-94194690D02*
X110831380Y-94289928D01*
X110879000Y-94385166D01*
X110926619Y-94432785D01*
X111021857Y-94480404D01*
X111212333Y-94528023D01*
X111450428Y-94528023D01*
X111640904Y-94480404D01*
X111736142Y-94432785D01*
X111783761Y-94385166D01*
X111831380Y-94289928D01*
X111831380Y-94194690D01*
X111783761Y-94099452D01*
X111736142Y-94051833D01*
X111640904Y-94004214D01*
X111450428Y-93956595D01*
X111212333Y-93956595D01*
X111021857Y-94004214D01*
X110926619Y-94051833D01*
X110879000Y-94099452D01*
X110831380Y-94194690D01*
X111736142Y-94956595D02*
X111783761Y-95004214D01*
X111831380Y-94956595D01*
X111783761Y-94908976D01*
X111736142Y-94956595D01*
X111831380Y-94956595D01*
X110831380Y-95623261D02*
X110831380Y-95718500D01*
X110879000Y-95813738D01*
X110926619Y-95861357D01*
X111021857Y-95908976D01*
X111212333Y-95956595D01*
X111450428Y-95956595D01*
X111640904Y-95908976D01*
X111736142Y-95861357D01*
X111783761Y-95813738D01*
X111831380Y-95718500D01*
X111831380Y-95623261D01*
X111783761Y-95528023D01*
X111736142Y-95480404D01*
X111640904Y-95432785D01*
X111450428Y-95385166D01*
X111212333Y-95385166D01*
X111021857Y-95432785D01*
X110926619Y-95480404D01*
X110879000Y-95528023D01*
X110831380Y-95623261D01*
X111259952Y-96528023D02*
X111212333Y-96432785D01*
X111164714Y-96385166D01*
X111069476Y-96337547D01*
X111021857Y-96337547D01*
X110926619Y-96385166D01*
X110879000Y-96432785D01*
X110831380Y-96528023D01*
X110831380Y-96718500D01*
X110879000Y-96813738D01*
X110926619Y-96861357D01*
X111021857Y-96908976D01*
X111069476Y-96908976D01*
X111164714Y-96861357D01*
X111212333Y-96813738D01*
X111259952Y-96718500D01*
X111259952Y-96528023D01*
X111307571Y-96432785D01*
X111355190Y-96385166D01*
X111450428Y-96337547D01*
X111640904Y-96337547D01*
X111736142Y-96385166D01*
X111783761Y-96432785D01*
X111831380Y-96528023D01*
X111831380Y-96718500D01*
X111783761Y-96813738D01*
X111736142Y-96861357D01*
X111640904Y-96908976D01*
X111450428Y-96908976D01*
X111355190Y-96861357D01*
X111307571Y-96813738D01*
X111259952Y-96718500D01*
X111450428Y-98099452D02*
X111450428Y-98861357D01*
X111545666Y-100051833D02*
X111545666Y-100528023D01*
X111831380Y-99956595D02*
X110831380Y-100289928D01*
X111831380Y-100623261D01*
X110831380Y-101147071D02*
X110831380Y-101242309D01*
X110879000Y-101337547D01*
X110926619Y-101385166D01*
X111021857Y-101432785D01*
X111212333Y-101480404D01*
X111450428Y-101480404D01*
X111640904Y-101432785D01*
X111736142Y-101385166D01*
X111783761Y-101337547D01*
X111831380Y-101242309D01*
X111831380Y-101147071D01*
X111783761Y-101051833D01*
X111736142Y-101004214D01*
X111640904Y-100956595D01*
X111450428Y-100908976D01*
X111212333Y-100908976D01*
X111021857Y-100956595D01*
X110926619Y-101004214D01*
X110879000Y-101051833D01*
X110831380Y-101147071D01*
X109608880Y-93044023D02*
X108608880Y-93044023D01*
X108608880Y-93424976D01*
X108656500Y-93520214D01*
X108704119Y-93567833D01*
X108799357Y-93615452D01*
X108942214Y-93615452D01*
X109037452Y-93567833D01*
X109085071Y-93520214D01*
X109132690Y-93424976D01*
X109132690Y-93044023D01*
X108608880Y-94234500D02*
X108608880Y-94329738D01*
X108656500Y-94424976D01*
X108704119Y-94472595D01*
X108799357Y-94520214D01*
X108989833Y-94567833D01*
X109227928Y-94567833D01*
X109418404Y-94520214D01*
X109513642Y-94472595D01*
X109561261Y-94424976D01*
X109608880Y-94329738D01*
X109608880Y-94234500D01*
X109561261Y-94139261D01*
X109513642Y-94091642D01*
X109418404Y-94044023D01*
X109227928Y-93996404D01*
X108989833Y-93996404D01*
X108799357Y-94044023D01*
X108704119Y-94091642D01*
X108656500Y-94139261D01*
X108608880Y-94234500D01*
X109513642Y-94996404D02*
X109561261Y-95044023D01*
X109608880Y-94996404D01*
X109561261Y-94948785D01*
X109513642Y-94996404D01*
X109608880Y-94996404D01*
X108608880Y-95663071D02*
X108608880Y-95758309D01*
X108656500Y-95853547D01*
X108704119Y-95901166D01*
X108799357Y-95948785D01*
X108989833Y-95996404D01*
X109227928Y-95996404D01*
X109418404Y-95948785D01*
X109513642Y-95901166D01*
X109561261Y-95853547D01*
X109608880Y-95758309D01*
X109608880Y-95663071D01*
X109561261Y-95567833D01*
X109513642Y-95520214D01*
X109418404Y-95472595D01*
X109227928Y-95424976D01*
X108989833Y-95424976D01*
X108799357Y-95472595D01*
X108704119Y-95520214D01*
X108656500Y-95567833D01*
X108608880Y-95663071D01*
X108608880Y-96329738D02*
X108608880Y-96996404D01*
X109608880Y-96567833D01*
X109227928Y-98139261D02*
X109227928Y-98901166D01*
X108561261Y-100853547D02*
X109846976Y-99996404D01*
X109608880Y-101758309D02*
X109132690Y-101424976D01*
X109608880Y-101186880D02*
X108608880Y-101186880D01*
X108608880Y-101567833D01*
X108656500Y-101663071D01*
X108704119Y-101710690D01*
X108799357Y-101758309D01*
X108942214Y-101758309D01*
X109037452Y-101710690D01*
X109085071Y-101663071D01*
X109132690Y-101567833D01*
X109132690Y-101186880D01*
X109561261Y-102139261D02*
X109608880Y-102282119D01*
X109608880Y-102520214D01*
X109561261Y-102615452D01*
X109513642Y-102663071D01*
X109418404Y-102710690D01*
X109323166Y-102710690D01*
X109227928Y-102663071D01*
X109180309Y-102615452D01*
X109132690Y-102520214D01*
X109085071Y-102329738D01*
X109037452Y-102234500D01*
X108989833Y-102186880D01*
X108894595Y-102139261D01*
X108799357Y-102139261D01*
X108704119Y-102186880D01*
X108656500Y-102234500D01*
X108608880Y-102329738D01*
X108608880Y-102567833D01*
X108656500Y-102710690D01*
X108608880Y-102996404D02*
X108608880Y-103567833D01*
X109608880Y-103282119D02*
X108608880Y-103282119D01*
D11*
X105219500Y-91503500D02*
X105219500Y-106045000D01*
D12*
X107386380Y-93075785D02*
X106386380Y-93075785D01*
X106386380Y-93456738D01*
X106434000Y-93551976D01*
X106481619Y-93599595D01*
X106576857Y-93647214D01*
X106719714Y-93647214D01*
X106814952Y-93599595D01*
X106862571Y-93551976D01*
X106910190Y-93456738D01*
X106910190Y-93075785D01*
X106386380Y-94266261D02*
X106386380Y-94361500D01*
X106434000Y-94456738D01*
X106481619Y-94504357D01*
X106576857Y-94551976D01*
X106767333Y-94599595D01*
X107005428Y-94599595D01*
X107195904Y-94551976D01*
X107291142Y-94504357D01*
X107338761Y-94456738D01*
X107386380Y-94361500D01*
X107386380Y-94266261D01*
X107338761Y-94171023D01*
X107291142Y-94123404D01*
X107195904Y-94075785D01*
X107005428Y-94028166D01*
X106767333Y-94028166D01*
X106576857Y-94075785D01*
X106481619Y-94123404D01*
X106434000Y-94171023D01*
X106386380Y-94266261D01*
X107291142Y-95028166D02*
X107338761Y-95075785D01*
X107386380Y-95028166D01*
X107338761Y-94980547D01*
X107291142Y-95028166D01*
X107386380Y-95028166D01*
X106386380Y-95694833D02*
X106386380Y-95790071D01*
X106434000Y-95885309D01*
X106481619Y-95932928D01*
X106576857Y-95980547D01*
X106767333Y-96028166D01*
X107005428Y-96028166D01*
X107195904Y-95980547D01*
X107291142Y-95932928D01*
X107338761Y-95885309D01*
X107386380Y-95790071D01*
X107386380Y-95694833D01*
X107338761Y-95599595D01*
X107291142Y-95551976D01*
X107195904Y-95504357D01*
X107005428Y-95456738D01*
X106767333Y-95456738D01*
X106576857Y-95504357D01*
X106481619Y-95551976D01*
X106434000Y-95599595D01*
X106386380Y-95694833D01*
X106386380Y-96885309D02*
X106386380Y-96694833D01*
X106434000Y-96599595D01*
X106481619Y-96551976D01*
X106624476Y-96456738D01*
X106814952Y-96409119D01*
X107195904Y-96409119D01*
X107291142Y-96456738D01*
X107338761Y-96504357D01*
X107386380Y-96599595D01*
X107386380Y-96790071D01*
X107338761Y-96885309D01*
X107291142Y-96932928D01*
X107195904Y-96980547D01*
X106957809Y-96980547D01*
X106862571Y-96932928D01*
X106814952Y-96885309D01*
X106767333Y-96790071D01*
X106767333Y-96599595D01*
X106814952Y-96504357D01*
X106862571Y-96456738D01*
X106957809Y-96409119D01*
X107005428Y-98171023D02*
X107005428Y-98932928D01*
X106338761Y-100885309D02*
X107624476Y-100028166D01*
X107291142Y-101790071D02*
X107338761Y-101742452D01*
X107386380Y-101599595D01*
X107386380Y-101504357D01*
X107338761Y-101361500D01*
X107243523Y-101266261D01*
X107148285Y-101218642D01*
X106957809Y-101171023D01*
X106814952Y-101171023D01*
X106624476Y-101218642D01*
X106529238Y-101266261D01*
X106434000Y-101361500D01*
X106386380Y-101504357D01*
X106386380Y-101599595D01*
X106434000Y-101742452D01*
X106481619Y-101790071D01*
X107338761Y-102171023D02*
X107386380Y-102313880D01*
X107386380Y-102551976D01*
X107338761Y-102647214D01*
X107291142Y-102694833D01*
X107195904Y-102742452D01*
X107100666Y-102742452D01*
X107005428Y-102694833D01*
X106957809Y-102647214D01*
X106910190Y-102551976D01*
X106862571Y-102361500D01*
X106814952Y-102266261D01*
X106767333Y-102218642D01*
X106672095Y-102171023D01*
X106576857Y-102171023D01*
X106481619Y-102218642D01*
X106434000Y-102266261D01*
X106386380Y-102361500D01*
X106386380Y-102599595D01*
X106434000Y-102742452D01*
X107386380Y-103694833D02*
X107386380Y-103123404D01*
X107386380Y-103409119D02*
X106386380Y-103409119D01*
X106529238Y-103313880D01*
X106624476Y-103218642D01*
X106672095Y-103123404D01*
D10*
X103797571Y-93960285D02*
X103797571Y-93246000D01*
X102297571Y-93246000D01*
X103654714Y-95317428D02*
X103726142Y-95246000D01*
X103797571Y-95031714D01*
X103797571Y-94888857D01*
X103726142Y-94674571D01*
X103583285Y-94531714D01*
X103440428Y-94460285D01*
X103154714Y-94388857D01*
X102940428Y-94388857D01*
X102654714Y-94460285D01*
X102511857Y-94531714D01*
X102369000Y-94674571D01*
X102297571Y-94888857D01*
X102297571Y-95031714D01*
X102369000Y-95246000D01*
X102440428Y-95317428D01*
X103797571Y-95960285D02*
X102297571Y-95960285D01*
X102297571Y-96317428D01*
X102369000Y-96531714D01*
X102511857Y-96674571D01*
X102654714Y-96746000D01*
X102940428Y-96817428D01*
X103154714Y-96817428D01*
X103440428Y-96746000D01*
X103583285Y-96674571D01*
X103726142Y-96531714D01*
X103797571Y-96317428D01*
X103797571Y-95960285D01*
D12*
X162273619Y-118768761D02*
X162130761Y-118816380D01*
X161892666Y-118816380D01*
X161797428Y-118768761D01*
X161749809Y-118721142D01*
X161702190Y-118625904D01*
X161702190Y-118530666D01*
X161749809Y-118435428D01*
X161797428Y-118387809D01*
X161892666Y-118340190D01*
X162083142Y-118292571D01*
X162178380Y-118244952D01*
X162226000Y-118197333D01*
X162273619Y-118102095D01*
X162273619Y-118006857D01*
X162226000Y-117911619D01*
X162178380Y-117864000D01*
X162083142Y-117816380D01*
X161845047Y-117816380D01*
X161702190Y-117864000D01*
X161368857Y-117816380D02*
X161130761Y-118816380D01*
X160940285Y-118102095D01*
X160749809Y-118816380D01*
X160511714Y-117816380D01*
X160130761Y-118816380D02*
X160130761Y-117816380D01*
X159892666Y-117816380D01*
X159749809Y-117864000D01*
X159654571Y-117959238D01*
X159606952Y-118054476D01*
X159559333Y-118244952D01*
X159559333Y-118387809D01*
X159606952Y-118578285D01*
X159654571Y-118673523D01*
X159749809Y-118768761D01*
X159892666Y-118816380D01*
X160130761Y-118816380D01*
X158368857Y-118816380D02*
X158368857Y-117816380D01*
X157892666Y-118149714D02*
X157892666Y-118816380D01*
X157892666Y-118244952D02*
X157845047Y-118197333D01*
X157749809Y-118149714D01*
X157606952Y-118149714D01*
X157511714Y-118197333D01*
X157464095Y-118292571D01*
X157464095Y-118816380D01*
X157130761Y-118149714D02*
X156749809Y-118149714D01*
X156987904Y-117816380D02*
X156987904Y-118673523D01*
X156940285Y-118768761D01*
X156845047Y-118816380D01*
X156749809Y-118816380D01*
X156035523Y-118768761D02*
X156130761Y-118816380D01*
X156321238Y-118816380D01*
X156416476Y-118768761D01*
X156464095Y-118673523D01*
X156464095Y-118292571D01*
X156416476Y-118197333D01*
X156321238Y-118149714D01*
X156130761Y-118149714D01*
X156035523Y-118197333D01*
X155987904Y-118292571D01*
X155987904Y-118387809D01*
X156464095Y-118483047D01*
X155559333Y-118816380D02*
X155559333Y-118149714D01*
X155559333Y-118340190D02*
X155511714Y-118244952D01*
X155464095Y-118197333D01*
X155368857Y-118149714D01*
X155273619Y-118149714D01*
X155083142Y-118149714D02*
X154702190Y-118149714D01*
X154940285Y-118816380D02*
X154940285Y-117959238D01*
X154892666Y-117864000D01*
X154797428Y-117816380D01*
X154702190Y-117816380D01*
X153940285Y-118816380D02*
X153940285Y-118292571D01*
X153987904Y-118197333D01*
X154083142Y-118149714D01*
X154273619Y-118149714D01*
X154368857Y-118197333D01*
X153940285Y-118768761D02*
X154035523Y-118816380D01*
X154273619Y-118816380D01*
X154368857Y-118768761D01*
X154416476Y-118673523D01*
X154416476Y-118578285D01*
X154368857Y-118483047D01*
X154273619Y-118435428D01*
X154035523Y-118435428D01*
X153940285Y-118387809D01*
X153035523Y-118768761D02*
X153130761Y-118816380D01*
X153321238Y-118816380D01*
X153416476Y-118768761D01*
X153464095Y-118721142D01*
X153511714Y-118625904D01*
X153511714Y-118340190D01*
X153464095Y-118244952D01*
X153416476Y-118197333D01*
X153321238Y-118149714D01*
X153130761Y-118149714D01*
X153035523Y-118197333D01*
X152226000Y-118768761D02*
X152321238Y-118816380D01*
X152511714Y-118816380D01*
X152606952Y-118768761D01*
X152654571Y-118673523D01*
X152654571Y-118292571D01*
X152606952Y-118197333D01*
X152511714Y-118149714D01*
X152321238Y-118149714D01*
X152226000Y-118197333D01*
X152178380Y-118292571D01*
X152178380Y-118387809D01*
X152654571Y-118483047D01*
X120467380Y-115292428D02*
X119467380Y-115292428D01*
X119467380Y-115673380D01*
X119515000Y-115768619D01*
X119562619Y-115816238D01*
X119657857Y-115863857D01*
X119800714Y-115863857D01*
X119895952Y-115816238D01*
X119943571Y-115768619D01*
X119991190Y-115673380D01*
X119991190Y-115292428D01*
X119467380Y-116482904D02*
X119467380Y-116578142D01*
X119515000Y-116673380D01*
X119562619Y-116721000D01*
X119657857Y-116768619D01*
X119848333Y-116816238D01*
X120086428Y-116816238D01*
X120276904Y-116768619D01*
X120372142Y-116721000D01*
X120419761Y-116673380D01*
X120467380Y-116578142D01*
X120467380Y-116482904D01*
X120419761Y-116387666D01*
X120372142Y-116340047D01*
X120276904Y-116292428D01*
X120086428Y-116244809D01*
X119848333Y-116244809D01*
X119657857Y-116292428D01*
X119562619Y-116340047D01*
X119515000Y-116387666D01*
X119467380Y-116482904D01*
X120372142Y-117244809D02*
X120419761Y-117292428D01*
X120467380Y-117244809D01*
X120419761Y-117197190D01*
X120372142Y-117244809D01*
X120467380Y-117244809D01*
X120467380Y-118244809D02*
X120467380Y-117673380D01*
X120467380Y-117959095D02*
X119467380Y-117959095D01*
X119610238Y-117863857D01*
X119705476Y-117768619D01*
X119753095Y-117673380D01*
X119800714Y-119101952D02*
X120467380Y-119101952D01*
X119419761Y-118863857D02*
X120134047Y-118625761D01*
X120134047Y-119244809D01*
X116974880Y-115292428D02*
X115974880Y-115292428D01*
X115974880Y-115673380D01*
X116022500Y-115768619D01*
X116070119Y-115816238D01*
X116165357Y-115863857D01*
X116308214Y-115863857D01*
X116403452Y-115816238D01*
X116451071Y-115768619D01*
X116498690Y-115673380D01*
X116498690Y-115292428D01*
X115974880Y-116482904D02*
X115974880Y-116578142D01*
X116022500Y-116673380D01*
X116070119Y-116721000D01*
X116165357Y-116768619D01*
X116355833Y-116816238D01*
X116593928Y-116816238D01*
X116784404Y-116768619D01*
X116879642Y-116721000D01*
X116927261Y-116673380D01*
X116974880Y-116578142D01*
X116974880Y-116482904D01*
X116927261Y-116387666D01*
X116879642Y-116340047D01*
X116784404Y-116292428D01*
X116593928Y-116244809D01*
X116355833Y-116244809D01*
X116165357Y-116292428D01*
X116070119Y-116340047D01*
X116022500Y-116387666D01*
X115974880Y-116482904D01*
X116879642Y-117244809D02*
X116927261Y-117292428D01*
X116974880Y-117244809D01*
X116927261Y-117197190D01*
X116879642Y-117244809D01*
X116974880Y-117244809D01*
X116974880Y-118244809D02*
X116974880Y-117673380D01*
X116974880Y-117959095D02*
X115974880Y-117959095D01*
X116117738Y-117863857D01*
X116212976Y-117768619D01*
X116260595Y-117673380D01*
X115974880Y-118578142D02*
X115974880Y-119197190D01*
X116355833Y-118863857D01*
X116355833Y-119006714D01*
X116403452Y-119101952D01*
X116451071Y-119149571D01*
X116546309Y-119197190D01*
X116784404Y-119197190D01*
X116879642Y-119149571D01*
X116927261Y-119101952D01*
X116974880Y-119006714D01*
X116974880Y-118721000D01*
X116927261Y-118625761D01*
X116879642Y-118578142D01*
X114323761Y-111435047D02*
X114371380Y-111577904D01*
X114371380Y-111816000D01*
X114323761Y-111911238D01*
X114276142Y-111958857D01*
X114180904Y-112006476D01*
X114085666Y-112006476D01*
X113990428Y-111958857D01*
X113942809Y-111911238D01*
X113895190Y-111816000D01*
X113847571Y-111625523D01*
X113799952Y-111530285D01*
X113752333Y-111482666D01*
X113657095Y-111435047D01*
X113561857Y-111435047D01*
X113466619Y-111482666D01*
X113419000Y-111530285D01*
X113371380Y-111625523D01*
X113371380Y-111863619D01*
X113419000Y-112006476D01*
X114276142Y-113006476D02*
X114323761Y-112958857D01*
X114371380Y-112816000D01*
X114371380Y-112720761D01*
X114323761Y-112577904D01*
X114228523Y-112482666D01*
X114133285Y-112435047D01*
X113942809Y-112387428D01*
X113799952Y-112387428D01*
X113609476Y-112435047D01*
X113514238Y-112482666D01*
X113419000Y-112577904D01*
X113371380Y-112720761D01*
X113371380Y-112816000D01*
X113419000Y-112958857D01*
X113466619Y-113006476D01*
X114371380Y-113911238D02*
X114371380Y-113435047D01*
X113371380Y-113435047D01*
X113323761Y-114958857D02*
X114609476Y-114101714D01*
X114371380Y-115292190D02*
X113371380Y-115292190D01*
X113371380Y-115673142D01*
X113419000Y-115768380D01*
X113466619Y-115816000D01*
X113561857Y-115863619D01*
X113704714Y-115863619D01*
X113799952Y-115816000D01*
X113847571Y-115768380D01*
X113895190Y-115673142D01*
X113895190Y-115292190D01*
X113371380Y-116482666D02*
X113371380Y-116577904D01*
X113419000Y-116673142D01*
X113466619Y-116720761D01*
X113561857Y-116768380D01*
X113752333Y-116816000D01*
X113990428Y-116816000D01*
X114180904Y-116768380D01*
X114276142Y-116720761D01*
X114323761Y-116673142D01*
X114371380Y-116577904D01*
X114371380Y-116482666D01*
X114323761Y-116387428D01*
X114276142Y-116339809D01*
X114180904Y-116292190D01*
X113990428Y-116244571D01*
X113752333Y-116244571D01*
X113561857Y-116292190D01*
X113466619Y-116339809D01*
X113419000Y-116387428D01*
X113371380Y-116482666D01*
X114276142Y-117244571D02*
X114323761Y-117292190D01*
X114371380Y-117244571D01*
X114323761Y-117196952D01*
X114276142Y-117244571D01*
X114371380Y-117244571D01*
X114371380Y-118244571D02*
X114371380Y-117673142D01*
X114371380Y-117958857D02*
X113371380Y-117958857D01*
X113514238Y-117863619D01*
X113609476Y-117768380D01*
X113657095Y-117673142D01*
X113466619Y-118625523D02*
X113419000Y-118673142D01*
X113371380Y-118768380D01*
X113371380Y-119006476D01*
X113419000Y-119101714D01*
X113466619Y-119149333D01*
X113561857Y-119196952D01*
X113657095Y-119196952D01*
X113799952Y-119149333D01*
X114371380Y-118577904D01*
X114371380Y-119196952D01*
X111783761Y-111411238D02*
X111831380Y-111554095D01*
X111831380Y-111792190D01*
X111783761Y-111887428D01*
X111736142Y-111935047D01*
X111640904Y-111982666D01*
X111545666Y-111982666D01*
X111450428Y-111935047D01*
X111402809Y-111887428D01*
X111355190Y-111792190D01*
X111307571Y-111601714D01*
X111259952Y-111506476D01*
X111212333Y-111458857D01*
X111117095Y-111411238D01*
X111021857Y-111411238D01*
X110926619Y-111458857D01*
X110879000Y-111506476D01*
X110831380Y-111601714D01*
X110831380Y-111839809D01*
X110879000Y-111982666D01*
X111831380Y-112411238D02*
X110831380Y-112411238D01*
X110831380Y-112649333D01*
X110879000Y-112792190D01*
X110974238Y-112887428D01*
X111069476Y-112935047D01*
X111259952Y-112982666D01*
X111402809Y-112982666D01*
X111593285Y-112935047D01*
X111688523Y-112887428D01*
X111783761Y-112792190D01*
X111831380Y-112649333D01*
X111831380Y-112411238D01*
X111545666Y-113363619D02*
X111545666Y-113839809D01*
X111831380Y-113268380D02*
X110831380Y-113601714D01*
X111831380Y-113935047D01*
X110783761Y-114982666D02*
X112069476Y-114125523D01*
X111831380Y-115316000D02*
X110831380Y-115316000D01*
X110831380Y-115696952D01*
X110879000Y-115792190D01*
X110926619Y-115839809D01*
X111021857Y-115887428D01*
X111164714Y-115887428D01*
X111259952Y-115839809D01*
X111307571Y-115792190D01*
X111355190Y-115696952D01*
X111355190Y-115316000D01*
X110831380Y-116506476D02*
X110831380Y-116601714D01*
X110879000Y-116696952D01*
X110926619Y-116744571D01*
X111021857Y-116792190D01*
X111212333Y-116839809D01*
X111450428Y-116839809D01*
X111640904Y-116792190D01*
X111736142Y-116744571D01*
X111783761Y-116696952D01*
X111831380Y-116601714D01*
X111831380Y-116506476D01*
X111783761Y-116411238D01*
X111736142Y-116363619D01*
X111640904Y-116316000D01*
X111450428Y-116268380D01*
X111212333Y-116268380D01*
X111021857Y-116316000D01*
X110926619Y-116363619D01*
X110879000Y-116411238D01*
X110831380Y-116506476D01*
X111736142Y-117268380D02*
X111783761Y-117316000D01*
X111831380Y-117268380D01*
X111783761Y-117220761D01*
X111736142Y-117268380D01*
X111831380Y-117268380D01*
X111831380Y-118268380D02*
X111831380Y-117696952D01*
X111831380Y-117982666D02*
X110831380Y-117982666D01*
X110974238Y-117887428D01*
X111069476Y-117792190D01*
X111117095Y-117696952D01*
X111831380Y-119220761D02*
X111831380Y-118649333D01*
X111831380Y-118935047D02*
X110831380Y-118935047D01*
X110974238Y-118839809D01*
X111069476Y-118744571D01*
X111117095Y-118649333D01*
X122181880Y-115419428D02*
X121181880Y-115419428D01*
X121181880Y-115800380D01*
X121229500Y-115895619D01*
X121277119Y-115943238D01*
X121372357Y-115990857D01*
X121515214Y-115990857D01*
X121610452Y-115943238D01*
X121658071Y-115895619D01*
X121705690Y-115800380D01*
X121705690Y-115419428D01*
X121181880Y-116609904D02*
X121181880Y-116705142D01*
X121229500Y-116800380D01*
X121277119Y-116848000D01*
X121372357Y-116895619D01*
X121562833Y-116943238D01*
X121800928Y-116943238D01*
X121991404Y-116895619D01*
X122086642Y-116848000D01*
X122134261Y-116800380D01*
X122181880Y-116705142D01*
X122181880Y-116609904D01*
X122134261Y-116514666D01*
X122086642Y-116467047D01*
X121991404Y-116419428D01*
X121800928Y-116371809D01*
X121562833Y-116371809D01*
X121372357Y-116419428D01*
X121277119Y-116467047D01*
X121229500Y-116514666D01*
X121181880Y-116609904D01*
X122086642Y-117371809D02*
X122134261Y-117419428D01*
X122181880Y-117371809D01*
X122134261Y-117324190D01*
X122086642Y-117371809D01*
X122181880Y-117371809D01*
X122181880Y-118371809D02*
X122181880Y-117800380D01*
X122181880Y-118086095D02*
X121181880Y-118086095D01*
X121324738Y-117990857D01*
X121419976Y-117895619D01*
X121467595Y-117800380D01*
X121181880Y-119276571D02*
X121181880Y-118800380D01*
X121658071Y-118752761D01*
X121610452Y-118800380D01*
X121562833Y-118895619D01*
X121562833Y-119133714D01*
X121610452Y-119228952D01*
X121658071Y-119276571D01*
X121753309Y-119324190D01*
X121991404Y-119324190D01*
X122086642Y-119276571D01*
X122134261Y-119228952D01*
X122181880Y-119133714D01*
X122181880Y-118895619D01*
X122134261Y-118800380D01*
X122086642Y-118752761D01*
X124658380Y-115419428D02*
X123658380Y-115419428D01*
X123658380Y-115800380D01*
X123706000Y-115895619D01*
X123753619Y-115943238D01*
X123848857Y-115990857D01*
X123991714Y-115990857D01*
X124086952Y-115943238D01*
X124134571Y-115895619D01*
X124182190Y-115800380D01*
X124182190Y-115419428D01*
X123658380Y-116609904D02*
X123658380Y-116705142D01*
X123706000Y-116800380D01*
X123753619Y-116848000D01*
X123848857Y-116895619D01*
X124039333Y-116943238D01*
X124277428Y-116943238D01*
X124467904Y-116895619D01*
X124563142Y-116848000D01*
X124610761Y-116800380D01*
X124658380Y-116705142D01*
X124658380Y-116609904D01*
X124610761Y-116514666D01*
X124563142Y-116467047D01*
X124467904Y-116419428D01*
X124277428Y-116371809D01*
X124039333Y-116371809D01*
X123848857Y-116419428D01*
X123753619Y-116467047D01*
X123706000Y-116514666D01*
X123658380Y-116609904D01*
X124563142Y-117371809D02*
X124610761Y-117419428D01*
X124658380Y-117371809D01*
X124610761Y-117324190D01*
X124563142Y-117371809D01*
X124658380Y-117371809D01*
X124658380Y-118371809D02*
X124658380Y-117800380D01*
X124658380Y-118086095D02*
X123658380Y-118086095D01*
X123801238Y-117990857D01*
X123896476Y-117895619D01*
X123944095Y-117800380D01*
X123658380Y-119228952D02*
X123658380Y-119038476D01*
X123706000Y-118943238D01*
X123753619Y-118895619D01*
X123896476Y-118800380D01*
X124086952Y-118752761D01*
X124467904Y-118752761D01*
X124563142Y-118800380D01*
X124610761Y-118848000D01*
X124658380Y-118943238D01*
X124658380Y-119133714D01*
X124610761Y-119228952D01*
X124563142Y-119276571D01*
X124467904Y-119324190D01*
X124229809Y-119324190D01*
X124134571Y-119276571D01*
X124086952Y-119228952D01*
X124039333Y-119133714D01*
X124039333Y-118943238D01*
X124086952Y-118848000D01*
X124134571Y-118800380D01*
X124229809Y-118752761D01*
X127261880Y-115355928D02*
X126261880Y-115355928D01*
X126261880Y-115736880D01*
X126309500Y-115832119D01*
X126357119Y-115879738D01*
X126452357Y-115927357D01*
X126595214Y-115927357D01*
X126690452Y-115879738D01*
X126738071Y-115832119D01*
X126785690Y-115736880D01*
X126785690Y-115355928D01*
X126261880Y-116546404D02*
X126261880Y-116641642D01*
X126309500Y-116736880D01*
X126357119Y-116784500D01*
X126452357Y-116832119D01*
X126642833Y-116879738D01*
X126880928Y-116879738D01*
X127071404Y-116832119D01*
X127166642Y-116784500D01*
X127214261Y-116736880D01*
X127261880Y-116641642D01*
X127261880Y-116546404D01*
X127214261Y-116451166D01*
X127166642Y-116403547D01*
X127071404Y-116355928D01*
X126880928Y-116308309D01*
X126642833Y-116308309D01*
X126452357Y-116355928D01*
X126357119Y-116403547D01*
X126309500Y-116451166D01*
X126261880Y-116546404D01*
X127166642Y-117308309D02*
X127214261Y-117355928D01*
X127261880Y-117308309D01*
X127214261Y-117260690D01*
X127166642Y-117308309D01*
X127261880Y-117308309D01*
X127261880Y-118308309D02*
X127261880Y-117736880D01*
X127261880Y-118022595D02*
X126261880Y-118022595D01*
X126404738Y-117927357D01*
X126499976Y-117832119D01*
X126547595Y-117736880D01*
X126261880Y-118641642D02*
X126261880Y-119308309D01*
X127261880Y-118879738D01*
X129674880Y-115355928D02*
X128674880Y-115355928D01*
X128674880Y-115736880D01*
X128722500Y-115832119D01*
X128770119Y-115879738D01*
X128865357Y-115927357D01*
X129008214Y-115927357D01*
X129103452Y-115879738D01*
X129151071Y-115832119D01*
X129198690Y-115736880D01*
X129198690Y-115355928D01*
X128674880Y-116546404D02*
X128674880Y-116641642D01*
X128722500Y-116736880D01*
X128770119Y-116784500D01*
X128865357Y-116832119D01*
X129055833Y-116879738D01*
X129293928Y-116879738D01*
X129484404Y-116832119D01*
X129579642Y-116784500D01*
X129627261Y-116736880D01*
X129674880Y-116641642D01*
X129674880Y-116546404D01*
X129627261Y-116451166D01*
X129579642Y-116403547D01*
X129484404Y-116355928D01*
X129293928Y-116308309D01*
X129055833Y-116308309D01*
X128865357Y-116355928D01*
X128770119Y-116403547D01*
X128722500Y-116451166D01*
X128674880Y-116546404D01*
X129579642Y-117308309D02*
X129627261Y-117355928D01*
X129674880Y-117308309D01*
X129627261Y-117260690D01*
X129579642Y-117308309D01*
X129674880Y-117308309D01*
X129674880Y-118308309D02*
X129674880Y-117736880D01*
X129674880Y-118022595D02*
X128674880Y-118022595D01*
X128817738Y-117927357D01*
X128912976Y-117832119D01*
X128960595Y-117736880D01*
X129103452Y-118879738D02*
X129055833Y-118784500D01*
X129008214Y-118736880D01*
X128912976Y-118689261D01*
X128865357Y-118689261D01*
X128770119Y-118736880D01*
X128722500Y-118784500D01*
X128674880Y-118879738D01*
X128674880Y-119070214D01*
X128722500Y-119165452D01*
X128770119Y-119213071D01*
X128865357Y-119260690D01*
X128912976Y-119260690D01*
X129008214Y-119213071D01*
X129055833Y-119165452D01*
X129103452Y-119070214D01*
X129103452Y-118879738D01*
X129151071Y-118784500D01*
X129198690Y-118736880D01*
X129293928Y-118689261D01*
X129484404Y-118689261D01*
X129579642Y-118736880D01*
X129627261Y-118784500D01*
X129674880Y-118879738D01*
X129674880Y-119070214D01*
X129627261Y-119165452D01*
X129579642Y-119213071D01*
X129484404Y-119260690D01*
X129293928Y-119260690D01*
X129198690Y-119213071D01*
X129151071Y-119165452D01*
X129103452Y-119070214D01*
X132341880Y-115292428D02*
X131341880Y-115292428D01*
X131341880Y-115673380D01*
X131389500Y-115768619D01*
X131437119Y-115816238D01*
X131532357Y-115863857D01*
X131675214Y-115863857D01*
X131770452Y-115816238D01*
X131818071Y-115768619D01*
X131865690Y-115673380D01*
X131865690Y-115292428D01*
X131341880Y-116482904D02*
X131341880Y-116578142D01*
X131389500Y-116673380D01*
X131437119Y-116721000D01*
X131532357Y-116768619D01*
X131722833Y-116816238D01*
X131960928Y-116816238D01*
X132151404Y-116768619D01*
X132246642Y-116721000D01*
X132294261Y-116673380D01*
X132341880Y-116578142D01*
X132341880Y-116482904D01*
X132294261Y-116387666D01*
X132246642Y-116340047D01*
X132151404Y-116292428D01*
X131960928Y-116244809D01*
X131722833Y-116244809D01*
X131532357Y-116292428D01*
X131437119Y-116340047D01*
X131389500Y-116387666D01*
X131341880Y-116482904D01*
X132246642Y-117244809D02*
X132294261Y-117292428D01*
X132341880Y-117244809D01*
X132294261Y-117197190D01*
X132246642Y-117244809D01*
X132341880Y-117244809D01*
X132341880Y-118244809D02*
X132341880Y-117673380D01*
X132341880Y-117959095D02*
X131341880Y-117959095D01*
X131484738Y-117863857D01*
X131579976Y-117768619D01*
X131627595Y-117673380D01*
X132341880Y-118721000D02*
X132341880Y-118911476D01*
X132294261Y-119006714D01*
X132246642Y-119054333D01*
X132103785Y-119149571D01*
X131913309Y-119197190D01*
X131532357Y-119197190D01*
X131437119Y-119149571D01*
X131389500Y-119101952D01*
X131341880Y-119006714D01*
X131341880Y-118816238D01*
X131389500Y-118721000D01*
X131437119Y-118673380D01*
X131532357Y-118625761D01*
X131770452Y-118625761D01*
X131865690Y-118673380D01*
X131913309Y-118721000D01*
X131960928Y-118816238D01*
X131960928Y-119006714D01*
X131913309Y-119101952D01*
X131865690Y-119149571D01*
X131770452Y-119197190D01*
X134818380Y-115419428D02*
X133818380Y-115419428D01*
X133818380Y-115800380D01*
X133866000Y-115895619D01*
X133913619Y-115943238D01*
X134008857Y-115990857D01*
X134151714Y-115990857D01*
X134246952Y-115943238D01*
X134294571Y-115895619D01*
X134342190Y-115800380D01*
X134342190Y-115419428D01*
X133818380Y-116609904D02*
X133818380Y-116705142D01*
X133866000Y-116800380D01*
X133913619Y-116848000D01*
X134008857Y-116895619D01*
X134199333Y-116943238D01*
X134437428Y-116943238D01*
X134627904Y-116895619D01*
X134723142Y-116848000D01*
X134770761Y-116800380D01*
X134818380Y-116705142D01*
X134818380Y-116609904D01*
X134770761Y-116514666D01*
X134723142Y-116467047D01*
X134627904Y-116419428D01*
X134437428Y-116371809D01*
X134199333Y-116371809D01*
X134008857Y-116419428D01*
X133913619Y-116467047D01*
X133866000Y-116514666D01*
X133818380Y-116609904D01*
X134723142Y-117371809D02*
X134770761Y-117419428D01*
X134818380Y-117371809D01*
X134770761Y-117324190D01*
X134723142Y-117371809D01*
X134818380Y-117371809D01*
X133913619Y-117800380D02*
X133866000Y-117848000D01*
X133818380Y-117943238D01*
X133818380Y-118181333D01*
X133866000Y-118276571D01*
X133913619Y-118324190D01*
X134008857Y-118371809D01*
X134104095Y-118371809D01*
X134246952Y-118324190D01*
X134818380Y-117752761D01*
X134818380Y-118371809D01*
X133818380Y-118990857D02*
X133818380Y-119086095D01*
X133866000Y-119181333D01*
X133913619Y-119228952D01*
X134008857Y-119276571D01*
X134199333Y-119324190D01*
X134437428Y-119324190D01*
X134627904Y-119276571D01*
X134723142Y-119228952D01*
X134770761Y-119181333D01*
X134818380Y-119086095D01*
X134818380Y-118990857D01*
X134770761Y-118895619D01*
X134723142Y-118848000D01*
X134627904Y-118800380D01*
X134437428Y-118752761D01*
X134199333Y-118752761D01*
X134008857Y-118800380D01*
X133913619Y-118848000D01*
X133866000Y-118895619D01*
X133818380Y-118990857D01*
X139898380Y-115292428D02*
X138898380Y-115292428D01*
X138898380Y-115673380D01*
X138946000Y-115768619D01*
X138993619Y-115816238D01*
X139088857Y-115863857D01*
X139231714Y-115863857D01*
X139326952Y-115816238D01*
X139374571Y-115768619D01*
X139422190Y-115673380D01*
X139422190Y-115292428D01*
X138898380Y-116482904D02*
X138898380Y-116578142D01*
X138946000Y-116673380D01*
X138993619Y-116721000D01*
X139088857Y-116768619D01*
X139279333Y-116816238D01*
X139517428Y-116816238D01*
X139707904Y-116768619D01*
X139803142Y-116721000D01*
X139850761Y-116673380D01*
X139898380Y-116578142D01*
X139898380Y-116482904D01*
X139850761Y-116387666D01*
X139803142Y-116340047D01*
X139707904Y-116292428D01*
X139517428Y-116244809D01*
X139279333Y-116244809D01*
X139088857Y-116292428D01*
X138993619Y-116340047D01*
X138946000Y-116387666D01*
X138898380Y-116482904D01*
X139803142Y-117244809D02*
X139850761Y-117292428D01*
X139898380Y-117244809D01*
X139850761Y-117197190D01*
X139803142Y-117244809D01*
X139898380Y-117244809D01*
X138993619Y-117673380D02*
X138946000Y-117721000D01*
X138898380Y-117816238D01*
X138898380Y-118054333D01*
X138946000Y-118149571D01*
X138993619Y-118197190D01*
X139088857Y-118244809D01*
X139184095Y-118244809D01*
X139326952Y-118197190D01*
X139898380Y-117625761D01*
X139898380Y-118244809D01*
X138993619Y-118625761D02*
X138946000Y-118673380D01*
X138898380Y-118768619D01*
X138898380Y-119006714D01*
X138946000Y-119101952D01*
X138993619Y-119149571D01*
X139088857Y-119197190D01*
X139184095Y-119197190D01*
X139326952Y-119149571D01*
X139898380Y-118578142D01*
X139898380Y-119197190D01*
X142374880Y-115292428D02*
X141374880Y-115292428D01*
X141374880Y-115673380D01*
X141422500Y-115768619D01*
X141470119Y-115816238D01*
X141565357Y-115863857D01*
X141708214Y-115863857D01*
X141803452Y-115816238D01*
X141851071Y-115768619D01*
X141898690Y-115673380D01*
X141898690Y-115292428D01*
X141374880Y-116482904D02*
X141374880Y-116578142D01*
X141422500Y-116673380D01*
X141470119Y-116721000D01*
X141565357Y-116768619D01*
X141755833Y-116816238D01*
X141993928Y-116816238D01*
X142184404Y-116768619D01*
X142279642Y-116721000D01*
X142327261Y-116673380D01*
X142374880Y-116578142D01*
X142374880Y-116482904D01*
X142327261Y-116387666D01*
X142279642Y-116340047D01*
X142184404Y-116292428D01*
X141993928Y-116244809D01*
X141755833Y-116244809D01*
X141565357Y-116292428D01*
X141470119Y-116340047D01*
X141422500Y-116387666D01*
X141374880Y-116482904D01*
X142279642Y-117244809D02*
X142327261Y-117292428D01*
X142374880Y-117244809D01*
X142327261Y-117197190D01*
X142279642Y-117244809D01*
X142374880Y-117244809D01*
X141470119Y-117673380D02*
X141422500Y-117721000D01*
X141374880Y-117816238D01*
X141374880Y-118054333D01*
X141422500Y-118149571D01*
X141470119Y-118197190D01*
X141565357Y-118244809D01*
X141660595Y-118244809D01*
X141803452Y-118197190D01*
X142374880Y-117625761D01*
X142374880Y-118244809D01*
X141374880Y-118578142D02*
X141374880Y-119197190D01*
X141755833Y-118863857D01*
X141755833Y-119006714D01*
X141803452Y-119101952D01*
X141851071Y-119149571D01*
X141946309Y-119197190D01*
X142184404Y-119197190D01*
X142279642Y-119149571D01*
X142327261Y-119101952D01*
X142374880Y-119006714D01*
X142374880Y-118721000D01*
X142327261Y-118625761D01*
X142279642Y-118578142D01*
X144914880Y-115292428D02*
X143914880Y-115292428D01*
X143914880Y-115673380D01*
X143962500Y-115768619D01*
X144010119Y-115816238D01*
X144105357Y-115863857D01*
X144248214Y-115863857D01*
X144343452Y-115816238D01*
X144391071Y-115768619D01*
X144438690Y-115673380D01*
X144438690Y-115292428D01*
X143914880Y-116482904D02*
X143914880Y-116578142D01*
X143962500Y-116673380D01*
X144010119Y-116721000D01*
X144105357Y-116768619D01*
X144295833Y-116816238D01*
X144533928Y-116816238D01*
X144724404Y-116768619D01*
X144819642Y-116721000D01*
X144867261Y-116673380D01*
X144914880Y-116578142D01*
X144914880Y-116482904D01*
X144867261Y-116387666D01*
X144819642Y-116340047D01*
X144724404Y-116292428D01*
X144533928Y-116244809D01*
X144295833Y-116244809D01*
X144105357Y-116292428D01*
X144010119Y-116340047D01*
X143962500Y-116387666D01*
X143914880Y-116482904D01*
X144819642Y-117244809D02*
X144867261Y-117292428D01*
X144914880Y-117244809D01*
X144867261Y-117197190D01*
X144819642Y-117244809D01*
X144914880Y-117244809D01*
X144010119Y-117673380D02*
X143962500Y-117721000D01*
X143914880Y-117816238D01*
X143914880Y-118054333D01*
X143962500Y-118149571D01*
X144010119Y-118197190D01*
X144105357Y-118244809D01*
X144200595Y-118244809D01*
X144343452Y-118197190D01*
X144914880Y-117625761D01*
X144914880Y-118244809D01*
X144248214Y-119101952D02*
X144914880Y-119101952D01*
X143867261Y-118863857D02*
X144581547Y-118625761D01*
X144581547Y-119244809D01*
X146439000Y-117221095D02*
X146391380Y-117125857D01*
X146391380Y-116983000D01*
X146439000Y-116840142D01*
X146534238Y-116744904D01*
X146629476Y-116697285D01*
X146819952Y-116649666D01*
X146962809Y-116649666D01*
X147153285Y-116697285D01*
X147248523Y-116744904D01*
X147343761Y-116840142D01*
X147391380Y-116983000D01*
X147391380Y-117078238D01*
X147343761Y-117221095D01*
X147296142Y-117268714D01*
X146962809Y-117268714D01*
X146962809Y-117078238D01*
X147391380Y-117697285D02*
X146391380Y-117697285D01*
X147391380Y-118268714D01*
X146391380Y-118268714D01*
X147391380Y-118744904D02*
X146391380Y-118744904D01*
X146391380Y-118983000D01*
X146439000Y-119125857D01*
X146534238Y-119221095D01*
X146629476Y-119268714D01*
X146819952Y-119316333D01*
X146962809Y-119316333D01*
X147153285Y-119268714D01*
X147248523Y-119221095D01*
X147343761Y-119125857D01*
X147391380Y-118983000D01*
X147391380Y-118744904D01*
X171854880Y-79502119D02*
X172854880Y-79835452D01*
X171854880Y-80168785D01*
X172473928Y-80502119D02*
X172473928Y-81264023D01*
X172854880Y-80883071D02*
X172092976Y-80883071D01*
X170187880Y-78652928D02*
X169187880Y-78652928D01*
X169187880Y-79033880D01*
X169235500Y-79129119D01*
X169283119Y-79176738D01*
X169378357Y-79224357D01*
X169521214Y-79224357D01*
X169616452Y-79176738D01*
X169664071Y-79129119D01*
X169711690Y-79033880D01*
X169711690Y-78652928D01*
X169187880Y-79843404D02*
X169187880Y-79938642D01*
X169235500Y-80033880D01*
X169283119Y-80081500D01*
X169378357Y-80129119D01*
X169568833Y-80176738D01*
X169806928Y-80176738D01*
X169997404Y-80129119D01*
X170092642Y-80081500D01*
X170140261Y-80033880D01*
X170187880Y-79938642D01*
X170187880Y-79843404D01*
X170140261Y-79748166D01*
X170092642Y-79700547D01*
X169997404Y-79652928D01*
X169806928Y-79605309D01*
X169568833Y-79605309D01*
X169378357Y-79652928D01*
X169283119Y-79700547D01*
X169235500Y-79748166D01*
X169187880Y-79843404D01*
X170092642Y-80605309D02*
X170140261Y-80652928D01*
X170187880Y-80605309D01*
X170140261Y-80557690D01*
X170092642Y-80605309D01*
X170187880Y-80605309D01*
X169283119Y-81033880D02*
X169235500Y-81081500D01*
X169187880Y-81176738D01*
X169187880Y-81414833D01*
X169235500Y-81510071D01*
X169283119Y-81557690D01*
X169378357Y-81605309D01*
X169473595Y-81605309D01*
X169616452Y-81557690D01*
X170187880Y-80986261D01*
X170187880Y-81605309D01*
X169187880Y-82510071D02*
X169187880Y-82033880D01*
X169664071Y-81986261D01*
X169616452Y-82033880D01*
X169568833Y-82129119D01*
X169568833Y-82367214D01*
X169616452Y-82462452D01*
X169664071Y-82510071D01*
X169759309Y-82557690D01*
X169997404Y-82557690D01*
X170092642Y-82510071D01*
X170140261Y-82462452D01*
X170187880Y-82367214D01*
X170187880Y-82129119D01*
X170140261Y-82033880D01*
X170092642Y-81986261D01*
X167838380Y-78716428D02*
X166838380Y-78716428D01*
X166838380Y-79097380D01*
X166886000Y-79192619D01*
X166933619Y-79240238D01*
X167028857Y-79287857D01*
X167171714Y-79287857D01*
X167266952Y-79240238D01*
X167314571Y-79192619D01*
X167362190Y-79097380D01*
X167362190Y-78716428D01*
X166838380Y-79906904D02*
X166838380Y-80002142D01*
X166886000Y-80097380D01*
X166933619Y-80145000D01*
X167028857Y-80192619D01*
X167219333Y-80240238D01*
X167457428Y-80240238D01*
X167647904Y-80192619D01*
X167743142Y-80145000D01*
X167790761Y-80097380D01*
X167838380Y-80002142D01*
X167838380Y-79906904D01*
X167790761Y-79811666D01*
X167743142Y-79764047D01*
X167647904Y-79716428D01*
X167457428Y-79668809D01*
X167219333Y-79668809D01*
X167028857Y-79716428D01*
X166933619Y-79764047D01*
X166886000Y-79811666D01*
X166838380Y-79906904D01*
X167743142Y-80668809D02*
X167790761Y-80716428D01*
X167838380Y-80668809D01*
X167790761Y-80621190D01*
X167743142Y-80668809D01*
X167838380Y-80668809D01*
X166933619Y-81097380D02*
X166886000Y-81145000D01*
X166838380Y-81240238D01*
X166838380Y-81478333D01*
X166886000Y-81573571D01*
X166933619Y-81621190D01*
X167028857Y-81668809D01*
X167124095Y-81668809D01*
X167266952Y-81621190D01*
X167838380Y-81049761D01*
X167838380Y-81668809D01*
X166838380Y-82525952D02*
X166838380Y-82335476D01*
X166886000Y-82240238D01*
X166933619Y-82192619D01*
X167076476Y-82097380D01*
X167266952Y-82049761D01*
X167647904Y-82049761D01*
X167743142Y-82097380D01*
X167790761Y-82145000D01*
X167838380Y-82240238D01*
X167838380Y-82430714D01*
X167790761Y-82525952D01*
X167743142Y-82573571D01*
X167647904Y-82621190D01*
X167409809Y-82621190D01*
X167314571Y-82573571D01*
X167266952Y-82525952D01*
X167219333Y-82430714D01*
X167219333Y-82240238D01*
X167266952Y-82145000D01*
X167314571Y-82097380D01*
X167409809Y-82049761D01*
X165425380Y-78716428D02*
X164425380Y-78716428D01*
X164425380Y-79097380D01*
X164473000Y-79192619D01*
X164520619Y-79240238D01*
X164615857Y-79287857D01*
X164758714Y-79287857D01*
X164853952Y-79240238D01*
X164901571Y-79192619D01*
X164949190Y-79097380D01*
X164949190Y-78716428D01*
X164425380Y-79906904D02*
X164425380Y-80002142D01*
X164473000Y-80097380D01*
X164520619Y-80145000D01*
X164615857Y-80192619D01*
X164806333Y-80240238D01*
X165044428Y-80240238D01*
X165234904Y-80192619D01*
X165330142Y-80145000D01*
X165377761Y-80097380D01*
X165425380Y-80002142D01*
X165425380Y-79906904D01*
X165377761Y-79811666D01*
X165330142Y-79764047D01*
X165234904Y-79716428D01*
X165044428Y-79668809D01*
X164806333Y-79668809D01*
X164615857Y-79716428D01*
X164520619Y-79764047D01*
X164473000Y-79811666D01*
X164425380Y-79906904D01*
X165330142Y-80668809D02*
X165377761Y-80716428D01*
X165425380Y-80668809D01*
X165377761Y-80621190D01*
X165330142Y-80668809D01*
X165425380Y-80668809D01*
X164520619Y-81097380D02*
X164473000Y-81145000D01*
X164425380Y-81240238D01*
X164425380Y-81478333D01*
X164473000Y-81573571D01*
X164520619Y-81621190D01*
X164615857Y-81668809D01*
X164711095Y-81668809D01*
X164853952Y-81621190D01*
X165425380Y-81049761D01*
X165425380Y-81668809D01*
X164425380Y-82002142D02*
X164425380Y-82668809D01*
X165425380Y-82240238D01*
X162758380Y-78716428D02*
X161758380Y-78716428D01*
X161758380Y-79097380D01*
X161806000Y-79192619D01*
X161853619Y-79240238D01*
X161948857Y-79287857D01*
X162091714Y-79287857D01*
X162186952Y-79240238D01*
X162234571Y-79192619D01*
X162282190Y-79097380D01*
X162282190Y-78716428D01*
X161758380Y-79906904D02*
X161758380Y-80002142D01*
X161806000Y-80097380D01*
X161853619Y-80145000D01*
X161948857Y-80192619D01*
X162139333Y-80240238D01*
X162377428Y-80240238D01*
X162567904Y-80192619D01*
X162663142Y-80145000D01*
X162710761Y-80097380D01*
X162758380Y-80002142D01*
X162758380Y-79906904D01*
X162710761Y-79811666D01*
X162663142Y-79764047D01*
X162567904Y-79716428D01*
X162377428Y-79668809D01*
X162139333Y-79668809D01*
X161948857Y-79716428D01*
X161853619Y-79764047D01*
X161806000Y-79811666D01*
X161758380Y-79906904D01*
X162663142Y-80668809D02*
X162710761Y-80716428D01*
X162758380Y-80668809D01*
X162710761Y-80621190D01*
X162663142Y-80668809D01*
X162758380Y-80668809D01*
X161853619Y-81097380D02*
X161806000Y-81145000D01*
X161758380Y-81240238D01*
X161758380Y-81478333D01*
X161806000Y-81573571D01*
X161853619Y-81621190D01*
X161948857Y-81668809D01*
X162044095Y-81668809D01*
X162186952Y-81621190D01*
X162758380Y-81049761D01*
X162758380Y-81668809D01*
X162186952Y-82240238D02*
X162139333Y-82145000D01*
X162091714Y-82097380D01*
X161996476Y-82049761D01*
X161948857Y-82049761D01*
X161853619Y-82097380D01*
X161806000Y-82145000D01*
X161758380Y-82240238D01*
X161758380Y-82430714D01*
X161806000Y-82525952D01*
X161853619Y-82573571D01*
X161948857Y-82621190D01*
X161996476Y-82621190D01*
X162091714Y-82573571D01*
X162139333Y-82525952D01*
X162186952Y-82430714D01*
X162186952Y-82240238D01*
X162234571Y-82145000D01*
X162282190Y-82097380D01*
X162377428Y-82049761D01*
X162567904Y-82049761D01*
X162663142Y-82097380D01*
X162710761Y-82145000D01*
X162758380Y-82240238D01*
X162758380Y-82430714D01*
X162710761Y-82525952D01*
X162663142Y-82573571D01*
X162567904Y-82621190D01*
X162377428Y-82621190D01*
X162282190Y-82573571D01*
X162234571Y-82525952D01*
X162186952Y-82430714D01*
X160218380Y-78716428D02*
X159218380Y-78716428D01*
X159218380Y-79097380D01*
X159266000Y-79192619D01*
X159313619Y-79240238D01*
X159408857Y-79287857D01*
X159551714Y-79287857D01*
X159646952Y-79240238D01*
X159694571Y-79192619D01*
X159742190Y-79097380D01*
X159742190Y-78716428D01*
X159218380Y-79906904D02*
X159218380Y-80002142D01*
X159266000Y-80097380D01*
X159313619Y-80145000D01*
X159408857Y-80192619D01*
X159599333Y-80240238D01*
X159837428Y-80240238D01*
X160027904Y-80192619D01*
X160123142Y-80145000D01*
X160170761Y-80097380D01*
X160218380Y-80002142D01*
X160218380Y-79906904D01*
X160170761Y-79811666D01*
X160123142Y-79764047D01*
X160027904Y-79716428D01*
X159837428Y-79668809D01*
X159599333Y-79668809D01*
X159408857Y-79716428D01*
X159313619Y-79764047D01*
X159266000Y-79811666D01*
X159218380Y-79906904D01*
X160123142Y-80668809D02*
X160170761Y-80716428D01*
X160218380Y-80668809D01*
X160170761Y-80621190D01*
X160123142Y-80668809D01*
X160218380Y-80668809D01*
X159313619Y-81097380D02*
X159266000Y-81145000D01*
X159218380Y-81240238D01*
X159218380Y-81478333D01*
X159266000Y-81573571D01*
X159313619Y-81621190D01*
X159408857Y-81668809D01*
X159504095Y-81668809D01*
X159646952Y-81621190D01*
X160218380Y-81049761D01*
X160218380Y-81668809D01*
X160218380Y-82145000D02*
X160218380Y-82335476D01*
X160170761Y-82430714D01*
X160123142Y-82478333D01*
X159980285Y-82573571D01*
X159789809Y-82621190D01*
X159408857Y-82621190D01*
X159313619Y-82573571D01*
X159266000Y-82525952D01*
X159218380Y-82430714D01*
X159218380Y-82240238D01*
X159266000Y-82145000D01*
X159313619Y-82097380D01*
X159408857Y-82049761D01*
X159646952Y-82049761D01*
X159742190Y-82097380D01*
X159789809Y-82145000D01*
X159837428Y-82240238D01*
X159837428Y-82430714D01*
X159789809Y-82525952D01*
X159742190Y-82573571D01*
X159646952Y-82621190D01*
X157678380Y-78652928D02*
X156678380Y-78652928D01*
X156678380Y-79033880D01*
X156726000Y-79129119D01*
X156773619Y-79176738D01*
X156868857Y-79224357D01*
X157011714Y-79224357D01*
X157106952Y-79176738D01*
X157154571Y-79129119D01*
X157202190Y-79033880D01*
X157202190Y-78652928D01*
X156678380Y-79843404D02*
X156678380Y-79938642D01*
X156726000Y-80033880D01*
X156773619Y-80081500D01*
X156868857Y-80129119D01*
X157059333Y-80176738D01*
X157297428Y-80176738D01*
X157487904Y-80129119D01*
X157583142Y-80081500D01*
X157630761Y-80033880D01*
X157678380Y-79938642D01*
X157678380Y-79843404D01*
X157630761Y-79748166D01*
X157583142Y-79700547D01*
X157487904Y-79652928D01*
X157297428Y-79605309D01*
X157059333Y-79605309D01*
X156868857Y-79652928D01*
X156773619Y-79700547D01*
X156726000Y-79748166D01*
X156678380Y-79843404D01*
X157583142Y-80605309D02*
X157630761Y-80652928D01*
X157678380Y-80605309D01*
X157630761Y-80557690D01*
X157583142Y-80605309D01*
X157678380Y-80605309D01*
X156678380Y-80986261D02*
X156678380Y-81605309D01*
X157059333Y-81271976D01*
X157059333Y-81414833D01*
X157106952Y-81510071D01*
X157154571Y-81557690D01*
X157249809Y-81605309D01*
X157487904Y-81605309D01*
X157583142Y-81557690D01*
X157630761Y-81510071D01*
X157678380Y-81414833D01*
X157678380Y-81129119D01*
X157630761Y-81033880D01*
X157583142Y-80986261D01*
X156678380Y-82224357D02*
X156678380Y-82319595D01*
X156726000Y-82414833D01*
X156773619Y-82462452D01*
X156868857Y-82510071D01*
X157059333Y-82557690D01*
X157297428Y-82557690D01*
X157487904Y-82510071D01*
X157583142Y-82462452D01*
X157630761Y-82414833D01*
X157678380Y-82319595D01*
X157678380Y-82224357D01*
X157630761Y-82129119D01*
X157583142Y-82081500D01*
X157487904Y-82033880D01*
X157297428Y-81986261D01*
X157059333Y-81986261D01*
X156868857Y-82033880D01*
X156773619Y-82081500D01*
X156726000Y-82129119D01*
X156678380Y-82224357D01*
X154947880Y-78652928D02*
X153947880Y-78652928D01*
X153947880Y-79033880D01*
X153995500Y-79129119D01*
X154043119Y-79176738D01*
X154138357Y-79224357D01*
X154281214Y-79224357D01*
X154376452Y-79176738D01*
X154424071Y-79129119D01*
X154471690Y-79033880D01*
X154471690Y-78652928D01*
X153947880Y-79843404D02*
X153947880Y-79938642D01*
X153995500Y-80033880D01*
X154043119Y-80081500D01*
X154138357Y-80129119D01*
X154328833Y-80176738D01*
X154566928Y-80176738D01*
X154757404Y-80129119D01*
X154852642Y-80081500D01*
X154900261Y-80033880D01*
X154947880Y-79938642D01*
X154947880Y-79843404D01*
X154900261Y-79748166D01*
X154852642Y-79700547D01*
X154757404Y-79652928D01*
X154566928Y-79605309D01*
X154328833Y-79605309D01*
X154138357Y-79652928D01*
X154043119Y-79700547D01*
X153995500Y-79748166D01*
X153947880Y-79843404D01*
X154852642Y-80605309D02*
X154900261Y-80652928D01*
X154947880Y-80605309D01*
X154900261Y-80557690D01*
X154852642Y-80605309D01*
X154947880Y-80605309D01*
X153947880Y-80986261D02*
X153947880Y-81605309D01*
X154328833Y-81271976D01*
X154328833Y-81414833D01*
X154376452Y-81510071D01*
X154424071Y-81557690D01*
X154519309Y-81605309D01*
X154757404Y-81605309D01*
X154852642Y-81557690D01*
X154900261Y-81510071D01*
X154947880Y-81414833D01*
X154947880Y-81129119D01*
X154900261Y-81033880D01*
X154852642Y-80986261D01*
X154947880Y-82557690D02*
X154947880Y-81986261D01*
X154947880Y-82271976D02*
X153947880Y-82271976D01*
X154090738Y-82176738D01*
X154185976Y-82081500D01*
X154233595Y-81986261D01*
X151407880Y-79121166D02*
X152407880Y-79454500D01*
X151407880Y-79787833D01*
X152312642Y-80692595D02*
X152360261Y-80644976D01*
X152407880Y-80502119D01*
X152407880Y-80406880D01*
X152360261Y-80264023D01*
X152265023Y-80168785D01*
X152169785Y-80121166D01*
X151979309Y-80073547D01*
X151836452Y-80073547D01*
X151645976Y-80121166D01*
X151550738Y-80168785D01*
X151455500Y-80264023D01*
X151407880Y-80406880D01*
X151407880Y-80502119D01*
X151455500Y-80644976D01*
X151503119Y-80692595D01*
X152312642Y-81692595D02*
X152360261Y-81644976D01*
X152407880Y-81502119D01*
X152407880Y-81406880D01*
X152360261Y-81264023D01*
X152265023Y-81168785D01*
X152169785Y-81121166D01*
X151979309Y-81073547D01*
X151836452Y-81073547D01*
X151645976Y-81121166D01*
X151550738Y-81168785D01*
X151455500Y-81264023D01*
X151407880Y-81406880D01*
X151407880Y-81502119D01*
X151455500Y-81644976D01*
X151503119Y-81692595D01*
X148931380Y-80010023D02*
X148931380Y-79533833D01*
X149407571Y-79486214D01*
X149359952Y-79533833D01*
X149312333Y-79629071D01*
X149312333Y-79867166D01*
X149359952Y-79962404D01*
X149407571Y-80010023D01*
X149502809Y-80057642D01*
X149740904Y-80057642D01*
X149836142Y-80010023D01*
X149883761Y-79962404D01*
X149931380Y-79867166D01*
X149931380Y-79629071D01*
X149883761Y-79533833D01*
X149836142Y-79486214D01*
X148931380Y-80343357D02*
X149931380Y-80676690D01*
X148931380Y-81010023D01*
X145486380Y-78652928D02*
X144486380Y-78652928D01*
X144486380Y-79033880D01*
X144534000Y-79129119D01*
X144581619Y-79176738D01*
X144676857Y-79224357D01*
X144819714Y-79224357D01*
X144914952Y-79176738D01*
X144962571Y-79129119D01*
X145010190Y-79033880D01*
X145010190Y-78652928D01*
X144486380Y-79843404D02*
X144486380Y-79938642D01*
X144534000Y-80033880D01*
X144581619Y-80081500D01*
X144676857Y-80129119D01*
X144867333Y-80176738D01*
X145105428Y-80176738D01*
X145295904Y-80129119D01*
X145391142Y-80081500D01*
X145438761Y-80033880D01*
X145486380Y-79938642D01*
X145486380Y-79843404D01*
X145438761Y-79748166D01*
X145391142Y-79700547D01*
X145295904Y-79652928D01*
X145105428Y-79605309D01*
X144867333Y-79605309D01*
X144676857Y-79652928D01*
X144581619Y-79700547D01*
X144534000Y-79748166D01*
X144486380Y-79843404D01*
X145391142Y-80605309D02*
X145438761Y-80652928D01*
X145486380Y-80605309D01*
X145438761Y-80557690D01*
X145391142Y-80605309D01*
X145486380Y-80605309D01*
X145486380Y-81605309D02*
X145486380Y-81033880D01*
X145486380Y-81319595D02*
X144486380Y-81319595D01*
X144629238Y-81224357D01*
X144724476Y-81129119D01*
X144772095Y-81033880D01*
X144486380Y-82224357D02*
X144486380Y-82319595D01*
X144534000Y-82414833D01*
X144581619Y-82462452D01*
X144676857Y-82510071D01*
X144867333Y-82557690D01*
X145105428Y-82557690D01*
X145295904Y-82510071D01*
X145391142Y-82462452D01*
X145438761Y-82414833D01*
X145486380Y-82319595D01*
X145486380Y-82224357D01*
X145438761Y-82129119D01*
X145391142Y-82081500D01*
X145295904Y-82033880D01*
X145105428Y-81986261D01*
X144867333Y-81986261D01*
X144676857Y-82033880D01*
X144581619Y-82081500D01*
X144534000Y-82129119D01*
X144486380Y-82224357D01*
X142882880Y-78652928D02*
X141882880Y-78652928D01*
X141882880Y-79033880D01*
X141930500Y-79129119D01*
X141978119Y-79176738D01*
X142073357Y-79224357D01*
X142216214Y-79224357D01*
X142311452Y-79176738D01*
X142359071Y-79129119D01*
X142406690Y-79033880D01*
X142406690Y-78652928D01*
X141882880Y-79843404D02*
X141882880Y-79938642D01*
X141930500Y-80033880D01*
X141978119Y-80081500D01*
X142073357Y-80129119D01*
X142263833Y-80176738D01*
X142501928Y-80176738D01*
X142692404Y-80129119D01*
X142787642Y-80081500D01*
X142835261Y-80033880D01*
X142882880Y-79938642D01*
X142882880Y-79843404D01*
X142835261Y-79748166D01*
X142787642Y-79700547D01*
X142692404Y-79652928D01*
X142501928Y-79605309D01*
X142263833Y-79605309D01*
X142073357Y-79652928D01*
X141978119Y-79700547D01*
X141930500Y-79748166D01*
X141882880Y-79843404D01*
X142787642Y-80605309D02*
X142835261Y-80652928D01*
X142882880Y-80605309D01*
X142835261Y-80557690D01*
X142787642Y-80605309D01*
X142882880Y-80605309D01*
X141882880Y-81271976D02*
X141882880Y-81367214D01*
X141930500Y-81462452D01*
X141978119Y-81510071D01*
X142073357Y-81557690D01*
X142263833Y-81605309D01*
X142501928Y-81605309D01*
X142692404Y-81557690D01*
X142787642Y-81510071D01*
X142835261Y-81462452D01*
X142882880Y-81367214D01*
X142882880Y-81271976D01*
X142835261Y-81176738D01*
X142787642Y-81129119D01*
X142692404Y-81081500D01*
X142501928Y-81033880D01*
X142263833Y-81033880D01*
X142073357Y-81081500D01*
X141978119Y-81129119D01*
X141930500Y-81176738D01*
X141882880Y-81271976D01*
X142882880Y-82081500D02*
X142882880Y-82271976D01*
X142835261Y-82367214D01*
X142787642Y-82414833D01*
X142644785Y-82510071D01*
X142454309Y-82557690D01*
X142073357Y-82557690D01*
X141978119Y-82510071D01*
X141930500Y-82462452D01*
X141882880Y-82367214D01*
X141882880Y-82176738D01*
X141930500Y-82081500D01*
X141978119Y-82033880D01*
X142073357Y-81986261D01*
X142311452Y-81986261D01*
X142406690Y-82033880D01*
X142454309Y-82081500D01*
X142501928Y-82176738D01*
X142501928Y-82367214D01*
X142454309Y-82462452D01*
X142406690Y-82510071D01*
X142311452Y-82557690D01*
X140342880Y-78652928D02*
X139342880Y-78652928D01*
X139342880Y-79033880D01*
X139390500Y-79129119D01*
X139438119Y-79176738D01*
X139533357Y-79224357D01*
X139676214Y-79224357D01*
X139771452Y-79176738D01*
X139819071Y-79129119D01*
X139866690Y-79033880D01*
X139866690Y-78652928D01*
X139342880Y-79843404D02*
X139342880Y-79938642D01*
X139390500Y-80033880D01*
X139438119Y-80081500D01*
X139533357Y-80129119D01*
X139723833Y-80176738D01*
X139961928Y-80176738D01*
X140152404Y-80129119D01*
X140247642Y-80081500D01*
X140295261Y-80033880D01*
X140342880Y-79938642D01*
X140342880Y-79843404D01*
X140295261Y-79748166D01*
X140247642Y-79700547D01*
X140152404Y-79652928D01*
X139961928Y-79605309D01*
X139723833Y-79605309D01*
X139533357Y-79652928D01*
X139438119Y-79700547D01*
X139390500Y-79748166D01*
X139342880Y-79843404D01*
X140247642Y-80605309D02*
X140295261Y-80652928D01*
X140342880Y-80605309D01*
X140295261Y-80557690D01*
X140247642Y-80605309D01*
X140342880Y-80605309D01*
X139342880Y-81271976D02*
X139342880Y-81367214D01*
X139390500Y-81462452D01*
X139438119Y-81510071D01*
X139533357Y-81557690D01*
X139723833Y-81605309D01*
X139961928Y-81605309D01*
X140152404Y-81557690D01*
X140247642Y-81510071D01*
X140295261Y-81462452D01*
X140342880Y-81367214D01*
X140342880Y-81271976D01*
X140295261Y-81176738D01*
X140247642Y-81129119D01*
X140152404Y-81081500D01*
X139961928Y-81033880D01*
X139723833Y-81033880D01*
X139533357Y-81081500D01*
X139438119Y-81129119D01*
X139390500Y-81176738D01*
X139342880Y-81271976D01*
X139771452Y-82176738D02*
X139723833Y-82081500D01*
X139676214Y-82033880D01*
X139580976Y-81986261D01*
X139533357Y-81986261D01*
X139438119Y-82033880D01*
X139390500Y-82081500D01*
X139342880Y-82176738D01*
X139342880Y-82367214D01*
X139390500Y-82462452D01*
X139438119Y-82510071D01*
X139533357Y-82557690D01*
X139580976Y-82557690D01*
X139676214Y-82510071D01*
X139723833Y-82462452D01*
X139771452Y-82367214D01*
X139771452Y-82176738D01*
X139819071Y-82081500D01*
X139866690Y-82033880D01*
X139961928Y-81986261D01*
X140152404Y-81986261D01*
X140247642Y-82033880D01*
X140295261Y-82081500D01*
X140342880Y-82176738D01*
X140342880Y-82367214D01*
X140295261Y-82462452D01*
X140247642Y-82510071D01*
X140152404Y-82557690D01*
X139961928Y-82557690D01*
X139866690Y-82510071D01*
X139819071Y-82462452D01*
X139771452Y-82367214D01*
X137929880Y-78652928D02*
X136929880Y-78652928D01*
X136929880Y-79033880D01*
X136977500Y-79129119D01*
X137025119Y-79176738D01*
X137120357Y-79224357D01*
X137263214Y-79224357D01*
X137358452Y-79176738D01*
X137406071Y-79129119D01*
X137453690Y-79033880D01*
X137453690Y-78652928D01*
X136929880Y-79843404D02*
X136929880Y-79938642D01*
X136977500Y-80033880D01*
X137025119Y-80081500D01*
X137120357Y-80129119D01*
X137310833Y-80176738D01*
X137548928Y-80176738D01*
X137739404Y-80129119D01*
X137834642Y-80081500D01*
X137882261Y-80033880D01*
X137929880Y-79938642D01*
X137929880Y-79843404D01*
X137882261Y-79748166D01*
X137834642Y-79700547D01*
X137739404Y-79652928D01*
X137548928Y-79605309D01*
X137310833Y-79605309D01*
X137120357Y-79652928D01*
X137025119Y-79700547D01*
X136977500Y-79748166D01*
X136929880Y-79843404D01*
X137834642Y-80605309D02*
X137882261Y-80652928D01*
X137929880Y-80605309D01*
X137882261Y-80557690D01*
X137834642Y-80605309D01*
X137929880Y-80605309D01*
X136929880Y-81271976D02*
X136929880Y-81367214D01*
X136977500Y-81462452D01*
X137025119Y-81510071D01*
X137120357Y-81557690D01*
X137310833Y-81605309D01*
X137548928Y-81605309D01*
X137739404Y-81557690D01*
X137834642Y-81510071D01*
X137882261Y-81462452D01*
X137929880Y-81367214D01*
X137929880Y-81271976D01*
X137882261Y-81176738D01*
X137834642Y-81129119D01*
X137739404Y-81081500D01*
X137548928Y-81033880D01*
X137310833Y-81033880D01*
X137120357Y-81081500D01*
X137025119Y-81129119D01*
X136977500Y-81176738D01*
X136929880Y-81271976D01*
X136929880Y-81938642D02*
X136929880Y-82605309D01*
X137929880Y-82176738D01*
X135326380Y-78652928D02*
X134326380Y-78652928D01*
X134326380Y-79033880D01*
X134374000Y-79129119D01*
X134421619Y-79176738D01*
X134516857Y-79224357D01*
X134659714Y-79224357D01*
X134754952Y-79176738D01*
X134802571Y-79129119D01*
X134850190Y-79033880D01*
X134850190Y-78652928D01*
X134326380Y-79843404D02*
X134326380Y-79938642D01*
X134374000Y-80033880D01*
X134421619Y-80081500D01*
X134516857Y-80129119D01*
X134707333Y-80176738D01*
X134945428Y-80176738D01*
X135135904Y-80129119D01*
X135231142Y-80081500D01*
X135278761Y-80033880D01*
X135326380Y-79938642D01*
X135326380Y-79843404D01*
X135278761Y-79748166D01*
X135231142Y-79700547D01*
X135135904Y-79652928D01*
X134945428Y-79605309D01*
X134707333Y-79605309D01*
X134516857Y-79652928D01*
X134421619Y-79700547D01*
X134374000Y-79748166D01*
X134326380Y-79843404D01*
X135231142Y-80605309D02*
X135278761Y-80652928D01*
X135326380Y-80605309D01*
X135278761Y-80557690D01*
X135231142Y-80605309D01*
X135326380Y-80605309D01*
X134326380Y-81271976D02*
X134326380Y-81367214D01*
X134374000Y-81462452D01*
X134421619Y-81510071D01*
X134516857Y-81557690D01*
X134707333Y-81605309D01*
X134945428Y-81605309D01*
X135135904Y-81557690D01*
X135231142Y-81510071D01*
X135278761Y-81462452D01*
X135326380Y-81367214D01*
X135326380Y-81271976D01*
X135278761Y-81176738D01*
X135231142Y-81129119D01*
X135135904Y-81081500D01*
X134945428Y-81033880D01*
X134707333Y-81033880D01*
X134516857Y-81081500D01*
X134421619Y-81129119D01*
X134374000Y-81176738D01*
X134326380Y-81271976D01*
X134326380Y-82462452D02*
X134326380Y-82271976D01*
X134374000Y-82176738D01*
X134421619Y-82129119D01*
X134564476Y-82033880D01*
X134754952Y-81986261D01*
X135135904Y-81986261D01*
X135231142Y-82033880D01*
X135278761Y-82081500D01*
X135326380Y-82176738D01*
X135326380Y-82367214D01*
X135278761Y-82462452D01*
X135231142Y-82510071D01*
X135135904Y-82557690D01*
X134897809Y-82557690D01*
X134802571Y-82510071D01*
X134754952Y-82462452D01*
X134707333Y-82367214D01*
X134707333Y-82176738D01*
X134754952Y-82081500D01*
X134802571Y-82033880D01*
X134897809Y-81986261D01*
X132786380Y-78652928D02*
X131786380Y-78652928D01*
X131786380Y-79033880D01*
X131834000Y-79129119D01*
X131881619Y-79176738D01*
X131976857Y-79224357D01*
X132119714Y-79224357D01*
X132214952Y-79176738D01*
X132262571Y-79129119D01*
X132310190Y-79033880D01*
X132310190Y-78652928D01*
X131786380Y-79843404D02*
X131786380Y-79938642D01*
X131834000Y-80033880D01*
X131881619Y-80081500D01*
X131976857Y-80129119D01*
X132167333Y-80176738D01*
X132405428Y-80176738D01*
X132595904Y-80129119D01*
X132691142Y-80081500D01*
X132738761Y-80033880D01*
X132786380Y-79938642D01*
X132786380Y-79843404D01*
X132738761Y-79748166D01*
X132691142Y-79700547D01*
X132595904Y-79652928D01*
X132405428Y-79605309D01*
X132167333Y-79605309D01*
X131976857Y-79652928D01*
X131881619Y-79700547D01*
X131834000Y-79748166D01*
X131786380Y-79843404D01*
X132691142Y-80605309D02*
X132738761Y-80652928D01*
X132786380Y-80605309D01*
X132738761Y-80557690D01*
X132691142Y-80605309D01*
X132786380Y-80605309D01*
X131786380Y-81271976D02*
X131786380Y-81367214D01*
X131834000Y-81462452D01*
X131881619Y-81510071D01*
X131976857Y-81557690D01*
X132167333Y-81605309D01*
X132405428Y-81605309D01*
X132595904Y-81557690D01*
X132691142Y-81510071D01*
X132738761Y-81462452D01*
X132786380Y-81367214D01*
X132786380Y-81271976D01*
X132738761Y-81176738D01*
X132691142Y-81129119D01*
X132595904Y-81081500D01*
X132405428Y-81033880D01*
X132167333Y-81033880D01*
X131976857Y-81081500D01*
X131881619Y-81129119D01*
X131834000Y-81176738D01*
X131786380Y-81271976D01*
X131786380Y-82510071D02*
X131786380Y-82033880D01*
X132262571Y-81986261D01*
X132214952Y-82033880D01*
X132167333Y-82129119D01*
X132167333Y-82367214D01*
X132214952Y-82462452D01*
X132262571Y-82510071D01*
X132357809Y-82557690D01*
X132595904Y-82557690D01*
X132691142Y-82510071D01*
X132738761Y-82462452D01*
X132786380Y-82367214D01*
X132786380Y-82129119D01*
X132738761Y-82033880D01*
X132691142Y-81986261D01*
X130182880Y-78652928D02*
X129182880Y-78652928D01*
X129182880Y-79033880D01*
X129230500Y-79129119D01*
X129278119Y-79176738D01*
X129373357Y-79224357D01*
X129516214Y-79224357D01*
X129611452Y-79176738D01*
X129659071Y-79129119D01*
X129706690Y-79033880D01*
X129706690Y-78652928D01*
X129182880Y-79843404D02*
X129182880Y-79938642D01*
X129230500Y-80033880D01*
X129278119Y-80081500D01*
X129373357Y-80129119D01*
X129563833Y-80176738D01*
X129801928Y-80176738D01*
X129992404Y-80129119D01*
X130087642Y-80081500D01*
X130135261Y-80033880D01*
X130182880Y-79938642D01*
X130182880Y-79843404D01*
X130135261Y-79748166D01*
X130087642Y-79700547D01*
X129992404Y-79652928D01*
X129801928Y-79605309D01*
X129563833Y-79605309D01*
X129373357Y-79652928D01*
X129278119Y-79700547D01*
X129230500Y-79748166D01*
X129182880Y-79843404D01*
X130087642Y-80605309D02*
X130135261Y-80652928D01*
X130182880Y-80605309D01*
X130135261Y-80557690D01*
X130087642Y-80605309D01*
X130182880Y-80605309D01*
X129182880Y-81271976D02*
X129182880Y-81367214D01*
X129230500Y-81462452D01*
X129278119Y-81510071D01*
X129373357Y-81557690D01*
X129563833Y-81605309D01*
X129801928Y-81605309D01*
X129992404Y-81557690D01*
X130087642Y-81510071D01*
X130135261Y-81462452D01*
X130182880Y-81367214D01*
X130182880Y-81271976D01*
X130135261Y-81176738D01*
X130087642Y-81129119D01*
X129992404Y-81081500D01*
X129801928Y-81033880D01*
X129563833Y-81033880D01*
X129373357Y-81081500D01*
X129278119Y-81129119D01*
X129230500Y-81176738D01*
X129182880Y-81271976D01*
X129516214Y-82462452D02*
X130182880Y-82462452D01*
X129135261Y-82224357D02*
X129849547Y-81986261D01*
X129849547Y-82605309D01*
X127642880Y-78652928D02*
X126642880Y-78652928D01*
X126642880Y-79033880D01*
X126690500Y-79129119D01*
X126738119Y-79176738D01*
X126833357Y-79224357D01*
X126976214Y-79224357D01*
X127071452Y-79176738D01*
X127119071Y-79129119D01*
X127166690Y-79033880D01*
X127166690Y-78652928D01*
X126642880Y-79843404D02*
X126642880Y-79938642D01*
X126690500Y-80033880D01*
X126738119Y-80081500D01*
X126833357Y-80129119D01*
X127023833Y-80176738D01*
X127261928Y-80176738D01*
X127452404Y-80129119D01*
X127547642Y-80081500D01*
X127595261Y-80033880D01*
X127642880Y-79938642D01*
X127642880Y-79843404D01*
X127595261Y-79748166D01*
X127547642Y-79700547D01*
X127452404Y-79652928D01*
X127261928Y-79605309D01*
X127023833Y-79605309D01*
X126833357Y-79652928D01*
X126738119Y-79700547D01*
X126690500Y-79748166D01*
X126642880Y-79843404D01*
X127547642Y-80605309D02*
X127595261Y-80652928D01*
X127642880Y-80605309D01*
X127595261Y-80557690D01*
X127547642Y-80605309D01*
X127642880Y-80605309D01*
X126642880Y-81271976D02*
X126642880Y-81367214D01*
X126690500Y-81462452D01*
X126738119Y-81510071D01*
X126833357Y-81557690D01*
X127023833Y-81605309D01*
X127261928Y-81605309D01*
X127452404Y-81557690D01*
X127547642Y-81510071D01*
X127595261Y-81462452D01*
X127642880Y-81367214D01*
X127642880Y-81271976D01*
X127595261Y-81176738D01*
X127547642Y-81129119D01*
X127452404Y-81081500D01*
X127261928Y-81033880D01*
X127023833Y-81033880D01*
X126833357Y-81081500D01*
X126738119Y-81129119D01*
X126690500Y-81176738D01*
X126642880Y-81271976D01*
X126642880Y-81938642D02*
X126642880Y-82557690D01*
X127023833Y-82224357D01*
X127023833Y-82367214D01*
X127071452Y-82462452D01*
X127119071Y-82510071D01*
X127214309Y-82557690D01*
X127452404Y-82557690D01*
X127547642Y-82510071D01*
X127595261Y-82462452D01*
X127642880Y-82367214D01*
X127642880Y-82081500D01*
X127595261Y-81986261D01*
X127547642Y-81938642D01*
X125166380Y-78652928D02*
X124166380Y-78652928D01*
X124166380Y-79033880D01*
X124214000Y-79129119D01*
X124261619Y-79176738D01*
X124356857Y-79224357D01*
X124499714Y-79224357D01*
X124594952Y-79176738D01*
X124642571Y-79129119D01*
X124690190Y-79033880D01*
X124690190Y-78652928D01*
X124166380Y-79843404D02*
X124166380Y-79938642D01*
X124214000Y-80033880D01*
X124261619Y-80081500D01*
X124356857Y-80129119D01*
X124547333Y-80176738D01*
X124785428Y-80176738D01*
X124975904Y-80129119D01*
X125071142Y-80081500D01*
X125118761Y-80033880D01*
X125166380Y-79938642D01*
X125166380Y-79843404D01*
X125118761Y-79748166D01*
X125071142Y-79700547D01*
X124975904Y-79652928D01*
X124785428Y-79605309D01*
X124547333Y-79605309D01*
X124356857Y-79652928D01*
X124261619Y-79700547D01*
X124214000Y-79748166D01*
X124166380Y-79843404D01*
X125071142Y-80605309D02*
X125118761Y-80652928D01*
X125166380Y-80605309D01*
X125118761Y-80557690D01*
X125071142Y-80605309D01*
X125166380Y-80605309D01*
X124166380Y-81271976D02*
X124166380Y-81367214D01*
X124214000Y-81462452D01*
X124261619Y-81510071D01*
X124356857Y-81557690D01*
X124547333Y-81605309D01*
X124785428Y-81605309D01*
X124975904Y-81557690D01*
X125071142Y-81510071D01*
X125118761Y-81462452D01*
X125166380Y-81367214D01*
X125166380Y-81271976D01*
X125118761Y-81176738D01*
X125071142Y-81129119D01*
X124975904Y-81081500D01*
X124785428Y-81033880D01*
X124547333Y-81033880D01*
X124356857Y-81081500D01*
X124261619Y-81129119D01*
X124214000Y-81176738D01*
X124166380Y-81271976D01*
X124261619Y-81986261D02*
X124214000Y-82033880D01*
X124166380Y-82129119D01*
X124166380Y-82367214D01*
X124214000Y-82462452D01*
X124261619Y-82510071D01*
X124356857Y-82557690D01*
X124452095Y-82557690D01*
X124594952Y-82510071D01*
X125166380Y-81938642D01*
X125166380Y-82557690D01*
X121610500Y-79184595D02*
X121562880Y-79089357D01*
X121562880Y-78946500D01*
X121610500Y-78803642D01*
X121705738Y-78708404D01*
X121800976Y-78660785D01*
X121991452Y-78613166D01*
X122134309Y-78613166D01*
X122324785Y-78660785D01*
X122420023Y-78708404D01*
X122515261Y-78803642D01*
X122562880Y-78946500D01*
X122562880Y-79041738D01*
X122515261Y-79184595D01*
X122467642Y-79232214D01*
X122134309Y-79232214D01*
X122134309Y-79041738D01*
X122562880Y-79660785D02*
X121562880Y-79660785D01*
X122562880Y-80232214D01*
X121562880Y-80232214D01*
X122562880Y-80708404D02*
X121562880Y-80708404D01*
X121562880Y-80946500D01*
X121610500Y-81089357D01*
X121705738Y-81184595D01*
X121800976Y-81232214D01*
X121991452Y-81279833D01*
X122134309Y-81279833D01*
X122324785Y-81232214D01*
X122420023Y-81184595D01*
X122515261Y-81089357D01*
X122562880Y-80946500D01*
X122562880Y-80708404D01*
M02*
